G04 #@! TF.FileFunction,Copper,L2,Bot,Signal*
%FSLAX46Y46*%
G04 Gerber Fmt 4.6, Leading zero omitted, Abs format (unit mm)*
G04 Created by KiCad (PCBNEW 4.0.2+dfsg1-stable) date ថ្ងៃ​ច័ន្ទ ថ្ងៃ 19 ខែ មិនា ឆ្នាំ  2018, 20 ម៉ោង m នាទី 38 វិនាទី​*
%MOMM*%
G01*
G04 APERTURE LIST*
%ADD10C,0.100000*%
%ADD11C,0.300000*%
%ADD12R,1.727200X1.727200*%
%ADD13O,1.727200X1.727200*%
%ADD14R,2.032000X1.727200*%
%ADD15O,2.032000X1.727200*%
%ADD16C,1.300000*%
%ADD17R,1.300000X1.300000*%
%ADD18R,1.750000X1.750000*%
%ADD19C,1.800000*%
%ADD20R,2.032000X2.032000*%
%ADD21O,2.032000X2.032000*%
%ADD22C,1.524000*%
%ADD23R,1.524000X1.524000*%
%ADD24C,0.600000*%
%ADD25C,1.000000*%
%ADD26C,0.250000*%
%ADD27C,0.254000*%
G04 APERTURE END LIST*
D10*
D11*
X130971429Y-103678571D02*
X130471429Y-105178571D01*
X129971429Y-103678571D01*
X129471429Y-105178571D02*
X129471429Y-103678571D01*
X128757143Y-105178571D02*
X128757143Y-103678571D01*
X127900000Y-105178571D01*
X127900000Y-103678571D01*
X127185714Y-104607143D02*
X126042857Y-104607143D01*
X126614286Y-105178571D02*
X126614286Y-104035714D01*
X126721428Y-110607143D02*
X125578571Y-110607143D01*
D12*
X129430000Y-98340000D03*
D13*
X129430000Y-95800000D03*
X131970000Y-98340000D03*
X131970000Y-95800000D03*
X134510000Y-98340000D03*
X134510000Y-95800000D03*
X137050000Y-98340000D03*
X137050000Y-95800000D03*
X139590000Y-98340000D03*
X139590000Y-95800000D03*
X142130000Y-98340000D03*
X142130000Y-95800000D03*
X144670000Y-98340000D03*
X144670000Y-95800000D03*
X147210000Y-98340000D03*
X147210000Y-95800000D03*
X149750000Y-98340000D03*
X149750000Y-95800000D03*
X152290000Y-98340000D03*
X152290000Y-95800000D03*
X154830000Y-98340000D03*
X154830000Y-95800000D03*
X157370000Y-98340000D03*
X157370000Y-95800000D03*
X159910000Y-98340000D03*
X159910000Y-95800000D03*
X162450000Y-98340000D03*
X162450000Y-95800000D03*
X164990000Y-98340000D03*
X164990000Y-95800000D03*
X167530000Y-98340000D03*
X167530000Y-95800000D03*
X170070000Y-98340000D03*
X170070000Y-95800000D03*
X172610000Y-98340000D03*
X172610000Y-95800000D03*
X175150000Y-98340000D03*
X175150000Y-95800000D03*
X177690000Y-98340000D03*
X177690000Y-95800000D03*
D14*
X183660000Y-107710000D03*
D15*
X183660000Y-110250000D03*
X183660000Y-112790000D03*
X183660000Y-115330000D03*
D16*
X153670000Y-120180000D03*
D17*
X151170000Y-120180000D03*
D16*
X174150000Y-119870000D03*
D17*
X171650000Y-119870000D03*
D18*
X179340000Y-120390000D03*
D19*
X179340000Y-117850000D03*
X179340000Y-115310000D03*
X179340000Y-112770000D03*
X179340000Y-110230000D03*
X179340000Y-107690000D03*
X179340000Y-105150000D03*
X179340000Y-102610000D03*
X166640000Y-120390000D03*
X166640000Y-117850000D03*
X166640000Y-115310000D03*
X166640000Y-112770000D03*
X166640000Y-110230000D03*
X166640000Y-105150000D03*
X166640000Y-107690000D03*
X166640000Y-102610000D03*
D20*
X123030000Y-107610000D03*
D21*
X123030000Y-110150000D03*
D19*
X124079000Y-102072000D03*
X124079000Y-104612000D03*
X124079000Y-115280000D03*
X124079000Y-112740000D03*
X142621000Y-102072000D03*
X142621000Y-104612000D03*
X142621000Y-112740000D03*
X142621000Y-115280000D03*
D14*
X162720000Y-107880000D03*
D15*
X162720000Y-110420000D03*
X162720000Y-112960000D03*
X162720000Y-115500000D03*
D22*
X131520000Y-120280000D03*
D23*
X134020000Y-120280000D03*
D22*
X129020000Y-120280000D03*
D24*
X139930000Y-112230000D03*
X141500000Y-108750000D03*
X135050000Y-118600000D03*
X128880000Y-117490000D03*
X153240000Y-110180000D03*
X169050000Y-120870000D03*
X169190000Y-113080000D03*
D25*
X158750000Y-120650000D02*
X156875000Y-120650000D01*
X156875000Y-120650000D02*
X156849999Y-120624999D01*
X156849999Y-120624999D02*
X156849999Y-106037209D01*
X156849999Y-106037209D02*
X157477208Y-105410000D01*
X157477208Y-105410000D02*
X158750000Y-105410000D01*
X174150000Y-119870000D02*
X178820000Y-119870000D01*
X178820000Y-119870000D02*
X179340000Y-120390000D01*
X153670000Y-120180000D02*
X158280000Y-120180000D01*
X158280000Y-120180000D02*
X158750000Y-120650000D01*
X171650000Y-119870000D02*
X171650000Y-109027208D01*
X171650000Y-109027208D02*
X178067208Y-102610000D01*
X178067208Y-102610000D02*
X179340000Y-102610000D01*
X151170000Y-120180000D02*
X151170000Y-121830000D01*
X151170000Y-121830000D02*
X151865001Y-122525001D01*
X151865001Y-122525001D02*
X170644999Y-122525001D01*
X170644999Y-122525001D02*
X171650000Y-121520000D01*
X171650000Y-121520000D02*
X171650000Y-119870000D01*
X139930000Y-112230000D02*
X135310000Y-107610000D01*
X135310000Y-107610000D02*
X123030000Y-107610000D01*
X141500000Y-108750000D02*
X139950000Y-108750000D01*
X139950000Y-108750000D02*
X133400000Y-102200000D01*
X133400000Y-102200000D02*
X128900000Y-102200000D01*
X128900000Y-102200000D02*
X126950000Y-100250000D01*
X128208686Y-95800000D02*
X129430000Y-95800000D01*
X126950000Y-100250000D02*
X126950000Y-97058686D01*
X126950000Y-97058686D02*
X128208686Y-95800000D01*
D26*
X134750001Y-118300001D02*
X135050000Y-118600000D01*
X133940000Y-117490000D02*
X134750001Y-118300001D01*
X128880000Y-117490000D02*
X133940000Y-117490000D01*
X153240000Y-110180000D02*
X146050000Y-102990000D01*
X146050000Y-102990000D02*
X146050000Y-102870000D01*
X169190000Y-113080000D02*
X169190000Y-120730000D01*
X169190000Y-120730000D02*
X169050000Y-120870000D01*
X185020000Y-96690000D02*
X182840000Y-94510000D01*
X146050000Y-120650000D02*
X155724990Y-110975011D01*
X182840000Y-94510000D02*
X179270000Y-94510000D01*
X155724990Y-110975011D02*
X155724990Y-103638008D01*
X165422987Y-101570011D02*
X165907999Y-101084999D01*
X158017999Y-101344999D02*
X159482001Y-101344999D01*
X165907999Y-101084999D02*
X167372001Y-101084999D01*
X155724990Y-103638008D02*
X158017999Y-101344999D01*
X159482001Y-101344999D02*
X159707013Y-101570011D01*
X159707013Y-101570011D02*
X165422987Y-101570011D01*
X179270000Y-94510000D02*
X179171399Y-94411399D01*
X167372001Y-101084999D02*
X167457002Y-101170000D01*
X178522998Y-101170000D02*
X178942998Y-100750000D01*
X167457002Y-101170000D02*
X178522998Y-101170000D01*
X178942998Y-100750000D02*
X185020000Y-100750000D01*
X185020000Y-100750000D02*
X185020000Y-96690000D01*
X179171399Y-94411399D02*
X176638601Y-94411399D01*
X176638601Y-94411399D02*
X176580000Y-94470000D01*
X176580000Y-94470000D02*
X176480000Y-94470000D01*
X176480000Y-94470000D02*
X175150000Y-95800000D01*
X147322792Y-118110000D02*
X146050000Y-118110000D01*
X160017677Y-100820000D02*
X159792665Y-100594988D01*
X159792665Y-100594988D02*
X157707335Y-100594988D01*
X177690000Y-95800000D02*
X179178601Y-97288601D01*
X147529326Y-118110000D02*
X147322792Y-118110000D01*
X154974979Y-103327344D02*
X154974979Y-110664347D01*
X157707335Y-100594988D02*
X154974979Y-103327344D01*
X165112324Y-100820000D02*
X160017677Y-100820000D01*
X165597335Y-100334988D02*
X165112324Y-100820000D01*
X177898142Y-100334988D02*
X165597335Y-100334988D01*
X179178601Y-99054529D02*
X177898142Y-100334988D01*
X154974979Y-110664347D02*
X147529326Y-118110000D01*
X179178601Y-97288601D02*
X179178601Y-99054529D01*
D27*
G36*
X185450000Y-120472533D02*
X185261383Y-121420775D01*
X184762463Y-122167463D01*
X184015777Y-122666383D01*
X183067533Y-122855000D01*
X171920132Y-122855000D01*
X172452566Y-122322566D01*
X172495971Y-122257606D01*
X172698603Y-121954346D01*
X172785000Y-121520000D01*
X172785000Y-120934975D01*
X172896431Y-120771890D01*
X172897012Y-120769016D01*
X173430590Y-120769016D01*
X173486271Y-120999611D01*
X173969078Y-121167622D01*
X174479428Y-121138083D01*
X174813729Y-120999611D01*
X174869410Y-120769016D01*
X174776145Y-120675750D01*
X177830000Y-120675750D01*
X177830000Y-121391310D01*
X177926673Y-121624699D01*
X178105302Y-121803327D01*
X178338691Y-121900000D01*
X179054250Y-121900000D01*
X179213000Y-121741250D01*
X179213000Y-120517000D01*
X177988750Y-120517000D01*
X177830000Y-120675750D01*
X174776145Y-120675750D01*
X174150000Y-120049605D01*
X173430590Y-120769016D01*
X172897012Y-120769016D01*
X172947440Y-120520000D01*
X172947440Y-120357615D01*
X173020389Y-120533729D01*
X173250984Y-120589410D01*
X173970395Y-119870000D01*
X174329605Y-119870000D01*
X175049016Y-120589410D01*
X175279611Y-120533729D01*
X175447622Y-120050922D01*
X175418083Y-119540572D01*
X175279611Y-119206271D01*
X175049016Y-119150590D01*
X174329605Y-119870000D01*
X173970395Y-119870000D01*
X173250984Y-119150590D01*
X173020389Y-119206271D01*
X172947440Y-119415902D01*
X172947440Y-119220000D01*
X172903162Y-118984683D01*
X172894347Y-118970984D01*
X173430590Y-118970984D01*
X174150000Y-119690395D01*
X174869410Y-118970984D01*
X174813729Y-118740389D01*
X174330922Y-118572378D01*
X173820572Y-118601917D01*
X173486271Y-118740389D01*
X173430590Y-118970984D01*
X172894347Y-118970984D01*
X172785000Y-118801054D01*
X172785000Y-109497340D01*
X174288349Y-107993991D01*
X177804735Y-107993991D01*
X178037932Y-108558371D01*
X178439182Y-108960323D01*
X178039449Y-109359357D01*
X177805267Y-109923330D01*
X177804735Y-110533991D01*
X178037932Y-111098371D01*
X178439182Y-111500323D01*
X178039449Y-111899357D01*
X177805267Y-112463330D01*
X177804735Y-113073991D01*
X178037932Y-113638371D01*
X178439182Y-114040323D01*
X178039449Y-114439357D01*
X177805267Y-115003330D01*
X177804735Y-115613991D01*
X178037932Y-116178371D01*
X178439182Y-116580323D01*
X178039449Y-116979357D01*
X177805267Y-117543330D01*
X177804735Y-118153991D01*
X178037932Y-118718371D01*
X178240061Y-118920854D01*
X178105302Y-118976673D01*
X177926673Y-119155301D01*
X177830000Y-119388690D01*
X177830000Y-120104250D01*
X177988750Y-120263000D01*
X179213000Y-120263000D01*
X179213000Y-120243000D01*
X179467000Y-120243000D01*
X179467000Y-120263000D01*
X179487000Y-120263000D01*
X179487000Y-120517000D01*
X179467000Y-120517000D01*
X179467000Y-121741250D01*
X179625750Y-121900000D01*
X180341309Y-121900000D01*
X180574698Y-121803327D01*
X180753327Y-121624699D01*
X180850000Y-121391310D01*
X180850000Y-121137617D01*
X181125327Y-121549673D01*
X181817971Y-122012483D01*
X182635000Y-122175000D01*
X183452029Y-122012483D01*
X184144673Y-121549673D01*
X184607483Y-120857029D01*
X184770000Y-120040000D01*
X184607483Y-119222971D01*
X184144673Y-118530327D01*
X183452029Y-118067517D01*
X182635000Y-117905000D01*
X181817971Y-118067517D01*
X181125327Y-118530327D01*
X180725995Y-119127969D01*
X180574698Y-118976673D01*
X180439975Y-118920869D01*
X180640551Y-118720643D01*
X180874733Y-118156670D01*
X180875265Y-117546009D01*
X180642068Y-116981629D01*
X180240818Y-116579677D01*
X180640551Y-116180643D01*
X180874733Y-115616670D01*
X180875265Y-115006009D01*
X180642068Y-114441629D01*
X180240818Y-114039677D01*
X180640551Y-113640643D01*
X180874733Y-113076670D01*
X180875265Y-112466009D01*
X180642068Y-111901629D01*
X180240818Y-111499677D01*
X180640551Y-111100643D01*
X180874733Y-110536670D01*
X180874982Y-110250000D01*
X181976655Y-110250000D01*
X182090729Y-110823489D01*
X182415585Y-111309670D01*
X182730366Y-111520000D01*
X182415585Y-111730330D01*
X182090729Y-112216511D01*
X181976655Y-112790000D01*
X182090729Y-113363489D01*
X182415585Y-113849670D01*
X182730366Y-114060000D01*
X182415585Y-114270330D01*
X182090729Y-114756511D01*
X181976655Y-115330000D01*
X182090729Y-115903489D01*
X182415585Y-116389670D01*
X182901766Y-116714526D01*
X183475255Y-116828600D01*
X183844745Y-116828600D01*
X184418234Y-116714526D01*
X184904415Y-116389670D01*
X185229271Y-115903489D01*
X185343345Y-115330000D01*
X185229271Y-114756511D01*
X184904415Y-114270330D01*
X184589634Y-114060000D01*
X184904415Y-113849670D01*
X185229271Y-113363489D01*
X185343345Y-112790000D01*
X185229271Y-112216511D01*
X184904415Y-111730330D01*
X184589634Y-111520000D01*
X184904415Y-111309670D01*
X185229271Y-110823489D01*
X185343345Y-110250000D01*
X185229271Y-109676511D01*
X184904415Y-109190330D01*
X184890087Y-109180757D01*
X184911317Y-109176762D01*
X185127441Y-109037690D01*
X185272431Y-108825490D01*
X185323440Y-108573600D01*
X185323440Y-106846400D01*
X185279162Y-106611083D01*
X185140090Y-106394959D01*
X184927890Y-106249969D01*
X184676000Y-106198960D01*
X182644000Y-106198960D01*
X182408683Y-106243238D01*
X182192559Y-106382310D01*
X182047569Y-106594510D01*
X181996560Y-106846400D01*
X181996560Y-108573600D01*
X182040838Y-108808917D01*
X182179910Y-109025041D01*
X182392110Y-109170031D01*
X182433439Y-109178400D01*
X182415585Y-109190330D01*
X182090729Y-109676511D01*
X181976655Y-110250000D01*
X180874982Y-110250000D01*
X180875265Y-109926009D01*
X180642068Y-109361629D01*
X180240818Y-108959677D01*
X180640551Y-108560643D01*
X180874733Y-107996670D01*
X180875265Y-107386009D01*
X180642068Y-106821629D01*
X180210643Y-106389449D01*
X180189806Y-106380797D01*
X180240554Y-106230159D01*
X179340000Y-105329605D01*
X178439446Y-106230159D01*
X178490035Y-106380327D01*
X178471629Y-106387932D01*
X178039449Y-106819357D01*
X177805267Y-107383330D01*
X177804735Y-107993991D01*
X174288349Y-107993991D01*
X178146366Y-104135974D01*
X178259839Y-104249447D01*
X178003357Y-104335852D01*
X177793542Y-104909336D01*
X177819161Y-105519460D01*
X178003357Y-105964148D01*
X178259841Y-106050554D01*
X179160395Y-105150000D01*
X179519605Y-105150000D01*
X180420159Y-106050554D01*
X180676643Y-105964148D01*
X180886458Y-105390664D01*
X180860839Y-104780540D01*
X180676643Y-104335852D01*
X180420159Y-104249446D01*
X179519605Y-105150000D01*
X179160395Y-105150000D01*
X179146253Y-105135858D01*
X179325858Y-104956253D01*
X179340000Y-104970395D01*
X180240554Y-104069841D01*
X180189965Y-103919673D01*
X180208371Y-103912068D01*
X180640551Y-103480643D01*
X180874733Y-102916670D01*
X180875265Y-102306009D01*
X180642068Y-101741629D01*
X180410844Y-101510000D01*
X185020000Y-101510000D01*
X185310839Y-101452148D01*
X185450000Y-101359164D01*
X185450000Y-120472533D01*
X185450000Y-120472533D01*
G37*
X185450000Y-120472533D02*
X185261383Y-121420775D01*
X184762463Y-122167463D01*
X184015777Y-122666383D01*
X183067533Y-122855000D01*
X171920132Y-122855000D01*
X172452566Y-122322566D01*
X172495971Y-122257606D01*
X172698603Y-121954346D01*
X172785000Y-121520000D01*
X172785000Y-120934975D01*
X172896431Y-120771890D01*
X172897012Y-120769016D01*
X173430590Y-120769016D01*
X173486271Y-120999611D01*
X173969078Y-121167622D01*
X174479428Y-121138083D01*
X174813729Y-120999611D01*
X174869410Y-120769016D01*
X174776145Y-120675750D01*
X177830000Y-120675750D01*
X177830000Y-121391310D01*
X177926673Y-121624699D01*
X178105302Y-121803327D01*
X178338691Y-121900000D01*
X179054250Y-121900000D01*
X179213000Y-121741250D01*
X179213000Y-120517000D01*
X177988750Y-120517000D01*
X177830000Y-120675750D01*
X174776145Y-120675750D01*
X174150000Y-120049605D01*
X173430590Y-120769016D01*
X172897012Y-120769016D01*
X172947440Y-120520000D01*
X172947440Y-120357615D01*
X173020389Y-120533729D01*
X173250984Y-120589410D01*
X173970395Y-119870000D01*
X174329605Y-119870000D01*
X175049016Y-120589410D01*
X175279611Y-120533729D01*
X175447622Y-120050922D01*
X175418083Y-119540572D01*
X175279611Y-119206271D01*
X175049016Y-119150590D01*
X174329605Y-119870000D01*
X173970395Y-119870000D01*
X173250984Y-119150590D01*
X173020389Y-119206271D01*
X172947440Y-119415902D01*
X172947440Y-119220000D01*
X172903162Y-118984683D01*
X172894347Y-118970984D01*
X173430590Y-118970984D01*
X174150000Y-119690395D01*
X174869410Y-118970984D01*
X174813729Y-118740389D01*
X174330922Y-118572378D01*
X173820572Y-118601917D01*
X173486271Y-118740389D01*
X173430590Y-118970984D01*
X172894347Y-118970984D01*
X172785000Y-118801054D01*
X172785000Y-109497340D01*
X174288349Y-107993991D01*
X177804735Y-107993991D01*
X178037932Y-108558371D01*
X178439182Y-108960323D01*
X178039449Y-109359357D01*
X177805267Y-109923330D01*
X177804735Y-110533991D01*
X178037932Y-111098371D01*
X178439182Y-111500323D01*
X178039449Y-111899357D01*
X177805267Y-112463330D01*
X177804735Y-113073991D01*
X178037932Y-113638371D01*
X178439182Y-114040323D01*
X178039449Y-114439357D01*
X177805267Y-115003330D01*
X177804735Y-115613991D01*
X178037932Y-116178371D01*
X178439182Y-116580323D01*
X178039449Y-116979357D01*
X177805267Y-117543330D01*
X177804735Y-118153991D01*
X178037932Y-118718371D01*
X178240061Y-118920854D01*
X178105302Y-118976673D01*
X177926673Y-119155301D01*
X177830000Y-119388690D01*
X177830000Y-120104250D01*
X177988750Y-120263000D01*
X179213000Y-120263000D01*
X179213000Y-120243000D01*
X179467000Y-120243000D01*
X179467000Y-120263000D01*
X179487000Y-120263000D01*
X179487000Y-120517000D01*
X179467000Y-120517000D01*
X179467000Y-121741250D01*
X179625750Y-121900000D01*
X180341309Y-121900000D01*
X180574698Y-121803327D01*
X180753327Y-121624699D01*
X180850000Y-121391310D01*
X180850000Y-121137617D01*
X181125327Y-121549673D01*
X181817971Y-122012483D01*
X182635000Y-122175000D01*
X183452029Y-122012483D01*
X184144673Y-121549673D01*
X184607483Y-120857029D01*
X184770000Y-120040000D01*
X184607483Y-119222971D01*
X184144673Y-118530327D01*
X183452029Y-118067517D01*
X182635000Y-117905000D01*
X181817971Y-118067517D01*
X181125327Y-118530327D01*
X180725995Y-119127969D01*
X180574698Y-118976673D01*
X180439975Y-118920869D01*
X180640551Y-118720643D01*
X180874733Y-118156670D01*
X180875265Y-117546009D01*
X180642068Y-116981629D01*
X180240818Y-116579677D01*
X180640551Y-116180643D01*
X180874733Y-115616670D01*
X180875265Y-115006009D01*
X180642068Y-114441629D01*
X180240818Y-114039677D01*
X180640551Y-113640643D01*
X180874733Y-113076670D01*
X180875265Y-112466009D01*
X180642068Y-111901629D01*
X180240818Y-111499677D01*
X180640551Y-111100643D01*
X180874733Y-110536670D01*
X180874982Y-110250000D01*
X181976655Y-110250000D01*
X182090729Y-110823489D01*
X182415585Y-111309670D01*
X182730366Y-111520000D01*
X182415585Y-111730330D01*
X182090729Y-112216511D01*
X181976655Y-112790000D01*
X182090729Y-113363489D01*
X182415585Y-113849670D01*
X182730366Y-114060000D01*
X182415585Y-114270330D01*
X182090729Y-114756511D01*
X181976655Y-115330000D01*
X182090729Y-115903489D01*
X182415585Y-116389670D01*
X182901766Y-116714526D01*
X183475255Y-116828600D01*
X183844745Y-116828600D01*
X184418234Y-116714526D01*
X184904415Y-116389670D01*
X185229271Y-115903489D01*
X185343345Y-115330000D01*
X185229271Y-114756511D01*
X184904415Y-114270330D01*
X184589634Y-114060000D01*
X184904415Y-113849670D01*
X185229271Y-113363489D01*
X185343345Y-112790000D01*
X185229271Y-112216511D01*
X184904415Y-111730330D01*
X184589634Y-111520000D01*
X184904415Y-111309670D01*
X185229271Y-110823489D01*
X185343345Y-110250000D01*
X185229271Y-109676511D01*
X184904415Y-109190330D01*
X184890087Y-109180757D01*
X184911317Y-109176762D01*
X185127441Y-109037690D01*
X185272431Y-108825490D01*
X185323440Y-108573600D01*
X185323440Y-106846400D01*
X185279162Y-106611083D01*
X185140090Y-106394959D01*
X184927890Y-106249969D01*
X184676000Y-106198960D01*
X182644000Y-106198960D01*
X182408683Y-106243238D01*
X182192559Y-106382310D01*
X182047569Y-106594510D01*
X181996560Y-106846400D01*
X181996560Y-108573600D01*
X182040838Y-108808917D01*
X182179910Y-109025041D01*
X182392110Y-109170031D01*
X182433439Y-109178400D01*
X182415585Y-109190330D01*
X182090729Y-109676511D01*
X181976655Y-110250000D01*
X180874982Y-110250000D01*
X180875265Y-109926009D01*
X180642068Y-109361629D01*
X180240818Y-108959677D01*
X180640551Y-108560643D01*
X180874733Y-107996670D01*
X180875265Y-107386009D01*
X180642068Y-106821629D01*
X180210643Y-106389449D01*
X180189806Y-106380797D01*
X180240554Y-106230159D01*
X179340000Y-105329605D01*
X178439446Y-106230159D01*
X178490035Y-106380327D01*
X178471629Y-106387932D01*
X178039449Y-106819357D01*
X177805267Y-107383330D01*
X177804735Y-107993991D01*
X174288349Y-107993991D01*
X178146366Y-104135974D01*
X178259839Y-104249447D01*
X178003357Y-104335852D01*
X177793542Y-104909336D01*
X177819161Y-105519460D01*
X178003357Y-105964148D01*
X178259841Y-106050554D01*
X179160395Y-105150000D01*
X179519605Y-105150000D01*
X180420159Y-106050554D01*
X180676643Y-105964148D01*
X180886458Y-105390664D01*
X180860839Y-104780540D01*
X180676643Y-104335852D01*
X180420159Y-104249446D01*
X179519605Y-105150000D01*
X179160395Y-105150000D01*
X179146253Y-105135858D01*
X179325858Y-104956253D01*
X179340000Y-104970395D01*
X180240554Y-104069841D01*
X180189965Y-103919673D01*
X180208371Y-103912068D01*
X180640551Y-103480643D01*
X180874733Y-102916670D01*
X180875265Y-102306009D01*
X180642068Y-101741629D01*
X180410844Y-101510000D01*
X185020000Y-101510000D01*
X185310839Y-101452148D01*
X185450000Y-101359164D01*
X185450000Y-120472533D01*
G36*
X175508356Y-94366842D02*
X175179359Y-94301400D01*
X175120641Y-94301400D01*
X174547152Y-94415474D01*
X174060971Y-94740330D01*
X173880000Y-95011172D01*
X173699029Y-94740330D01*
X173212848Y-94415474D01*
X172639359Y-94301400D01*
X172580641Y-94301400D01*
X172007152Y-94415474D01*
X171520971Y-94740330D01*
X171340008Y-95011161D01*
X170958490Y-94593179D01*
X170429027Y-94345032D01*
X170197000Y-94465531D01*
X170197000Y-95673000D01*
X170217000Y-95673000D01*
X170217000Y-95927000D01*
X170197000Y-95927000D01*
X170197000Y-95947000D01*
X169943000Y-95947000D01*
X169943000Y-95927000D01*
X169923000Y-95927000D01*
X169923000Y-95673000D01*
X169943000Y-95673000D01*
X169943000Y-94465531D01*
X169710973Y-94345032D01*
X169181510Y-94593179D01*
X168799992Y-95011161D01*
X168619029Y-94740330D01*
X168132848Y-94415474D01*
X167559359Y-94301400D01*
X167500641Y-94301400D01*
X166927152Y-94415474D01*
X166440971Y-94740330D01*
X166260008Y-95011161D01*
X165878490Y-94593179D01*
X165349027Y-94345032D01*
X165117000Y-94465531D01*
X165117000Y-95673000D01*
X165137000Y-95673000D01*
X165137000Y-95927000D01*
X165117000Y-95927000D01*
X165117000Y-95947000D01*
X164863000Y-95947000D01*
X164863000Y-95927000D01*
X164843000Y-95927000D01*
X164843000Y-95673000D01*
X164863000Y-95673000D01*
X164863000Y-94465531D01*
X164630973Y-94345032D01*
X164101510Y-94593179D01*
X163719992Y-95011161D01*
X163539029Y-94740330D01*
X163052848Y-94415474D01*
X162479359Y-94301400D01*
X162420641Y-94301400D01*
X161847152Y-94415474D01*
X161360971Y-94740330D01*
X161180000Y-95011172D01*
X160999029Y-94740330D01*
X160512848Y-94415474D01*
X159939359Y-94301400D01*
X159880641Y-94301400D01*
X159307152Y-94415474D01*
X158820971Y-94740330D01*
X158640000Y-95011172D01*
X158459029Y-94740330D01*
X157972848Y-94415474D01*
X157399359Y-94301400D01*
X157340641Y-94301400D01*
X156767152Y-94415474D01*
X156280971Y-94740330D01*
X156100000Y-95011172D01*
X155919029Y-94740330D01*
X155432848Y-94415474D01*
X154859359Y-94301400D01*
X154800641Y-94301400D01*
X154227152Y-94415474D01*
X153740971Y-94740330D01*
X153560008Y-95011161D01*
X153178490Y-94593179D01*
X152649027Y-94345032D01*
X152417000Y-94465531D01*
X152417000Y-95673000D01*
X152437000Y-95673000D01*
X152437000Y-95927000D01*
X152417000Y-95927000D01*
X152417000Y-95947000D01*
X152163000Y-95947000D01*
X152163000Y-95927000D01*
X152143000Y-95927000D01*
X152143000Y-95673000D01*
X152163000Y-95673000D01*
X152163000Y-94465531D01*
X151930973Y-94345032D01*
X151401510Y-94593179D01*
X151019992Y-95011161D01*
X150839029Y-94740330D01*
X150352848Y-94415474D01*
X149779359Y-94301400D01*
X149720641Y-94301400D01*
X149147152Y-94415474D01*
X148660971Y-94740330D01*
X148480000Y-95011172D01*
X148299029Y-94740330D01*
X147812848Y-94415474D01*
X147239359Y-94301400D01*
X147180641Y-94301400D01*
X146607152Y-94415474D01*
X146120971Y-94740330D01*
X145940008Y-95011161D01*
X145558490Y-94593179D01*
X145029027Y-94345032D01*
X144797000Y-94465531D01*
X144797000Y-95673000D01*
X144817000Y-95673000D01*
X144817000Y-95927000D01*
X144797000Y-95927000D01*
X144797000Y-95947000D01*
X144543000Y-95947000D01*
X144543000Y-95927000D01*
X144523000Y-95927000D01*
X144523000Y-95673000D01*
X144543000Y-95673000D01*
X144543000Y-94465531D01*
X144310973Y-94345032D01*
X143781510Y-94593179D01*
X143399992Y-95011161D01*
X143219029Y-94740330D01*
X142732848Y-94415474D01*
X142159359Y-94301400D01*
X142100641Y-94301400D01*
X141527152Y-94415474D01*
X141040971Y-94740330D01*
X140860000Y-95011172D01*
X140679029Y-94740330D01*
X140192848Y-94415474D01*
X139619359Y-94301400D01*
X139560641Y-94301400D01*
X138987152Y-94415474D01*
X138500971Y-94740330D01*
X138320000Y-95011172D01*
X138139029Y-94740330D01*
X137652848Y-94415474D01*
X137079359Y-94301400D01*
X137020641Y-94301400D01*
X136447152Y-94415474D01*
X135960971Y-94740330D01*
X135780008Y-95011161D01*
X135398490Y-94593179D01*
X134869027Y-94345032D01*
X134637000Y-94465531D01*
X134637000Y-95673000D01*
X134657000Y-95673000D01*
X134657000Y-95927000D01*
X134637000Y-95927000D01*
X134637000Y-95947000D01*
X134383000Y-95947000D01*
X134383000Y-95927000D01*
X134363000Y-95927000D01*
X134363000Y-95673000D01*
X134383000Y-95673000D01*
X134383000Y-94465531D01*
X134150973Y-94345032D01*
X133621510Y-94593179D01*
X133239992Y-95011161D01*
X133059029Y-94740330D01*
X132572848Y-94415474D01*
X131999359Y-94301400D01*
X131940641Y-94301400D01*
X131367152Y-94415474D01*
X130880971Y-94740330D01*
X130700000Y-95011172D01*
X130519029Y-94740330D01*
X130032848Y-94415474D01*
X129459359Y-94301400D01*
X129400641Y-94301400D01*
X128827152Y-94415474D01*
X128453710Y-94665000D01*
X128208686Y-94665000D01*
X127774340Y-94751397D01*
X127668086Y-94822394D01*
X127406120Y-94997434D01*
X126436491Y-95967063D01*
X126144673Y-95530327D01*
X125452029Y-95067517D01*
X124635000Y-94905000D01*
X123817971Y-95067517D01*
X123125327Y-95530327D01*
X122662517Y-96222971D01*
X122500000Y-97040000D01*
X122662517Y-97857029D01*
X123125327Y-98549673D01*
X123817971Y-99012483D01*
X124635000Y-99175000D01*
X125452029Y-99012483D01*
X125815000Y-98769953D01*
X125815000Y-100250000D01*
X125901397Y-100684346D01*
X126134100Y-101032610D01*
X126147434Y-101052566D01*
X128097433Y-103002566D01*
X128465654Y-103248603D01*
X128900000Y-103335000D01*
X132929868Y-103335000D01*
X139147434Y-109552566D01*
X139515654Y-109798603D01*
X139950000Y-109885000D01*
X141500000Y-109885000D01*
X141934346Y-109798603D01*
X142302566Y-109552566D01*
X142548603Y-109184346D01*
X142635000Y-108750000D01*
X142548603Y-108315654D01*
X142302566Y-107947434D01*
X141934346Y-107701397D01*
X141500000Y-107615000D01*
X140420132Y-107615000D01*
X135181123Y-102375991D01*
X141085735Y-102375991D01*
X141318932Y-102940371D01*
X141720182Y-103342323D01*
X141320449Y-103741357D01*
X141086267Y-104305330D01*
X141085735Y-104915991D01*
X141318932Y-105480371D01*
X141750357Y-105912551D01*
X142314330Y-106146733D01*
X142924991Y-106147265D01*
X143489371Y-105914068D01*
X143921551Y-105482643D01*
X144155733Y-104918670D01*
X144156265Y-104308009D01*
X143923068Y-103743629D01*
X143521818Y-103341677D01*
X143921551Y-102942643D01*
X144155733Y-102378670D01*
X144156265Y-101768009D01*
X143923068Y-101203629D01*
X143491643Y-100771449D01*
X142927670Y-100537267D01*
X142317009Y-100536735D01*
X141752629Y-100769932D01*
X141320449Y-101201357D01*
X141086267Y-101765330D01*
X141085735Y-102375991D01*
X135181123Y-102375991D01*
X134202566Y-101397434D01*
X134139041Y-101354988D01*
X133834346Y-101151397D01*
X133400000Y-101065000D01*
X129370133Y-101065000D01*
X128085000Y-99779868D01*
X128085000Y-99628140D01*
X128102310Y-99655041D01*
X128314510Y-99800031D01*
X128566400Y-99851040D01*
X130293600Y-99851040D01*
X130528917Y-99806762D01*
X130745041Y-99667690D01*
X130890031Y-99455490D01*
X130898908Y-99411655D01*
X131367152Y-99724526D01*
X131940641Y-99838600D01*
X131999359Y-99838600D01*
X132572848Y-99724526D01*
X133059029Y-99399670D01*
X133240000Y-99128828D01*
X133420971Y-99399670D01*
X133907152Y-99724526D01*
X134480641Y-99838600D01*
X134539359Y-99838600D01*
X135112848Y-99724526D01*
X135599029Y-99399670D01*
X135780000Y-99128828D01*
X135960971Y-99399670D01*
X136447152Y-99724526D01*
X137020641Y-99838600D01*
X137079359Y-99838600D01*
X137652848Y-99724526D01*
X138139029Y-99399670D01*
X138319992Y-99128839D01*
X138701510Y-99546821D01*
X139230973Y-99794968D01*
X139463000Y-99674469D01*
X139463000Y-98467000D01*
X139443000Y-98467000D01*
X139443000Y-98213000D01*
X139463000Y-98213000D01*
X139463000Y-98193000D01*
X139717000Y-98193000D01*
X139717000Y-98213000D01*
X139737000Y-98213000D01*
X139737000Y-98467000D01*
X139717000Y-98467000D01*
X139717000Y-99674469D01*
X139949027Y-99794968D01*
X140478490Y-99546821D01*
X140860008Y-99128839D01*
X141040971Y-99399670D01*
X141527152Y-99724526D01*
X142100641Y-99838600D01*
X142159359Y-99838600D01*
X142732848Y-99724526D01*
X143219029Y-99399670D01*
X143400000Y-99128828D01*
X143580971Y-99399670D01*
X144067152Y-99724526D01*
X144640641Y-99838600D01*
X144699359Y-99838600D01*
X145272848Y-99724526D01*
X145759029Y-99399670D01*
X145940000Y-99128828D01*
X146120971Y-99399670D01*
X146607152Y-99724526D01*
X147180641Y-99838600D01*
X147239359Y-99838600D01*
X147812848Y-99724526D01*
X148299029Y-99399670D01*
X148480000Y-99128828D01*
X148660971Y-99399670D01*
X149147152Y-99724526D01*
X149720641Y-99838600D01*
X149779359Y-99838600D01*
X150352848Y-99724526D01*
X150839029Y-99399670D01*
X151020000Y-99128828D01*
X151200971Y-99399670D01*
X151687152Y-99724526D01*
X152260641Y-99838600D01*
X152319359Y-99838600D01*
X152892848Y-99724526D01*
X153379029Y-99399670D01*
X153560000Y-99128828D01*
X153740971Y-99399670D01*
X154227152Y-99724526D01*
X154800641Y-99838600D01*
X154859359Y-99838600D01*
X155432848Y-99724526D01*
X155919029Y-99399670D01*
X156100000Y-99128828D01*
X156280971Y-99399670D01*
X156767152Y-99724526D01*
X157340641Y-99838600D01*
X157399359Y-99838600D01*
X157972848Y-99724526D01*
X158459029Y-99399670D01*
X158639992Y-99128839D01*
X159021510Y-99546821D01*
X159550973Y-99794968D01*
X159783000Y-99674469D01*
X159783000Y-98467000D01*
X159763000Y-98467000D01*
X159763000Y-98213000D01*
X159783000Y-98213000D01*
X159783000Y-98193000D01*
X160037000Y-98193000D01*
X160037000Y-98213000D01*
X160057000Y-98213000D01*
X160057000Y-98467000D01*
X160037000Y-98467000D01*
X160037000Y-99674469D01*
X160269027Y-99794968D01*
X160798490Y-99546821D01*
X161180008Y-99128839D01*
X161360971Y-99399670D01*
X161847152Y-99724526D01*
X162420641Y-99838600D01*
X162479359Y-99838600D01*
X163052848Y-99724526D01*
X163539029Y-99399670D01*
X163720000Y-99128828D01*
X163900971Y-99399670D01*
X164387152Y-99724526D01*
X164960641Y-99838600D01*
X165018920Y-99838600D01*
X164797521Y-100060000D01*
X160332479Y-100060000D01*
X160330066Y-100057587D01*
X160083504Y-99892840D01*
X159792665Y-99834988D01*
X157707335Y-99834988D01*
X157416496Y-99892840D01*
X157169934Y-100057587D01*
X154437578Y-102789943D01*
X154272831Y-103036505D01*
X154214979Y-103327344D01*
X154214979Y-110349545D01*
X154158586Y-110405938D01*
X154174838Y-110366799D01*
X154175162Y-109994833D01*
X154033117Y-109651057D01*
X153770327Y-109387808D01*
X153426799Y-109245162D01*
X153379923Y-109245121D01*
X147504557Y-103369755D01*
X147584733Y-103176670D01*
X147585265Y-102566009D01*
X147352068Y-102001629D01*
X146920643Y-101569449D01*
X146356670Y-101335267D01*
X145746009Y-101334735D01*
X145181629Y-101567932D01*
X144749449Y-101999357D01*
X144515267Y-102563330D01*
X144514735Y-103173991D01*
X144747932Y-103738371D01*
X145149182Y-104140323D01*
X144749449Y-104539357D01*
X144515267Y-105103330D01*
X144514735Y-105713991D01*
X144747932Y-106278371D01*
X145149182Y-106680323D01*
X144749449Y-107079357D01*
X144515267Y-107643330D01*
X144514735Y-108253991D01*
X144747932Y-108818371D01*
X145149182Y-109220323D01*
X144749449Y-109619357D01*
X144515267Y-110183330D01*
X144514735Y-110793991D01*
X144747932Y-111358371D01*
X145149182Y-111760323D01*
X144749449Y-112159357D01*
X144515267Y-112723330D01*
X144514735Y-113333991D01*
X144747932Y-113898371D01*
X145149182Y-114300323D01*
X144749449Y-114699357D01*
X144515267Y-115263330D01*
X144514735Y-115873991D01*
X144747932Y-116438371D01*
X145149182Y-116840323D01*
X144749449Y-117239357D01*
X144515267Y-117803330D01*
X144514735Y-118413991D01*
X144747932Y-118978371D01*
X145149182Y-119380323D01*
X144749449Y-119779357D01*
X144515267Y-120343330D01*
X144514735Y-120953991D01*
X144747932Y-121518371D01*
X145179357Y-121950551D01*
X145743330Y-122184733D01*
X146353991Y-122185265D01*
X146918371Y-121952068D01*
X147350551Y-121520643D01*
X147584733Y-120956670D01*
X147585265Y-120346009D01*
X147539515Y-120235287D01*
X156262391Y-111512412D01*
X156427138Y-111265851D01*
X156484990Y-110975011D01*
X156484990Y-108253991D01*
X157214735Y-108253991D01*
X157447932Y-108818371D01*
X157849182Y-109220323D01*
X157449449Y-109619357D01*
X157215267Y-110183330D01*
X157214735Y-110793991D01*
X157447932Y-111358371D01*
X157849182Y-111760323D01*
X157449449Y-112159357D01*
X157215267Y-112723330D01*
X157214735Y-113333991D01*
X157447932Y-113898371D01*
X157849182Y-114300323D01*
X157449449Y-114699357D01*
X157215267Y-115263330D01*
X157214735Y-115873991D01*
X157447932Y-116438371D01*
X157849182Y-116840323D01*
X157449449Y-117239357D01*
X157215267Y-117803330D01*
X157214735Y-118413991D01*
X157447932Y-118978371D01*
X157650061Y-119180854D01*
X157515302Y-119236673D01*
X157336673Y-119415301D01*
X157240000Y-119648690D01*
X157240000Y-120364250D01*
X157398750Y-120523000D01*
X158623000Y-120523000D01*
X158623000Y-120503000D01*
X158877000Y-120503000D01*
X158877000Y-120523000D01*
X160101250Y-120523000D01*
X160260000Y-120364250D01*
X160260000Y-119648690D01*
X160163327Y-119415301D01*
X159984698Y-119236673D01*
X159849975Y-119180869D01*
X160050551Y-118980643D01*
X160284733Y-118416670D01*
X160285265Y-117806009D01*
X160052068Y-117241629D01*
X159650818Y-116839677D01*
X160050551Y-116440643D01*
X160284733Y-115876670D01*
X160285265Y-115266009D01*
X160052068Y-114701629D01*
X159650818Y-114299677D01*
X160050551Y-113900643D01*
X160284733Y-113336670D01*
X160285265Y-112726009D01*
X160052068Y-112161629D01*
X159650818Y-111759677D01*
X160050551Y-111360643D01*
X160284733Y-110796670D01*
X160285061Y-110420000D01*
X161036655Y-110420000D01*
X161150729Y-110993489D01*
X161475585Y-111479670D01*
X161790366Y-111690000D01*
X161475585Y-111900330D01*
X161150729Y-112386511D01*
X161036655Y-112960000D01*
X161150729Y-113533489D01*
X161475585Y-114019670D01*
X161790366Y-114230000D01*
X161475585Y-114440330D01*
X161150729Y-114926511D01*
X161036655Y-115500000D01*
X161150729Y-116073489D01*
X161475585Y-116559670D01*
X161961766Y-116884526D01*
X162535255Y-116998600D01*
X162904745Y-116998600D01*
X163478234Y-116884526D01*
X163964415Y-116559670D01*
X164289271Y-116073489D01*
X164403345Y-115500000D01*
X164289271Y-114926511D01*
X163964415Y-114440330D01*
X163649634Y-114230000D01*
X163964415Y-114019670D01*
X164289271Y-113533489D01*
X164403345Y-112960000D01*
X164289271Y-112386511D01*
X163964415Y-111900330D01*
X163649634Y-111690000D01*
X163964415Y-111479670D01*
X164289271Y-110993489D01*
X164403345Y-110420000D01*
X164289271Y-109846511D01*
X163964415Y-109360330D01*
X163950087Y-109350757D01*
X163971317Y-109346762D01*
X164187441Y-109207690D01*
X164332431Y-108995490D01*
X164383440Y-108743600D01*
X164383440Y-107016400D01*
X164339162Y-106781083D01*
X164200090Y-106564959D01*
X163987890Y-106419969D01*
X163736000Y-106368960D01*
X161704000Y-106368960D01*
X161468683Y-106413238D01*
X161252559Y-106552310D01*
X161107569Y-106764510D01*
X161056560Y-107016400D01*
X161056560Y-108743600D01*
X161100838Y-108978917D01*
X161239910Y-109195041D01*
X161452110Y-109340031D01*
X161493439Y-109348400D01*
X161475585Y-109360330D01*
X161150729Y-109846511D01*
X161036655Y-110420000D01*
X160285061Y-110420000D01*
X160285265Y-110186009D01*
X160052068Y-109621629D01*
X159650818Y-109219677D01*
X160050551Y-108820643D01*
X160284733Y-108256670D01*
X160285265Y-107646009D01*
X160052068Y-107081629D01*
X159620643Y-106649449D01*
X159599806Y-106640797D01*
X159650554Y-106490159D01*
X158750000Y-105589605D01*
X157849446Y-106490159D01*
X157900035Y-106640327D01*
X157881629Y-106647932D01*
X157449449Y-107079357D01*
X157215267Y-107643330D01*
X157214735Y-108253991D01*
X156484990Y-108253991D01*
X156484990Y-105169336D01*
X157203542Y-105169336D01*
X157229161Y-105779460D01*
X157413357Y-106224148D01*
X157669841Y-106310554D01*
X158570395Y-105410000D01*
X158929605Y-105410000D01*
X159830159Y-106310554D01*
X160086643Y-106224148D01*
X160296458Y-105650664D01*
X160270839Y-105040540D01*
X160086643Y-104595852D01*
X159830159Y-104509446D01*
X158929605Y-105410000D01*
X158570395Y-105410000D01*
X157669841Y-104509446D01*
X157413357Y-104595852D01*
X157203542Y-105169336D01*
X156484990Y-105169336D01*
X156484990Y-103952810D01*
X157229083Y-103208717D01*
X157447932Y-103738371D01*
X157879357Y-104170551D01*
X157900194Y-104179203D01*
X157849446Y-104329841D01*
X158750000Y-105230395D01*
X159650554Y-104329841D01*
X159599965Y-104179673D01*
X159618371Y-104172068D01*
X160050551Y-103740643D01*
X160284733Y-103176670D01*
X160285265Y-102566009D01*
X160187753Y-102330011D01*
X165105244Y-102330011D01*
X165104735Y-102913991D01*
X165337932Y-103478371D01*
X165739182Y-103880323D01*
X165339449Y-104279357D01*
X165105267Y-104843330D01*
X165104735Y-105453991D01*
X165337932Y-106018371D01*
X165739182Y-106420323D01*
X165339449Y-106819357D01*
X165105267Y-107383330D01*
X165104735Y-107993991D01*
X165337932Y-108558371D01*
X165739182Y-108960323D01*
X165339449Y-109359357D01*
X165105267Y-109923330D01*
X165104735Y-110533991D01*
X165337932Y-111098371D01*
X165739182Y-111500323D01*
X165339449Y-111899357D01*
X165105267Y-112463330D01*
X165104735Y-113073991D01*
X165337932Y-113638371D01*
X165739182Y-114040323D01*
X165339449Y-114439357D01*
X165105267Y-115003330D01*
X165104735Y-115613991D01*
X165337932Y-116178371D01*
X165739182Y-116580323D01*
X165339449Y-116979357D01*
X165105267Y-117543330D01*
X165104735Y-118153991D01*
X165337932Y-118718371D01*
X165739182Y-119120323D01*
X165339449Y-119519357D01*
X165105267Y-120083330D01*
X165104735Y-120693991D01*
X165337932Y-121258371D01*
X165469332Y-121390001D01*
X160260000Y-121390001D01*
X160260000Y-120935750D01*
X160101250Y-120777000D01*
X158877000Y-120777000D01*
X158877000Y-120797000D01*
X158623000Y-120797000D01*
X158623000Y-120777000D01*
X157398750Y-120777000D01*
X157240000Y-120935750D01*
X157240000Y-121390001D01*
X154139650Y-121390001D01*
X154333729Y-121309611D01*
X154389410Y-121079016D01*
X153670000Y-120359605D01*
X152950590Y-121079016D01*
X153006271Y-121309611D01*
X153237285Y-121390001D01*
X152335133Y-121390001D01*
X152305000Y-121359868D01*
X152305000Y-121244975D01*
X152416431Y-121081890D01*
X152467440Y-120830000D01*
X152467440Y-120667615D01*
X152540389Y-120843729D01*
X152770984Y-120899410D01*
X153490395Y-120180000D01*
X153849605Y-120180000D01*
X154569016Y-120899410D01*
X154799611Y-120843729D01*
X154967622Y-120360922D01*
X154938083Y-119850572D01*
X154799611Y-119516271D01*
X154569016Y-119460590D01*
X153849605Y-120180000D01*
X153490395Y-120180000D01*
X152770984Y-119460590D01*
X152540389Y-119516271D01*
X152467440Y-119725902D01*
X152467440Y-119530000D01*
X152423162Y-119294683D01*
X152414347Y-119280984D01*
X152950590Y-119280984D01*
X153670000Y-120000395D01*
X154389410Y-119280984D01*
X154333729Y-119050389D01*
X153850922Y-118882378D01*
X153340572Y-118911917D01*
X153006271Y-119050389D01*
X152950590Y-119280984D01*
X152414347Y-119280984D01*
X152284090Y-119078559D01*
X152071890Y-118933569D01*
X151820000Y-118882560D01*
X150520000Y-118882560D01*
X150284683Y-118926838D01*
X150068559Y-119065910D01*
X149923569Y-119278110D01*
X149872560Y-119530000D01*
X149872560Y-120830000D01*
X149916838Y-121065317D01*
X150035000Y-121248946D01*
X150035000Y-121830000D01*
X150121397Y-122264346D01*
X150324695Y-122568603D01*
X150367434Y-122632566D01*
X150589868Y-122855000D01*
X124202467Y-122855000D01*
X123254225Y-122666383D01*
X122507537Y-122167463D01*
X122008617Y-121420777D01*
X121820000Y-120472533D01*
X121820000Y-120040000D01*
X122500000Y-120040000D01*
X122662517Y-120857029D01*
X123125327Y-121549673D01*
X123817971Y-122012483D01*
X124635000Y-122175000D01*
X125452029Y-122012483D01*
X126144673Y-121549673D01*
X126607483Y-120857029D01*
X126667229Y-120556661D01*
X127622758Y-120556661D01*
X127834990Y-121070303D01*
X128227630Y-121463629D01*
X128740900Y-121676757D01*
X129296661Y-121677242D01*
X129810303Y-121465010D01*
X130203629Y-121072370D01*
X130269900Y-120912772D01*
X130334990Y-121070303D01*
X130727630Y-121463629D01*
X131240900Y-121676757D01*
X131796661Y-121677242D01*
X132310303Y-121465010D01*
X132630088Y-121145783D01*
X132654838Y-121277317D01*
X132793910Y-121493441D01*
X133006110Y-121638431D01*
X133258000Y-121689440D01*
X134782000Y-121689440D01*
X135017317Y-121645162D01*
X135233441Y-121506090D01*
X135378431Y-121293890D01*
X135429440Y-121042000D01*
X135429440Y-119518000D01*
X135418422Y-119459443D01*
X135578943Y-119393117D01*
X135842192Y-119130327D01*
X135984838Y-118786799D01*
X135985162Y-118414833D01*
X135843117Y-118071057D01*
X135580327Y-117807808D01*
X135236799Y-117665162D01*
X135189923Y-117665121D01*
X134477401Y-116952599D01*
X134230839Y-116787852D01*
X133940000Y-116730000D01*
X129442463Y-116730000D01*
X129410327Y-116697808D01*
X129066799Y-116555162D01*
X128694833Y-116554838D01*
X128351057Y-116696883D01*
X128087808Y-116959673D01*
X127945162Y-117303201D01*
X127944838Y-117675167D01*
X128086883Y-118018943D01*
X128349673Y-118282192D01*
X128693201Y-118424838D01*
X129065167Y-118425162D01*
X129408943Y-118283117D01*
X129442118Y-118250000D01*
X133625198Y-118250000D01*
X134114878Y-118739680D01*
X134114838Y-118785167D01*
X134150122Y-118870560D01*
X133258000Y-118870560D01*
X133022683Y-118914838D01*
X132806559Y-119053910D01*
X132661569Y-119266110D01*
X132631254Y-119415812D01*
X132312370Y-119096371D01*
X131799100Y-118883243D01*
X131243339Y-118882758D01*
X130729697Y-119094990D01*
X130336371Y-119487630D01*
X130270100Y-119647228D01*
X130205010Y-119489697D01*
X129812370Y-119096371D01*
X129299100Y-118883243D01*
X128743339Y-118882758D01*
X128229697Y-119094990D01*
X127836371Y-119487630D01*
X127623243Y-120000900D01*
X127622758Y-120556661D01*
X126667229Y-120556661D01*
X126770000Y-120040000D01*
X126607483Y-119222971D01*
X126144673Y-118530327D01*
X125452029Y-118067517D01*
X124635000Y-117905000D01*
X123817971Y-118067517D01*
X123125327Y-118530327D01*
X122662517Y-119222971D01*
X122500000Y-120040000D01*
X121820000Y-120040000D01*
X121820000Y-111286072D01*
X121862567Y-111349778D01*
X122398190Y-111707670D01*
X122850326Y-111797606D01*
X122778449Y-111869357D01*
X122544267Y-112433330D01*
X122543735Y-113043991D01*
X122776932Y-113608371D01*
X123178182Y-114010323D01*
X122778449Y-114409357D01*
X122544267Y-114973330D01*
X122543735Y-115583991D01*
X122776932Y-116148371D01*
X123208357Y-116580551D01*
X123772330Y-116814733D01*
X124382991Y-116815265D01*
X124947371Y-116582068D01*
X125169668Y-116360159D01*
X141720446Y-116360159D01*
X141806852Y-116616643D01*
X142380336Y-116826458D01*
X142990460Y-116800839D01*
X143435148Y-116616643D01*
X143521554Y-116360159D01*
X142621000Y-115459605D01*
X141720446Y-116360159D01*
X125169668Y-116360159D01*
X125379551Y-116150643D01*
X125613733Y-115586670D01*
X125614209Y-115039336D01*
X141074542Y-115039336D01*
X141100161Y-115649460D01*
X141284357Y-116094148D01*
X141540841Y-116180554D01*
X142441395Y-115280000D01*
X142800605Y-115280000D01*
X143701159Y-116180554D01*
X143957643Y-116094148D01*
X144167458Y-115520664D01*
X144141839Y-114910540D01*
X143957643Y-114465852D01*
X143701159Y-114379446D01*
X142800605Y-115280000D01*
X142441395Y-115280000D01*
X141540841Y-114379446D01*
X141284357Y-114465852D01*
X141074542Y-115039336D01*
X125614209Y-115039336D01*
X125614265Y-114976009D01*
X125381068Y-114411629D01*
X124979818Y-114009677D01*
X125169667Y-113820159D01*
X141720446Y-113820159D01*
X141784401Y-114010000D01*
X141720446Y-114199841D01*
X142621000Y-115100395D01*
X143521554Y-114199841D01*
X143457599Y-114010000D01*
X143521554Y-113820159D01*
X142621000Y-112919605D01*
X141720446Y-113820159D01*
X125169667Y-113820159D01*
X125379551Y-113610643D01*
X125613733Y-113046670D01*
X125614265Y-112436009D01*
X125381068Y-111871629D01*
X124949643Y-111439449D01*
X124385670Y-111205267D01*
X124294046Y-111205187D01*
X124555325Y-110814155D01*
X124681000Y-110182345D01*
X124681000Y-110117655D01*
X124555325Y-109485845D01*
X124352996Y-109183038D01*
X124497441Y-109090090D01*
X124642431Y-108877890D01*
X124669342Y-108745000D01*
X134839868Y-108745000D01*
X139127434Y-113032566D01*
X139495655Y-113278604D01*
X139930000Y-113365000D01*
X140364346Y-113278604D01*
X140732566Y-113032566D01*
X140978604Y-112664346D01*
X141011426Y-112499336D01*
X141074542Y-112499336D01*
X141100161Y-113109460D01*
X141284357Y-113554148D01*
X141540841Y-113640554D01*
X142441395Y-112740000D01*
X142800605Y-112740000D01*
X143701159Y-113640554D01*
X143957643Y-113554148D01*
X144167458Y-112980664D01*
X144141839Y-112370540D01*
X143957643Y-111925852D01*
X143701159Y-111839446D01*
X142800605Y-112740000D01*
X142441395Y-112740000D01*
X141540841Y-111839446D01*
X141284357Y-111925852D01*
X141074542Y-112499336D01*
X141011426Y-112499336D01*
X141065000Y-112230000D01*
X140978604Y-111795655D01*
X140887856Y-111659841D01*
X141720446Y-111659841D01*
X142621000Y-112560395D01*
X143521554Y-111659841D01*
X143435148Y-111403357D01*
X142861664Y-111193542D01*
X142251540Y-111219161D01*
X141806852Y-111403357D01*
X141720446Y-111659841D01*
X140887856Y-111659841D01*
X140732566Y-111427434D01*
X136112566Y-106807434D01*
X136021586Y-106746643D01*
X135744346Y-106561397D01*
X135310000Y-106475000D01*
X124671049Y-106475000D01*
X124649162Y-106358683D01*
X124510090Y-106142559D01*
X124466486Y-106112766D01*
X124947371Y-105914068D01*
X125379551Y-105482643D01*
X125613733Y-104918670D01*
X125614265Y-104308009D01*
X125381068Y-103743629D01*
X124979818Y-103341677D01*
X125379551Y-102942643D01*
X125613733Y-102378670D01*
X125614265Y-101768009D01*
X125381068Y-101203629D01*
X124949643Y-100771449D01*
X124385670Y-100537267D01*
X123775009Y-100536735D01*
X123210629Y-100769932D01*
X122778449Y-101201357D01*
X122544267Y-101765330D01*
X122543735Y-102375991D01*
X122776932Y-102940371D01*
X123178182Y-103342323D01*
X122778449Y-103741357D01*
X122544267Y-104305330D01*
X122543735Y-104915991D01*
X122776932Y-105480371D01*
X123208357Y-105912551D01*
X123290260Y-105946560D01*
X122014000Y-105946560D01*
X121820000Y-105983064D01*
X121820000Y-96607467D01*
X122008617Y-95659223D01*
X122507537Y-94912537D01*
X123254225Y-94413617D01*
X124202467Y-94225000D01*
X175650198Y-94225000D01*
X175508356Y-94366842D01*
X175508356Y-94366842D01*
G37*
X175508356Y-94366842D02*
X175179359Y-94301400D01*
X175120641Y-94301400D01*
X174547152Y-94415474D01*
X174060971Y-94740330D01*
X173880000Y-95011172D01*
X173699029Y-94740330D01*
X173212848Y-94415474D01*
X172639359Y-94301400D01*
X172580641Y-94301400D01*
X172007152Y-94415474D01*
X171520971Y-94740330D01*
X171340008Y-95011161D01*
X170958490Y-94593179D01*
X170429027Y-94345032D01*
X170197000Y-94465531D01*
X170197000Y-95673000D01*
X170217000Y-95673000D01*
X170217000Y-95927000D01*
X170197000Y-95927000D01*
X170197000Y-95947000D01*
X169943000Y-95947000D01*
X169943000Y-95927000D01*
X169923000Y-95927000D01*
X169923000Y-95673000D01*
X169943000Y-95673000D01*
X169943000Y-94465531D01*
X169710973Y-94345032D01*
X169181510Y-94593179D01*
X168799992Y-95011161D01*
X168619029Y-94740330D01*
X168132848Y-94415474D01*
X167559359Y-94301400D01*
X167500641Y-94301400D01*
X166927152Y-94415474D01*
X166440971Y-94740330D01*
X166260008Y-95011161D01*
X165878490Y-94593179D01*
X165349027Y-94345032D01*
X165117000Y-94465531D01*
X165117000Y-95673000D01*
X165137000Y-95673000D01*
X165137000Y-95927000D01*
X165117000Y-95927000D01*
X165117000Y-95947000D01*
X164863000Y-95947000D01*
X164863000Y-95927000D01*
X164843000Y-95927000D01*
X164843000Y-95673000D01*
X164863000Y-95673000D01*
X164863000Y-94465531D01*
X164630973Y-94345032D01*
X164101510Y-94593179D01*
X163719992Y-95011161D01*
X163539029Y-94740330D01*
X163052848Y-94415474D01*
X162479359Y-94301400D01*
X162420641Y-94301400D01*
X161847152Y-94415474D01*
X161360971Y-94740330D01*
X161180000Y-95011172D01*
X160999029Y-94740330D01*
X160512848Y-94415474D01*
X159939359Y-94301400D01*
X159880641Y-94301400D01*
X159307152Y-94415474D01*
X158820971Y-94740330D01*
X158640000Y-95011172D01*
X158459029Y-94740330D01*
X157972848Y-94415474D01*
X157399359Y-94301400D01*
X157340641Y-94301400D01*
X156767152Y-94415474D01*
X156280971Y-94740330D01*
X156100000Y-95011172D01*
X155919029Y-94740330D01*
X155432848Y-94415474D01*
X154859359Y-94301400D01*
X154800641Y-94301400D01*
X154227152Y-94415474D01*
X153740971Y-94740330D01*
X153560008Y-95011161D01*
X153178490Y-94593179D01*
X152649027Y-94345032D01*
X152417000Y-94465531D01*
X152417000Y-95673000D01*
X152437000Y-95673000D01*
X152437000Y-95927000D01*
X152417000Y-95927000D01*
X152417000Y-95947000D01*
X152163000Y-95947000D01*
X152163000Y-95927000D01*
X152143000Y-95927000D01*
X152143000Y-95673000D01*
X152163000Y-95673000D01*
X152163000Y-94465531D01*
X151930973Y-94345032D01*
X151401510Y-94593179D01*
X151019992Y-95011161D01*
X150839029Y-94740330D01*
X150352848Y-94415474D01*
X149779359Y-94301400D01*
X149720641Y-94301400D01*
X149147152Y-94415474D01*
X148660971Y-94740330D01*
X148480000Y-95011172D01*
X148299029Y-94740330D01*
X147812848Y-94415474D01*
X147239359Y-94301400D01*
X147180641Y-94301400D01*
X146607152Y-94415474D01*
X146120971Y-94740330D01*
X145940008Y-95011161D01*
X145558490Y-94593179D01*
X145029027Y-94345032D01*
X144797000Y-94465531D01*
X144797000Y-95673000D01*
X144817000Y-95673000D01*
X144817000Y-95927000D01*
X144797000Y-95927000D01*
X144797000Y-95947000D01*
X144543000Y-95947000D01*
X144543000Y-95927000D01*
X144523000Y-95927000D01*
X144523000Y-95673000D01*
X144543000Y-95673000D01*
X144543000Y-94465531D01*
X144310973Y-94345032D01*
X143781510Y-94593179D01*
X143399992Y-95011161D01*
X143219029Y-94740330D01*
X142732848Y-94415474D01*
X142159359Y-94301400D01*
X142100641Y-94301400D01*
X141527152Y-94415474D01*
X141040971Y-94740330D01*
X140860000Y-95011172D01*
X140679029Y-94740330D01*
X140192848Y-94415474D01*
X139619359Y-94301400D01*
X139560641Y-94301400D01*
X138987152Y-94415474D01*
X138500971Y-94740330D01*
X138320000Y-95011172D01*
X138139029Y-94740330D01*
X137652848Y-94415474D01*
X137079359Y-94301400D01*
X137020641Y-94301400D01*
X136447152Y-94415474D01*
X135960971Y-94740330D01*
X135780008Y-95011161D01*
X135398490Y-94593179D01*
X134869027Y-94345032D01*
X134637000Y-94465531D01*
X134637000Y-95673000D01*
X134657000Y-95673000D01*
X134657000Y-95927000D01*
X134637000Y-95927000D01*
X134637000Y-95947000D01*
X134383000Y-95947000D01*
X134383000Y-95927000D01*
X134363000Y-95927000D01*
X134363000Y-95673000D01*
X134383000Y-95673000D01*
X134383000Y-94465531D01*
X134150973Y-94345032D01*
X133621510Y-94593179D01*
X133239992Y-95011161D01*
X133059029Y-94740330D01*
X132572848Y-94415474D01*
X131999359Y-94301400D01*
X131940641Y-94301400D01*
X131367152Y-94415474D01*
X130880971Y-94740330D01*
X130700000Y-95011172D01*
X130519029Y-94740330D01*
X130032848Y-94415474D01*
X129459359Y-94301400D01*
X129400641Y-94301400D01*
X128827152Y-94415474D01*
X128453710Y-94665000D01*
X128208686Y-94665000D01*
X127774340Y-94751397D01*
X127668086Y-94822394D01*
X127406120Y-94997434D01*
X126436491Y-95967063D01*
X126144673Y-95530327D01*
X125452029Y-95067517D01*
X124635000Y-94905000D01*
X123817971Y-95067517D01*
X123125327Y-95530327D01*
X122662517Y-96222971D01*
X122500000Y-97040000D01*
X122662517Y-97857029D01*
X123125327Y-98549673D01*
X123817971Y-99012483D01*
X124635000Y-99175000D01*
X125452029Y-99012483D01*
X125815000Y-98769953D01*
X125815000Y-100250000D01*
X125901397Y-100684346D01*
X126134100Y-101032610D01*
X126147434Y-101052566D01*
X128097433Y-103002566D01*
X128465654Y-103248603D01*
X128900000Y-103335000D01*
X132929868Y-103335000D01*
X139147434Y-109552566D01*
X139515654Y-109798603D01*
X139950000Y-109885000D01*
X141500000Y-109885000D01*
X141934346Y-109798603D01*
X142302566Y-109552566D01*
X142548603Y-109184346D01*
X142635000Y-108750000D01*
X142548603Y-108315654D01*
X142302566Y-107947434D01*
X141934346Y-107701397D01*
X141500000Y-107615000D01*
X140420132Y-107615000D01*
X135181123Y-102375991D01*
X141085735Y-102375991D01*
X141318932Y-102940371D01*
X141720182Y-103342323D01*
X141320449Y-103741357D01*
X141086267Y-104305330D01*
X141085735Y-104915991D01*
X141318932Y-105480371D01*
X141750357Y-105912551D01*
X142314330Y-106146733D01*
X142924991Y-106147265D01*
X143489371Y-105914068D01*
X143921551Y-105482643D01*
X144155733Y-104918670D01*
X144156265Y-104308009D01*
X143923068Y-103743629D01*
X143521818Y-103341677D01*
X143921551Y-102942643D01*
X144155733Y-102378670D01*
X144156265Y-101768009D01*
X143923068Y-101203629D01*
X143491643Y-100771449D01*
X142927670Y-100537267D01*
X142317009Y-100536735D01*
X141752629Y-100769932D01*
X141320449Y-101201357D01*
X141086267Y-101765330D01*
X141085735Y-102375991D01*
X135181123Y-102375991D01*
X134202566Y-101397434D01*
X134139041Y-101354988D01*
X133834346Y-101151397D01*
X133400000Y-101065000D01*
X129370133Y-101065000D01*
X128085000Y-99779868D01*
X128085000Y-99628140D01*
X128102310Y-99655041D01*
X128314510Y-99800031D01*
X128566400Y-99851040D01*
X130293600Y-99851040D01*
X130528917Y-99806762D01*
X130745041Y-99667690D01*
X130890031Y-99455490D01*
X130898908Y-99411655D01*
X131367152Y-99724526D01*
X131940641Y-99838600D01*
X131999359Y-99838600D01*
X132572848Y-99724526D01*
X133059029Y-99399670D01*
X133240000Y-99128828D01*
X133420971Y-99399670D01*
X133907152Y-99724526D01*
X134480641Y-99838600D01*
X134539359Y-99838600D01*
X135112848Y-99724526D01*
X135599029Y-99399670D01*
X135780000Y-99128828D01*
X135960971Y-99399670D01*
X136447152Y-99724526D01*
X137020641Y-99838600D01*
X137079359Y-99838600D01*
X137652848Y-99724526D01*
X138139029Y-99399670D01*
X138319992Y-99128839D01*
X138701510Y-99546821D01*
X139230973Y-99794968D01*
X139463000Y-99674469D01*
X139463000Y-98467000D01*
X139443000Y-98467000D01*
X139443000Y-98213000D01*
X139463000Y-98213000D01*
X139463000Y-98193000D01*
X139717000Y-98193000D01*
X139717000Y-98213000D01*
X139737000Y-98213000D01*
X139737000Y-98467000D01*
X139717000Y-98467000D01*
X139717000Y-99674469D01*
X139949027Y-99794968D01*
X140478490Y-99546821D01*
X140860008Y-99128839D01*
X141040971Y-99399670D01*
X141527152Y-99724526D01*
X142100641Y-99838600D01*
X142159359Y-99838600D01*
X142732848Y-99724526D01*
X143219029Y-99399670D01*
X143400000Y-99128828D01*
X143580971Y-99399670D01*
X144067152Y-99724526D01*
X144640641Y-99838600D01*
X144699359Y-99838600D01*
X145272848Y-99724526D01*
X145759029Y-99399670D01*
X145940000Y-99128828D01*
X146120971Y-99399670D01*
X146607152Y-99724526D01*
X147180641Y-99838600D01*
X147239359Y-99838600D01*
X147812848Y-99724526D01*
X148299029Y-99399670D01*
X148480000Y-99128828D01*
X148660971Y-99399670D01*
X149147152Y-99724526D01*
X149720641Y-99838600D01*
X149779359Y-99838600D01*
X150352848Y-99724526D01*
X150839029Y-99399670D01*
X151020000Y-99128828D01*
X151200971Y-99399670D01*
X151687152Y-99724526D01*
X152260641Y-99838600D01*
X152319359Y-99838600D01*
X152892848Y-99724526D01*
X153379029Y-99399670D01*
X153560000Y-99128828D01*
X153740971Y-99399670D01*
X154227152Y-99724526D01*
X154800641Y-99838600D01*
X154859359Y-99838600D01*
X155432848Y-99724526D01*
X155919029Y-99399670D01*
X156100000Y-99128828D01*
X156280971Y-99399670D01*
X156767152Y-99724526D01*
X157340641Y-99838600D01*
X157399359Y-99838600D01*
X157972848Y-99724526D01*
X158459029Y-99399670D01*
X158639992Y-99128839D01*
X159021510Y-99546821D01*
X159550973Y-99794968D01*
X159783000Y-99674469D01*
X159783000Y-98467000D01*
X159763000Y-98467000D01*
X159763000Y-98213000D01*
X159783000Y-98213000D01*
X159783000Y-98193000D01*
X160037000Y-98193000D01*
X160037000Y-98213000D01*
X160057000Y-98213000D01*
X160057000Y-98467000D01*
X160037000Y-98467000D01*
X160037000Y-99674469D01*
X160269027Y-99794968D01*
X160798490Y-99546821D01*
X161180008Y-99128839D01*
X161360971Y-99399670D01*
X161847152Y-99724526D01*
X162420641Y-99838600D01*
X162479359Y-99838600D01*
X163052848Y-99724526D01*
X163539029Y-99399670D01*
X163720000Y-99128828D01*
X163900971Y-99399670D01*
X164387152Y-99724526D01*
X164960641Y-99838600D01*
X165018920Y-99838600D01*
X164797521Y-100060000D01*
X160332479Y-100060000D01*
X160330066Y-100057587D01*
X160083504Y-99892840D01*
X159792665Y-99834988D01*
X157707335Y-99834988D01*
X157416496Y-99892840D01*
X157169934Y-100057587D01*
X154437578Y-102789943D01*
X154272831Y-103036505D01*
X154214979Y-103327344D01*
X154214979Y-110349545D01*
X154158586Y-110405938D01*
X154174838Y-110366799D01*
X154175162Y-109994833D01*
X154033117Y-109651057D01*
X153770327Y-109387808D01*
X153426799Y-109245162D01*
X153379923Y-109245121D01*
X147504557Y-103369755D01*
X147584733Y-103176670D01*
X147585265Y-102566009D01*
X147352068Y-102001629D01*
X146920643Y-101569449D01*
X146356670Y-101335267D01*
X145746009Y-101334735D01*
X145181629Y-101567932D01*
X144749449Y-101999357D01*
X144515267Y-102563330D01*
X144514735Y-103173991D01*
X144747932Y-103738371D01*
X145149182Y-104140323D01*
X144749449Y-104539357D01*
X144515267Y-105103330D01*
X144514735Y-105713991D01*
X144747932Y-106278371D01*
X145149182Y-106680323D01*
X144749449Y-107079357D01*
X144515267Y-107643330D01*
X144514735Y-108253991D01*
X144747932Y-108818371D01*
X145149182Y-109220323D01*
X144749449Y-109619357D01*
X144515267Y-110183330D01*
X144514735Y-110793991D01*
X144747932Y-111358371D01*
X145149182Y-111760323D01*
X144749449Y-112159357D01*
X144515267Y-112723330D01*
X144514735Y-113333991D01*
X144747932Y-113898371D01*
X145149182Y-114300323D01*
X144749449Y-114699357D01*
X144515267Y-115263330D01*
X144514735Y-115873991D01*
X144747932Y-116438371D01*
X145149182Y-116840323D01*
X144749449Y-117239357D01*
X144515267Y-117803330D01*
X144514735Y-118413991D01*
X144747932Y-118978371D01*
X145149182Y-119380323D01*
X144749449Y-119779357D01*
X144515267Y-120343330D01*
X144514735Y-120953991D01*
X144747932Y-121518371D01*
X145179357Y-121950551D01*
X145743330Y-122184733D01*
X146353991Y-122185265D01*
X146918371Y-121952068D01*
X147350551Y-121520643D01*
X147584733Y-120956670D01*
X147585265Y-120346009D01*
X147539515Y-120235287D01*
X156262391Y-111512412D01*
X156427138Y-111265851D01*
X156484990Y-110975011D01*
X156484990Y-108253991D01*
X157214735Y-108253991D01*
X157447932Y-108818371D01*
X157849182Y-109220323D01*
X157449449Y-109619357D01*
X157215267Y-110183330D01*
X157214735Y-110793991D01*
X157447932Y-111358371D01*
X157849182Y-111760323D01*
X157449449Y-112159357D01*
X157215267Y-112723330D01*
X157214735Y-113333991D01*
X157447932Y-113898371D01*
X157849182Y-114300323D01*
X157449449Y-114699357D01*
X157215267Y-115263330D01*
X157214735Y-115873991D01*
X157447932Y-116438371D01*
X157849182Y-116840323D01*
X157449449Y-117239357D01*
X157215267Y-117803330D01*
X157214735Y-118413991D01*
X157447932Y-118978371D01*
X157650061Y-119180854D01*
X157515302Y-119236673D01*
X157336673Y-119415301D01*
X157240000Y-119648690D01*
X157240000Y-120364250D01*
X157398750Y-120523000D01*
X158623000Y-120523000D01*
X158623000Y-120503000D01*
X158877000Y-120503000D01*
X158877000Y-120523000D01*
X160101250Y-120523000D01*
X160260000Y-120364250D01*
X160260000Y-119648690D01*
X160163327Y-119415301D01*
X159984698Y-119236673D01*
X159849975Y-119180869D01*
X160050551Y-118980643D01*
X160284733Y-118416670D01*
X160285265Y-117806009D01*
X160052068Y-117241629D01*
X159650818Y-116839677D01*
X160050551Y-116440643D01*
X160284733Y-115876670D01*
X160285265Y-115266009D01*
X160052068Y-114701629D01*
X159650818Y-114299677D01*
X160050551Y-113900643D01*
X160284733Y-113336670D01*
X160285265Y-112726009D01*
X160052068Y-112161629D01*
X159650818Y-111759677D01*
X160050551Y-111360643D01*
X160284733Y-110796670D01*
X160285061Y-110420000D01*
X161036655Y-110420000D01*
X161150729Y-110993489D01*
X161475585Y-111479670D01*
X161790366Y-111690000D01*
X161475585Y-111900330D01*
X161150729Y-112386511D01*
X161036655Y-112960000D01*
X161150729Y-113533489D01*
X161475585Y-114019670D01*
X161790366Y-114230000D01*
X161475585Y-114440330D01*
X161150729Y-114926511D01*
X161036655Y-115500000D01*
X161150729Y-116073489D01*
X161475585Y-116559670D01*
X161961766Y-116884526D01*
X162535255Y-116998600D01*
X162904745Y-116998600D01*
X163478234Y-116884526D01*
X163964415Y-116559670D01*
X164289271Y-116073489D01*
X164403345Y-115500000D01*
X164289271Y-114926511D01*
X163964415Y-114440330D01*
X163649634Y-114230000D01*
X163964415Y-114019670D01*
X164289271Y-113533489D01*
X164403345Y-112960000D01*
X164289271Y-112386511D01*
X163964415Y-111900330D01*
X163649634Y-111690000D01*
X163964415Y-111479670D01*
X164289271Y-110993489D01*
X164403345Y-110420000D01*
X164289271Y-109846511D01*
X163964415Y-109360330D01*
X163950087Y-109350757D01*
X163971317Y-109346762D01*
X164187441Y-109207690D01*
X164332431Y-108995490D01*
X164383440Y-108743600D01*
X164383440Y-107016400D01*
X164339162Y-106781083D01*
X164200090Y-106564959D01*
X163987890Y-106419969D01*
X163736000Y-106368960D01*
X161704000Y-106368960D01*
X161468683Y-106413238D01*
X161252559Y-106552310D01*
X161107569Y-106764510D01*
X161056560Y-107016400D01*
X161056560Y-108743600D01*
X161100838Y-108978917D01*
X161239910Y-109195041D01*
X161452110Y-109340031D01*
X161493439Y-109348400D01*
X161475585Y-109360330D01*
X161150729Y-109846511D01*
X161036655Y-110420000D01*
X160285061Y-110420000D01*
X160285265Y-110186009D01*
X160052068Y-109621629D01*
X159650818Y-109219677D01*
X160050551Y-108820643D01*
X160284733Y-108256670D01*
X160285265Y-107646009D01*
X160052068Y-107081629D01*
X159620643Y-106649449D01*
X159599806Y-106640797D01*
X159650554Y-106490159D01*
X158750000Y-105589605D01*
X157849446Y-106490159D01*
X157900035Y-106640327D01*
X157881629Y-106647932D01*
X157449449Y-107079357D01*
X157215267Y-107643330D01*
X157214735Y-108253991D01*
X156484990Y-108253991D01*
X156484990Y-105169336D01*
X157203542Y-105169336D01*
X157229161Y-105779460D01*
X157413357Y-106224148D01*
X157669841Y-106310554D01*
X158570395Y-105410000D01*
X158929605Y-105410000D01*
X159830159Y-106310554D01*
X160086643Y-106224148D01*
X160296458Y-105650664D01*
X160270839Y-105040540D01*
X160086643Y-104595852D01*
X159830159Y-104509446D01*
X158929605Y-105410000D01*
X158570395Y-105410000D01*
X157669841Y-104509446D01*
X157413357Y-104595852D01*
X157203542Y-105169336D01*
X156484990Y-105169336D01*
X156484990Y-103952810D01*
X157229083Y-103208717D01*
X157447932Y-103738371D01*
X157879357Y-104170551D01*
X157900194Y-104179203D01*
X157849446Y-104329841D01*
X158750000Y-105230395D01*
X159650554Y-104329841D01*
X159599965Y-104179673D01*
X159618371Y-104172068D01*
X160050551Y-103740643D01*
X160284733Y-103176670D01*
X160285265Y-102566009D01*
X160187753Y-102330011D01*
X165105244Y-102330011D01*
X165104735Y-102913991D01*
X165337932Y-103478371D01*
X165739182Y-103880323D01*
X165339449Y-104279357D01*
X165105267Y-104843330D01*
X165104735Y-105453991D01*
X165337932Y-106018371D01*
X165739182Y-106420323D01*
X165339449Y-106819357D01*
X165105267Y-107383330D01*
X165104735Y-107993991D01*
X165337932Y-108558371D01*
X165739182Y-108960323D01*
X165339449Y-109359357D01*
X165105267Y-109923330D01*
X165104735Y-110533991D01*
X165337932Y-111098371D01*
X165739182Y-111500323D01*
X165339449Y-111899357D01*
X165105267Y-112463330D01*
X165104735Y-113073991D01*
X165337932Y-113638371D01*
X165739182Y-114040323D01*
X165339449Y-114439357D01*
X165105267Y-115003330D01*
X165104735Y-115613991D01*
X165337932Y-116178371D01*
X165739182Y-116580323D01*
X165339449Y-116979357D01*
X165105267Y-117543330D01*
X165104735Y-118153991D01*
X165337932Y-118718371D01*
X165739182Y-119120323D01*
X165339449Y-119519357D01*
X165105267Y-120083330D01*
X165104735Y-120693991D01*
X165337932Y-121258371D01*
X165469332Y-121390001D01*
X160260000Y-121390001D01*
X160260000Y-120935750D01*
X160101250Y-120777000D01*
X158877000Y-120777000D01*
X158877000Y-120797000D01*
X158623000Y-120797000D01*
X158623000Y-120777000D01*
X157398750Y-120777000D01*
X157240000Y-120935750D01*
X157240000Y-121390001D01*
X154139650Y-121390001D01*
X154333729Y-121309611D01*
X154389410Y-121079016D01*
X153670000Y-120359605D01*
X152950590Y-121079016D01*
X153006271Y-121309611D01*
X153237285Y-121390001D01*
X152335133Y-121390001D01*
X152305000Y-121359868D01*
X152305000Y-121244975D01*
X152416431Y-121081890D01*
X152467440Y-120830000D01*
X152467440Y-120667615D01*
X152540389Y-120843729D01*
X152770984Y-120899410D01*
X153490395Y-120180000D01*
X153849605Y-120180000D01*
X154569016Y-120899410D01*
X154799611Y-120843729D01*
X154967622Y-120360922D01*
X154938083Y-119850572D01*
X154799611Y-119516271D01*
X154569016Y-119460590D01*
X153849605Y-120180000D01*
X153490395Y-120180000D01*
X152770984Y-119460590D01*
X152540389Y-119516271D01*
X152467440Y-119725902D01*
X152467440Y-119530000D01*
X152423162Y-119294683D01*
X152414347Y-119280984D01*
X152950590Y-119280984D01*
X153670000Y-120000395D01*
X154389410Y-119280984D01*
X154333729Y-119050389D01*
X153850922Y-118882378D01*
X153340572Y-118911917D01*
X153006271Y-119050389D01*
X152950590Y-119280984D01*
X152414347Y-119280984D01*
X152284090Y-119078559D01*
X152071890Y-118933569D01*
X151820000Y-118882560D01*
X150520000Y-118882560D01*
X150284683Y-118926838D01*
X150068559Y-119065910D01*
X149923569Y-119278110D01*
X149872560Y-119530000D01*
X149872560Y-120830000D01*
X149916838Y-121065317D01*
X150035000Y-121248946D01*
X150035000Y-121830000D01*
X150121397Y-122264346D01*
X150324695Y-122568603D01*
X150367434Y-122632566D01*
X150589868Y-122855000D01*
X124202467Y-122855000D01*
X123254225Y-122666383D01*
X122507537Y-122167463D01*
X122008617Y-121420777D01*
X121820000Y-120472533D01*
X121820000Y-120040000D01*
X122500000Y-120040000D01*
X122662517Y-120857029D01*
X123125327Y-121549673D01*
X123817971Y-122012483D01*
X124635000Y-122175000D01*
X125452029Y-122012483D01*
X126144673Y-121549673D01*
X126607483Y-120857029D01*
X126667229Y-120556661D01*
X127622758Y-120556661D01*
X127834990Y-121070303D01*
X128227630Y-121463629D01*
X128740900Y-121676757D01*
X129296661Y-121677242D01*
X129810303Y-121465010D01*
X130203629Y-121072370D01*
X130269900Y-120912772D01*
X130334990Y-121070303D01*
X130727630Y-121463629D01*
X131240900Y-121676757D01*
X131796661Y-121677242D01*
X132310303Y-121465010D01*
X132630088Y-121145783D01*
X132654838Y-121277317D01*
X132793910Y-121493441D01*
X133006110Y-121638431D01*
X133258000Y-121689440D01*
X134782000Y-121689440D01*
X135017317Y-121645162D01*
X135233441Y-121506090D01*
X135378431Y-121293890D01*
X135429440Y-121042000D01*
X135429440Y-119518000D01*
X135418422Y-119459443D01*
X135578943Y-119393117D01*
X135842192Y-119130327D01*
X135984838Y-118786799D01*
X135985162Y-118414833D01*
X135843117Y-118071057D01*
X135580327Y-117807808D01*
X135236799Y-117665162D01*
X135189923Y-117665121D01*
X134477401Y-116952599D01*
X134230839Y-116787852D01*
X133940000Y-116730000D01*
X129442463Y-116730000D01*
X129410327Y-116697808D01*
X129066799Y-116555162D01*
X128694833Y-116554838D01*
X128351057Y-116696883D01*
X128087808Y-116959673D01*
X127945162Y-117303201D01*
X127944838Y-117675167D01*
X128086883Y-118018943D01*
X128349673Y-118282192D01*
X128693201Y-118424838D01*
X129065167Y-118425162D01*
X129408943Y-118283117D01*
X129442118Y-118250000D01*
X133625198Y-118250000D01*
X134114878Y-118739680D01*
X134114838Y-118785167D01*
X134150122Y-118870560D01*
X133258000Y-118870560D01*
X133022683Y-118914838D01*
X132806559Y-119053910D01*
X132661569Y-119266110D01*
X132631254Y-119415812D01*
X132312370Y-119096371D01*
X131799100Y-118883243D01*
X131243339Y-118882758D01*
X130729697Y-119094990D01*
X130336371Y-119487630D01*
X130270100Y-119647228D01*
X130205010Y-119489697D01*
X129812370Y-119096371D01*
X129299100Y-118883243D01*
X128743339Y-118882758D01*
X128229697Y-119094990D01*
X127836371Y-119487630D01*
X127623243Y-120000900D01*
X127622758Y-120556661D01*
X126667229Y-120556661D01*
X126770000Y-120040000D01*
X126607483Y-119222971D01*
X126144673Y-118530327D01*
X125452029Y-118067517D01*
X124635000Y-117905000D01*
X123817971Y-118067517D01*
X123125327Y-118530327D01*
X122662517Y-119222971D01*
X122500000Y-120040000D01*
X121820000Y-120040000D01*
X121820000Y-111286072D01*
X121862567Y-111349778D01*
X122398190Y-111707670D01*
X122850326Y-111797606D01*
X122778449Y-111869357D01*
X122544267Y-112433330D01*
X122543735Y-113043991D01*
X122776932Y-113608371D01*
X123178182Y-114010323D01*
X122778449Y-114409357D01*
X122544267Y-114973330D01*
X122543735Y-115583991D01*
X122776932Y-116148371D01*
X123208357Y-116580551D01*
X123772330Y-116814733D01*
X124382991Y-116815265D01*
X124947371Y-116582068D01*
X125169668Y-116360159D01*
X141720446Y-116360159D01*
X141806852Y-116616643D01*
X142380336Y-116826458D01*
X142990460Y-116800839D01*
X143435148Y-116616643D01*
X143521554Y-116360159D01*
X142621000Y-115459605D01*
X141720446Y-116360159D01*
X125169668Y-116360159D01*
X125379551Y-116150643D01*
X125613733Y-115586670D01*
X125614209Y-115039336D01*
X141074542Y-115039336D01*
X141100161Y-115649460D01*
X141284357Y-116094148D01*
X141540841Y-116180554D01*
X142441395Y-115280000D01*
X142800605Y-115280000D01*
X143701159Y-116180554D01*
X143957643Y-116094148D01*
X144167458Y-115520664D01*
X144141839Y-114910540D01*
X143957643Y-114465852D01*
X143701159Y-114379446D01*
X142800605Y-115280000D01*
X142441395Y-115280000D01*
X141540841Y-114379446D01*
X141284357Y-114465852D01*
X141074542Y-115039336D01*
X125614209Y-115039336D01*
X125614265Y-114976009D01*
X125381068Y-114411629D01*
X124979818Y-114009677D01*
X125169667Y-113820159D01*
X141720446Y-113820159D01*
X141784401Y-114010000D01*
X141720446Y-114199841D01*
X142621000Y-115100395D01*
X143521554Y-114199841D01*
X143457599Y-114010000D01*
X143521554Y-113820159D01*
X142621000Y-112919605D01*
X141720446Y-113820159D01*
X125169667Y-113820159D01*
X125379551Y-113610643D01*
X125613733Y-113046670D01*
X125614265Y-112436009D01*
X125381068Y-111871629D01*
X124949643Y-111439449D01*
X124385670Y-111205267D01*
X124294046Y-111205187D01*
X124555325Y-110814155D01*
X124681000Y-110182345D01*
X124681000Y-110117655D01*
X124555325Y-109485845D01*
X124352996Y-109183038D01*
X124497441Y-109090090D01*
X124642431Y-108877890D01*
X124669342Y-108745000D01*
X134839868Y-108745000D01*
X139127434Y-113032566D01*
X139495655Y-113278604D01*
X139930000Y-113365000D01*
X140364346Y-113278604D01*
X140732566Y-113032566D01*
X140978604Y-112664346D01*
X141011426Y-112499336D01*
X141074542Y-112499336D01*
X141100161Y-113109460D01*
X141284357Y-113554148D01*
X141540841Y-113640554D01*
X142441395Y-112740000D01*
X142800605Y-112740000D01*
X143701159Y-113640554D01*
X143957643Y-113554148D01*
X144167458Y-112980664D01*
X144141839Y-112370540D01*
X143957643Y-111925852D01*
X143701159Y-111839446D01*
X142800605Y-112740000D01*
X142441395Y-112740000D01*
X141540841Y-111839446D01*
X141284357Y-111925852D01*
X141074542Y-112499336D01*
X141011426Y-112499336D01*
X141065000Y-112230000D01*
X140978604Y-111795655D01*
X140887856Y-111659841D01*
X141720446Y-111659841D01*
X142621000Y-112560395D01*
X143521554Y-111659841D01*
X143435148Y-111403357D01*
X142861664Y-111193542D01*
X142251540Y-111219161D01*
X141806852Y-111403357D01*
X141720446Y-111659841D01*
X140887856Y-111659841D01*
X140732566Y-111427434D01*
X136112566Y-106807434D01*
X136021586Y-106746643D01*
X135744346Y-106561397D01*
X135310000Y-106475000D01*
X124671049Y-106475000D01*
X124649162Y-106358683D01*
X124510090Y-106142559D01*
X124466486Y-106112766D01*
X124947371Y-105914068D01*
X125379551Y-105482643D01*
X125613733Y-104918670D01*
X125614265Y-104308009D01*
X125381068Y-103743629D01*
X124979818Y-103341677D01*
X125379551Y-102942643D01*
X125613733Y-102378670D01*
X125614265Y-101768009D01*
X125381068Y-101203629D01*
X124949643Y-100771449D01*
X124385670Y-100537267D01*
X123775009Y-100536735D01*
X123210629Y-100769932D01*
X122778449Y-101201357D01*
X122544267Y-101765330D01*
X122543735Y-102375991D01*
X122776932Y-102940371D01*
X123178182Y-103342323D01*
X122778449Y-103741357D01*
X122544267Y-104305330D01*
X122543735Y-104915991D01*
X122776932Y-105480371D01*
X123208357Y-105912551D01*
X123290260Y-105946560D01*
X122014000Y-105946560D01*
X121820000Y-105983064D01*
X121820000Y-96607467D01*
X122008617Y-95659223D01*
X122507537Y-94912537D01*
X123254225Y-94413617D01*
X124202467Y-94225000D01*
X175650198Y-94225000D01*
X175508356Y-94366842D01*
G36*
X177817000Y-98213000D02*
X177837000Y-98213000D01*
X177837000Y-98467000D01*
X177817000Y-98467000D01*
X177817000Y-98487000D01*
X177563000Y-98487000D01*
X177563000Y-98467000D01*
X177543000Y-98467000D01*
X177543000Y-98213000D01*
X177563000Y-98213000D01*
X177563000Y-98193000D01*
X177817000Y-98193000D01*
X177817000Y-98213000D01*
X177817000Y-98213000D01*
G37*
X177817000Y-98213000D02*
X177837000Y-98213000D01*
X177837000Y-98467000D01*
X177817000Y-98467000D01*
X177817000Y-98487000D01*
X177563000Y-98487000D01*
X177563000Y-98467000D01*
X177543000Y-98467000D01*
X177543000Y-98213000D01*
X177563000Y-98213000D01*
X177563000Y-98193000D01*
X177817000Y-98193000D01*
X177817000Y-98213000D01*
M02*
