M48
;DRILL file {KiCad 4.0.2+dfsg1-stable} date ថ្ងៃ​ច័ន្ទ ថ្ងៃ 19 ខែ មិនា ឆ្នាំ  2018, 20 ម៉ោង m នាទី 43 វិនាទី​
;FORMAT={-:-/ absolute / inch / decimal}
FMAT,2
INCH,TZ
T1C0.016
T2C0.031
T3C0.040
T4C0.043
T5C0.047
%
G90
G05
M72
T1
X5.074Y-4.6256
X5.3169Y-4.6693
X5.5091Y-4.4185
X5.5709Y-4.2815
X6.0331Y-4.3378
X6.6555Y-4.7587
X6.661Y-4.452
T2
X5.9516Y-4.7315
X6.05Y-4.7315
X6.7579Y-4.7193
X6.8563Y-4.7193
T3
X5.8957Y-3.7717
X5.8957Y-3.8717
X6.2957Y-3.8717
X6.3957Y-3.7717
X6.4063Y-4.2472
X6.4063Y-4.4472
X6.4063Y-4.5472
X7.2307Y-4.2406
X7.2307Y-4.3406
X7.2307Y-4.4406
X7.2307Y-4.5406
T4
X5.0795Y-4.7354
X5.178Y-4.7354
X5.2764Y-4.7354
X6.4063Y-4.3472
T5
X4.8437Y-4.2366
X4.8437Y-4.3366
X4.885Y-4.0186
X4.885Y-4.1186
X4.885Y-4.4386
X4.885Y-4.5386
X5.0957Y-3.7717
X5.0957Y-3.8717
X5.1957Y-3.7717
X5.1957Y-3.8717
X5.2957Y-3.7717
X5.2957Y-3.8717
X5.3957Y-3.7717
X5.3957Y-3.8717
X5.4957Y-3.7717
X5.4957Y-3.8717
X5.5957Y-3.7717
X5.5957Y-3.8717
X5.615Y-4.0186
X5.615Y-4.1186
X5.615Y-4.4386
X5.615Y-4.5386
X5.6957Y-3.7717
X5.6957Y-3.8717
X5.7957Y-3.7717
X5.7957Y-3.8717
X5.9957Y-3.7717
X5.9957Y-3.8717
X6.0957Y-3.7717
X6.0957Y-3.8717
X6.1957Y-3.7717
X6.1957Y-3.8717
X6.2957Y-3.7717
X6.3957Y-3.8717
X6.4957Y-3.7717
X6.4957Y-3.8717
X6.5606Y-4.0398
X6.5606Y-4.1398
X6.5606Y-4.2398
X6.5606Y-4.3398
X6.5606Y-4.4398
X6.5606Y-4.5398
X6.5606Y-4.6398
X6.5606Y-4.7398
X6.5957Y-3.7717
X6.5957Y-3.8717
X6.6957Y-3.7717
X6.6957Y-3.8717
X6.7957Y-3.7717
X6.7957Y-3.8717
X6.8957Y-3.7717
X6.8957Y-3.8717
X6.9957Y-3.7717
X6.9957Y-3.8717
X7.0606Y-4.0398
X7.0606Y-4.1398
X7.0606Y-4.2398
X7.0606Y-4.3398
X7.0606Y-4.4398
X7.0606Y-4.5398
X7.0606Y-4.6398
X7.0606Y-4.7398
T0
M30
