G04 #@! TF.FileFunction,Legend,Top*
%FSLAX46Y46*%
G04 Gerber Fmt 4.6, Leading zero omitted, Abs format (unit mm)*
G04 Created by KiCad (PCBNEW 4.0.2+dfsg1-stable) date ថ្ងៃ​ច័ន្ទ ថ្ងៃ 19 ខែ មិនា ឆ្នាំ  2018, 20 ម៉ោង m នាទី 38 វិនាទី​*
%MOMM*%
G01*
G04 APERTURE LIST*
%ADD10C,0.100000*%
%ADD11C,0.300000*%
%ADD12C,0.200000*%
%ADD13C,0.250000*%
%ADD14C,0.150000*%
G04 APERTURE END LIST*
D10*
D11*
X155604489Y-104560000D02*
G75*
G03X155604489Y-104560000I-2764489J0D01*
G01*
X152469048Y-105334286D02*
X152373810Y-105429524D01*
X152088095Y-105524762D01*
X151897619Y-105524762D01*
X151611905Y-105429524D01*
X151421429Y-105239048D01*
X151326190Y-105048571D01*
X151230952Y-104667619D01*
X151230952Y-104381905D01*
X151326190Y-104000952D01*
X151421429Y-103810476D01*
X151611905Y-103620000D01*
X151897619Y-103524762D01*
X152088095Y-103524762D01*
X152373810Y-103620000D01*
X152469048Y-103715238D01*
X154469048Y-105334286D02*
X154373810Y-105429524D01*
X154088095Y-105524762D01*
X153897619Y-105524762D01*
X153611905Y-105429524D01*
X153421429Y-105239048D01*
X153326190Y-105048571D01*
X153230952Y-104667619D01*
X153230952Y-104381905D01*
X153326190Y-104000952D01*
X153421429Y-103810476D01*
X153611905Y-103620000D01*
X153897619Y-103524762D01*
X154088095Y-103524762D01*
X154373810Y-103620000D01*
X154469048Y-103715238D01*
D12*
X161411905Y-105845238D02*
X160611905Y-105845238D01*
X161183333Y-105578571D01*
X160611905Y-105311904D01*
X161411905Y-105311904D01*
X160611905Y-104778571D02*
X160611905Y-104626190D01*
X160650000Y-104549999D01*
X160726190Y-104473809D01*
X160878571Y-104435714D01*
X161145238Y-104435714D01*
X161297619Y-104473809D01*
X161373810Y-104549999D01*
X161411905Y-104626190D01*
X161411905Y-104778571D01*
X161373810Y-104854761D01*
X161297619Y-104930952D01*
X161145238Y-104969047D01*
X160878571Y-104969047D01*
X160726190Y-104930952D01*
X160650000Y-104854761D01*
X160611905Y-104778571D01*
X160611905Y-104207143D02*
X160611905Y-103750000D01*
X161411905Y-103978571D02*
X160611905Y-103978571D01*
X160611905Y-103330952D02*
X160611905Y-103178571D01*
X160650000Y-103102380D01*
X160726190Y-103026190D01*
X160878571Y-102988095D01*
X161145238Y-102988095D01*
X161297619Y-103026190D01*
X161373810Y-103102380D01*
X161411905Y-103178571D01*
X161411905Y-103330952D01*
X161373810Y-103407142D01*
X161297619Y-103483333D01*
X161145238Y-103521428D01*
X160878571Y-103521428D01*
X160726190Y-103483333D01*
X160650000Y-103407142D01*
X160611905Y-103330952D01*
X161411905Y-102188095D02*
X161030952Y-102454762D01*
X161411905Y-102645238D02*
X160611905Y-102645238D01*
X160611905Y-102340476D01*
X160650000Y-102264285D01*
X160688095Y-102226190D01*
X160764286Y-102188095D01*
X160878571Y-102188095D01*
X160954762Y-102226190D01*
X160992857Y-102264285D01*
X161030952Y-102340476D01*
X161030952Y-102645238D01*
X160688095Y-101273809D02*
X160650000Y-101235714D01*
X160611905Y-101159523D01*
X160611905Y-100969047D01*
X160650000Y-100892857D01*
X160688095Y-100854761D01*
X160764286Y-100816666D01*
X160840476Y-100816666D01*
X160954762Y-100854761D01*
X161411905Y-101311904D01*
X161411905Y-100816666D01*
X182521905Y-105145238D02*
X181721905Y-105145238D01*
X182293333Y-104878571D01*
X181721905Y-104611904D01*
X182521905Y-104611904D01*
X181721905Y-104078571D02*
X181721905Y-103926190D01*
X181760000Y-103849999D01*
X181836190Y-103773809D01*
X181988571Y-103735714D01*
X182255238Y-103735714D01*
X182407619Y-103773809D01*
X182483810Y-103849999D01*
X182521905Y-103926190D01*
X182521905Y-104078571D01*
X182483810Y-104154761D01*
X182407619Y-104230952D01*
X182255238Y-104269047D01*
X181988571Y-104269047D01*
X181836190Y-104230952D01*
X181760000Y-104154761D01*
X181721905Y-104078571D01*
X181721905Y-103507143D02*
X181721905Y-103050000D01*
X182521905Y-103278571D02*
X181721905Y-103278571D01*
X181721905Y-102630952D02*
X181721905Y-102478571D01*
X181760000Y-102402380D01*
X181836190Y-102326190D01*
X181988571Y-102288095D01*
X182255238Y-102288095D01*
X182407619Y-102326190D01*
X182483810Y-102402380D01*
X182521905Y-102478571D01*
X182521905Y-102630952D01*
X182483810Y-102707142D01*
X182407619Y-102783333D01*
X182255238Y-102821428D01*
X181988571Y-102821428D01*
X181836190Y-102783333D01*
X181760000Y-102707142D01*
X181721905Y-102630952D01*
X182521905Y-101488095D02*
X182140952Y-101754762D01*
X182521905Y-101945238D02*
X181721905Y-101945238D01*
X181721905Y-101640476D01*
X181760000Y-101564285D01*
X181798095Y-101526190D01*
X181874286Y-101488095D01*
X181988571Y-101488095D01*
X182064762Y-101526190D01*
X182102857Y-101564285D01*
X182140952Y-101640476D01*
X182140952Y-101945238D01*
X182521905Y-100116666D02*
X182521905Y-100573809D01*
X182521905Y-100345238D02*
X181721905Y-100345238D01*
X181836190Y-100421428D01*
X181912381Y-100497619D01*
X181950476Y-100573809D01*
D13*
X169811905Y-109102381D02*
X169811905Y-108102381D01*
X170050000Y-108102381D01*
X170192858Y-108150000D01*
X170288096Y-108245238D01*
X170335715Y-108340476D01*
X170383334Y-108530952D01*
X170383334Y-108673810D01*
X170335715Y-108864286D01*
X170288096Y-108959524D01*
X170192858Y-109054762D01*
X170050000Y-109102381D01*
X169811905Y-109102381D01*
X171383334Y-109102381D02*
X171050000Y-108626190D01*
X170811905Y-109102381D02*
X170811905Y-108102381D01*
X171192858Y-108102381D01*
X171288096Y-108150000D01*
X171335715Y-108197619D01*
X171383334Y-108292857D01*
X171383334Y-108435714D01*
X171335715Y-108530952D01*
X171288096Y-108578571D01*
X171192858Y-108626190D01*
X170811905Y-108626190D01*
X171811905Y-109102381D02*
X171811905Y-108102381D01*
X172145238Y-108102381D02*
X172478571Y-109102381D01*
X172811905Y-108102381D01*
X173145238Y-108578571D02*
X173478572Y-108578571D01*
X173621429Y-109102381D02*
X173145238Y-109102381D01*
X173145238Y-108102381D01*
X173621429Y-108102381D01*
X174621429Y-109102381D02*
X174288095Y-108626190D01*
X174050000Y-109102381D02*
X174050000Y-108102381D01*
X174430953Y-108102381D01*
X174526191Y-108150000D01*
X174573810Y-108197619D01*
X174621429Y-108292857D01*
X174621429Y-108435714D01*
X174573810Y-108530952D01*
X174526191Y-108578571D01*
X174430953Y-108626190D01*
X174050000Y-108626190D01*
X176335715Y-109102381D02*
X175764286Y-109102381D01*
X176050000Y-109102381D02*
X176050000Y-108102381D01*
X175954762Y-108245238D01*
X175859524Y-108340476D01*
X175764286Y-108388095D01*
X149161905Y-109602381D02*
X149161905Y-108602381D01*
X149400000Y-108602381D01*
X149542858Y-108650000D01*
X149638096Y-108745238D01*
X149685715Y-108840476D01*
X149733334Y-109030952D01*
X149733334Y-109173810D01*
X149685715Y-109364286D01*
X149638096Y-109459524D01*
X149542858Y-109554762D01*
X149400000Y-109602381D01*
X149161905Y-109602381D01*
X150733334Y-109602381D02*
X150400000Y-109126190D01*
X150161905Y-109602381D02*
X150161905Y-108602381D01*
X150542858Y-108602381D01*
X150638096Y-108650000D01*
X150685715Y-108697619D01*
X150733334Y-108792857D01*
X150733334Y-108935714D01*
X150685715Y-109030952D01*
X150638096Y-109078571D01*
X150542858Y-109126190D01*
X150161905Y-109126190D01*
X151161905Y-109602381D02*
X151161905Y-108602381D01*
X151495238Y-108602381D02*
X151828571Y-109602381D01*
X152161905Y-108602381D01*
X152495238Y-109078571D02*
X152828572Y-109078571D01*
X152971429Y-109602381D02*
X152495238Y-109602381D01*
X152495238Y-108602381D01*
X152971429Y-108602381D01*
X153971429Y-109602381D02*
X153638095Y-109126190D01*
X153400000Y-109602381D02*
X153400000Y-108602381D01*
X153780953Y-108602381D01*
X153876191Y-108650000D01*
X153923810Y-108697619D01*
X153971429Y-108792857D01*
X153971429Y-108935714D01*
X153923810Y-109030952D01*
X153876191Y-109078571D01*
X153780953Y-109126190D01*
X153400000Y-109126190D01*
X155114286Y-108697619D02*
X155161905Y-108650000D01*
X155257143Y-108602381D01*
X155495239Y-108602381D01*
X155590477Y-108650000D01*
X155638096Y-108697619D01*
X155685715Y-108792857D01*
X155685715Y-108888095D01*
X155638096Y-109030952D01*
X155066667Y-109602381D01*
X155685715Y-109602381D01*
D11*
X135921428Y-110278571D02*
X136207142Y-110278571D01*
X136350000Y-110350000D01*
X136492857Y-110492857D01*
X136564285Y-110778571D01*
X136564285Y-111278571D01*
X136492857Y-111564286D01*
X136350000Y-111707143D01*
X136207142Y-111778571D01*
X135921428Y-111778571D01*
X135778571Y-111707143D01*
X135635714Y-111564286D01*
X135564285Y-111278571D01*
X135564285Y-110778571D01*
X135635714Y-110492857D01*
X135778571Y-110350000D01*
X135921428Y-110278571D01*
X137207143Y-110278571D02*
X137207143Y-111492857D01*
X137278571Y-111635714D01*
X137350000Y-111707143D01*
X137492857Y-111778571D01*
X137778571Y-111778571D01*
X137921429Y-111707143D01*
X137992857Y-111635714D01*
X138064286Y-111492857D01*
X138064286Y-110278571D01*
X138564286Y-110278571D02*
X139421429Y-110278571D01*
X138992858Y-111778571D02*
X138992858Y-110278571D01*
X139921429Y-111207143D02*
X141064286Y-111207143D01*
X135621428Y-103228571D02*
X135907142Y-103228571D01*
X136050000Y-103300000D01*
X136192857Y-103442857D01*
X136264285Y-103728571D01*
X136264285Y-104228571D01*
X136192857Y-104514286D01*
X136050000Y-104657143D01*
X135907142Y-104728571D01*
X135621428Y-104728571D01*
X135478571Y-104657143D01*
X135335714Y-104514286D01*
X135264285Y-104228571D01*
X135264285Y-103728571D01*
X135335714Y-103442857D01*
X135478571Y-103300000D01*
X135621428Y-103228571D01*
X136907143Y-103228571D02*
X136907143Y-104442857D01*
X136978571Y-104585714D01*
X137050000Y-104657143D01*
X137192857Y-104728571D01*
X137478571Y-104728571D01*
X137621429Y-104657143D01*
X137692857Y-104585714D01*
X137764286Y-104442857D01*
X137764286Y-103228571D01*
X138264286Y-103228571D02*
X139121429Y-103228571D01*
X138692858Y-104728571D02*
X138692858Y-103228571D01*
X139621429Y-104157143D02*
X140764286Y-104157143D01*
X140192857Y-104728571D02*
X140192857Y-103585714D01*
D13*
X136833333Y-120529762D02*
X136976190Y-120577381D01*
X137214286Y-120577381D01*
X137309524Y-120529762D01*
X137357143Y-120482143D01*
X137404762Y-120386905D01*
X137404762Y-120291667D01*
X137357143Y-120196429D01*
X137309524Y-120148810D01*
X137214286Y-120101190D01*
X137023809Y-120053571D01*
X136928571Y-120005952D01*
X136880952Y-119958333D01*
X136833333Y-119863095D01*
X136833333Y-119767857D01*
X136880952Y-119672619D01*
X136928571Y-119625000D01*
X137023809Y-119577381D01*
X137261905Y-119577381D01*
X137404762Y-119625000D01*
X137738095Y-119577381D02*
X137976190Y-120577381D01*
X138166667Y-119863095D01*
X138357143Y-120577381D01*
X138595238Y-119577381D01*
X138976190Y-120577381D02*
X138976190Y-119577381D01*
X139309523Y-119577381D02*
X139880952Y-119577381D01*
X139595237Y-120577381D02*
X139595237Y-119577381D01*
X140785714Y-120482143D02*
X140738095Y-120529762D01*
X140595238Y-120577381D01*
X140500000Y-120577381D01*
X140357142Y-120529762D01*
X140261904Y-120434524D01*
X140214285Y-120339286D01*
X140166666Y-120148810D01*
X140166666Y-120005952D01*
X140214285Y-119815476D01*
X140261904Y-119720238D01*
X140357142Y-119625000D01*
X140500000Y-119577381D01*
X140595238Y-119577381D01*
X140738095Y-119625000D01*
X140785714Y-119672619D01*
X141214285Y-120577381D02*
X141214285Y-119577381D01*
X141214285Y-120053571D02*
X141785714Y-120053571D01*
X141785714Y-120577381D02*
X141785714Y-119577381D01*
X143500000Y-119577381D02*
X143023809Y-119577381D01*
X142976190Y-120053571D01*
X143023809Y-120005952D01*
X143119047Y-119958333D01*
X143357143Y-119958333D01*
X143452381Y-120005952D01*
X143500000Y-120053571D01*
X143547619Y-120148810D01*
X143547619Y-120386905D01*
X143500000Y-120482143D01*
X143452381Y-120529762D01*
X143357143Y-120577381D01*
X143119047Y-120577381D01*
X143023809Y-120529762D01*
X142976190Y-120482143D01*
X143833333Y-119577381D02*
X144166666Y-120577381D01*
X144500000Y-119577381D01*
X137904762Y-121227381D02*
X138476191Y-121227381D01*
X138190476Y-122227381D02*
X138190476Y-121227381D01*
X139000000Y-121227381D02*
X139190477Y-121227381D01*
X139285715Y-121275000D01*
X139380953Y-121370238D01*
X139428572Y-121560714D01*
X139428572Y-121894048D01*
X139380953Y-122084524D01*
X139285715Y-122179762D01*
X139190477Y-122227381D01*
X139000000Y-122227381D01*
X138904762Y-122179762D01*
X138809524Y-122084524D01*
X138761905Y-121894048D01*
X138761905Y-121560714D01*
X138809524Y-121370238D01*
X138904762Y-121275000D01*
X139000000Y-121227381D01*
X141190477Y-122227381D02*
X140857143Y-121751190D01*
X140619048Y-122227381D02*
X140619048Y-121227381D01*
X141000001Y-121227381D01*
X141095239Y-121275000D01*
X141142858Y-121322619D01*
X141190477Y-121417857D01*
X141190477Y-121560714D01*
X141142858Y-121655952D01*
X141095239Y-121703571D01*
X141000001Y-121751190D01*
X140619048Y-121751190D01*
X141571429Y-121941667D02*
X142047620Y-121941667D01*
X141476191Y-122227381D02*
X141809524Y-121227381D01*
X142142858Y-122227381D01*
X142428572Y-122179762D02*
X142571429Y-122227381D01*
X142809525Y-122227381D01*
X142904763Y-122179762D01*
X142952382Y-122132143D01*
X143000001Y-122036905D01*
X143000001Y-121941667D01*
X142952382Y-121846429D01*
X142904763Y-121798810D01*
X142809525Y-121751190D01*
X142619048Y-121703571D01*
X142523810Y-121655952D01*
X142476191Y-121608333D01*
X142428572Y-121513095D01*
X142428572Y-121417857D01*
X142476191Y-121322619D01*
X142523810Y-121275000D01*
X142619048Y-121227381D01*
X142857144Y-121227381D01*
X143000001Y-121275000D01*
X143428572Y-122227381D02*
X143428572Y-121227381D01*
X143809525Y-121227381D01*
X143904763Y-121275000D01*
X143952382Y-121322619D01*
X144000001Y-121417857D01*
X144000001Y-121560714D01*
X143952382Y-121655952D01*
X143904763Y-121703571D01*
X143809525Y-121751190D01*
X143428572Y-121751190D01*
D11*
X125535714Y-113678571D02*
X125535714Y-112178571D01*
X126250000Y-113678571D02*
X126250000Y-112178571D01*
X127107143Y-113678571D01*
X127107143Y-112178571D01*
X127821429Y-113107143D02*
X128964286Y-113107143D01*
X125785714Y-105328571D02*
X125785714Y-103828571D01*
X126500000Y-105328571D02*
X126500000Y-103828571D01*
X127357143Y-105328571D01*
X127357143Y-103828571D01*
X128071429Y-104757143D02*
X129214286Y-104757143D01*
X128642857Y-105328571D02*
X128642857Y-104185714D01*
X126621428Y-110657143D02*
X125478571Y-110657143D01*
X122571428Y-104857143D02*
X121428571Y-104857143D01*
X122000000Y-105428571D02*
X122000000Y-104285714D01*
D10*
X179510000Y-100040000D02*
X127760000Y-100040000D01*
X179510000Y-94040000D02*
X179510000Y-100040000D01*
X127760000Y-94040000D02*
X179510000Y-94040000D01*
X127760000Y-100040000D02*
X127760000Y-94040000D01*
D14*
X182390000Y-108980000D02*
X182390000Y-116600000D01*
X184930000Y-108980000D02*
X184930000Y-116600000D01*
X185210000Y-106160000D02*
X185210000Y-107710000D01*
X182390000Y-116600000D02*
X184930000Y-116600000D01*
X184930000Y-108980000D02*
X182390000Y-108980000D01*
X182110000Y-107710000D02*
X182110000Y-106160000D01*
X182110000Y-106160000D02*
X185210000Y-106160000D01*
X152495000Y-116431000D02*
X152495000Y-123929000D01*
X152635000Y-116436000D02*
X152635000Y-123924000D01*
X152775000Y-116447000D02*
X152775000Y-119734000D01*
X152775000Y-120626000D02*
X152775000Y-123913000D01*
X152915000Y-116463000D02*
X152915000Y-119524000D01*
X152915000Y-120836000D02*
X152915000Y-123897000D01*
X153055000Y-116484000D02*
X153055000Y-119391000D01*
X153055000Y-120969000D02*
X153055000Y-123876000D01*
X153195000Y-116511000D02*
X153195000Y-119300000D01*
X153195000Y-121060000D02*
X153195000Y-123849000D01*
X153335000Y-116543000D02*
X153335000Y-119238000D01*
X153335000Y-121122000D02*
X153335000Y-123817000D01*
X153475000Y-116581000D02*
X153475000Y-119199000D01*
X153475000Y-121161000D02*
X153475000Y-123779000D01*
X153615000Y-116625000D02*
X153615000Y-119182000D01*
X153615000Y-121178000D02*
X153615000Y-123735000D01*
X153755000Y-116676000D02*
X153755000Y-119184000D01*
X153755000Y-121176000D02*
X153755000Y-123684000D01*
X153895000Y-116732000D02*
X153895000Y-119206000D01*
X153895000Y-121154000D02*
X153895000Y-123628000D01*
X154035000Y-116796000D02*
X154035000Y-119249000D01*
X154035000Y-121111000D02*
X154035000Y-123564000D01*
X154175000Y-116866000D02*
X154175000Y-119317000D01*
X154175000Y-121043000D02*
X154175000Y-123494000D01*
X154315000Y-116944000D02*
X154315000Y-119416000D01*
X154315000Y-120944000D02*
X154315000Y-123416000D01*
X154455000Y-117030000D02*
X154455000Y-119561000D01*
X154455000Y-120799000D02*
X154455000Y-123330000D01*
X154595000Y-117125000D02*
X154595000Y-119800000D01*
X154595000Y-120560000D02*
X154595000Y-123235000D01*
X154735000Y-117230000D02*
X154735000Y-123130000D01*
X154875000Y-117345000D02*
X154875000Y-123015000D01*
X155015000Y-117473000D02*
X155015000Y-122887000D01*
X155155000Y-117614000D02*
X155155000Y-122746000D01*
X155295000Y-117772000D02*
X155295000Y-122588000D01*
X155435000Y-117950000D02*
X155435000Y-122410000D01*
X155575000Y-118153000D02*
X155575000Y-122207000D01*
X155715000Y-118390000D02*
X155715000Y-121970000D01*
X155855000Y-118676000D02*
X155855000Y-121684000D01*
X155995000Y-119048000D02*
X155995000Y-121312000D01*
X156135000Y-119669000D02*
X156135000Y-120691000D01*
X154670000Y-120180000D02*
G75*
G03X154670000Y-120180000I-1000000J0D01*
G01*
X156207500Y-120180000D02*
G75*
G03X156207500Y-120180000I-3787500J0D01*
G01*
X172975000Y-116121000D02*
X172975000Y-123619000D01*
X173115000Y-116126000D02*
X173115000Y-123614000D01*
X173255000Y-116137000D02*
X173255000Y-119424000D01*
X173255000Y-120316000D02*
X173255000Y-123603000D01*
X173395000Y-116153000D02*
X173395000Y-119214000D01*
X173395000Y-120526000D02*
X173395000Y-123587000D01*
X173535000Y-116174000D02*
X173535000Y-119081000D01*
X173535000Y-120659000D02*
X173535000Y-123566000D01*
X173675000Y-116201000D02*
X173675000Y-118990000D01*
X173675000Y-120750000D02*
X173675000Y-123539000D01*
X173815000Y-116233000D02*
X173815000Y-118928000D01*
X173815000Y-120812000D02*
X173815000Y-123507000D01*
X173955000Y-116271000D02*
X173955000Y-118889000D01*
X173955000Y-120851000D02*
X173955000Y-123469000D01*
X174095000Y-116315000D02*
X174095000Y-118872000D01*
X174095000Y-120868000D02*
X174095000Y-123425000D01*
X174235000Y-116366000D02*
X174235000Y-118874000D01*
X174235000Y-120866000D02*
X174235000Y-123374000D01*
X174375000Y-116422000D02*
X174375000Y-118896000D01*
X174375000Y-120844000D02*
X174375000Y-123318000D01*
X174515000Y-116486000D02*
X174515000Y-118939000D01*
X174515000Y-120801000D02*
X174515000Y-123254000D01*
X174655000Y-116556000D02*
X174655000Y-119007000D01*
X174655000Y-120733000D02*
X174655000Y-123184000D01*
X174795000Y-116634000D02*
X174795000Y-119106000D01*
X174795000Y-120634000D02*
X174795000Y-123106000D01*
X174935000Y-116720000D02*
X174935000Y-119251000D01*
X174935000Y-120489000D02*
X174935000Y-123020000D01*
X175075000Y-116815000D02*
X175075000Y-119490000D01*
X175075000Y-120250000D02*
X175075000Y-122925000D01*
X175215000Y-116920000D02*
X175215000Y-122820000D01*
X175355000Y-117035000D02*
X175355000Y-122705000D01*
X175495000Y-117163000D02*
X175495000Y-122577000D01*
X175635000Y-117304000D02*
X175635000Y-122436000D01*
X175775000Y-117462000D02*
X175775000Y-122278000D01*
X175915000Y-117640000D02*
X175915000Y-122100000D01*
X176055000Y-117843000D02*
X176055000Y-121897000D01*
X176195000Y-118080000D02*
X176195000Y-121660000D01*
X176335000Y-118366000D02*
X176335000Y-121374000D01*
X176475000Y-118738000D02*
X176475000Y-121002000D01*
X176615000Y-119359000D02*
X176615000Y-120381000D01*
X175150000Y-119870000D02*
G75*
G03X175150000Y-119870000I-1000000J0D01*
G01*
X176687500Y-119870000D02*
G75*
G03X176687500Y-119870000I-3787500J0D01*
G01*
X134829020Y-115940000D02*
X137529020Y-115940000D01*
X134829020Y-114440000D02*
X137529020Y-114440000D01*
X136329020Y-115340000D02*
X136329020Y-115090000D01*
X136329020Y-115090000D02*
X136179020Y-115240000D01*
X136079020Y-114840000D02*
X136079020Y-115540000D01*
X136429020Y-115190000D02*
X136779020Y-115190000D01*
X136079020Y-115190000D02*
X136429020Y-114840000D01*
X136429020Y-114840000D02*
X136429020Y-115540000D01*
X136429020Y-115540000D02*
X136079020Y-115190000D01*
X180490000Y-121500000D02*
X180490000Y-101500000D01*
X180490000Y-101500000D02*
X165490000Y-101500000D01*
X165490000Y-101500000D02*
X165490000Y-121500000D01*
X165490000Y-121500000D02*
X180490000Y-121500000D01*
X121480000Y-106060000D02*
X121480000Y-107610000D01*
X121760000Y-111420000D02*
X121760000Y-108880000D01*
X121760000Y-108880000D02*
X124300000Y-108880000D01*
X124580000Y-107610000D02*
X124580000Y-106060000D01*
X124580000Y-106060000D02*
X121480000Y-106060000D01*
X124300000Y-108880000D02*
X124300000Y-111420000D01*
X124300000Y-111420000D02*
X121760000Y-111420000D01*
X130870000Y-116015000D02*
X129670000Y-116015000D01*
X129670000Y-114265000D02*
X130870000Y-114265000D01*
X161450000Y-109150000D02*
X161450000Y-116770000D01*
X163990000Y-109150000D02*
X163990000Y-116770000D01*
X164270000Y-106330000D02*
X164270000Y-107880000D01*
X161450000Y-116770000D02*
X163990000Y-116770000D01*
X163990000Y-109150000D02*
X161450000Y-109150000D01*
X161170000Y-107880000D02*
X161170000Y-106330000D01*
X161170000Y-106330000D02*
X164270000Y-106330000D01*
X135770000Y-118930000D02*
X127270000Y-118930000D01*
X135770000Y-121630000D02*
X135770000Y-118930000D01*
X127270000Y-121630000D02*
X135770000Y-121630000D01*
X127270000Y-118930000D02*
X127270000Y-121630000D01*
X174518780Y-104939860D02*
X174879460Y-106410520D01*
X174879460Y-106410520D02*
X175158860Y-105348800D01*
X175158860Y-105348800D02*
X175468740Y-106420680D01*
X175468740Y-106420680D02*
X175809100Y-104970340D01*
X173098920Y-105630740D02*
X173888860Y-105620580D01*
X173888860Y-105620580D02*
X173899020Y-105630740D01*
X173899020Y-105630740D02*
X173899020Y-105620580D01*
X173939660Y-104909380D02*
X173939660Y-106451160D01*
X173050660Y-104899220D02*
X173050660Y-106468940D01*
X173050660Y-106468940D02*
X173060820Y-106458780D01*
X172499480Y-105000820D02*
X172148960Y-104919540D01*
X172148960Y-104919540D02*
X171828920Y-104909380D01*
X171828920Y-104909380D02*
X171590160Y-105110040D01*
X171590160Y-105110040D02*
X171559680Y-105379280D01*
X171559680Y-105379280D02*
X171800980Y-105620580D01*
X171800980Y-105620580D02*
X172189600Y-105750120D01*
X172189600Y-105750120D02*
X172369940Y-105910140D01*
X172369940Y-105910140D02*
X172410580Y-106209860D01*
X172410580Y-106209860D02*
X172179440Y-106430840D01*
X172179440Y-106430840D02*
X171859400Y-106458780D01*
X171859400Y-106458780D02*
X171508880Y-106349560D01*
X170470020Y-104899220D02*
X170221100Y-104919540D01*
X170221100Y-104919540D02*
X169979800Y-105160840D01*
X169979800Y-105160840D02*
X169890900Y-105651060D01*
X169890900Y-105651060D02*
X169918840Y-105999040D01*
X169918840Y-105999040D02*
X170119500Y-106319080D01*
X170119500Y-106319080D02*
X170370960Y-106441000D01*
X170370960Y-106441000D02*
X170680840Y-106369880D01*
X170680840Y-106369880D02*
X170899280Y-106189540D01*
X170899280Y-106189540D02*
X170970400Y-105729800D01*
X170970400Y-105729800D02*
X170919600Y-105320860D01*
X170919600Y-105320860D02*
X170810380Y-105038920D01*
X170810380Y-105038920D02*
X170449700Y-104909380D01*
X171069460Y-103179640D02*
X170810380Y-103740980D01*
X170810380Y-103740980D02*
X171348860Y-104259140D01*
X171348860Y-104259140D02*
X171869560Y-103989900D01*
X171869560Y-103989900D02*
X172148960Y-104149920D01*
X173589140Y-104129600D02*
X173919340Y-103939100D01*
X173919340Y-103939100D02*
X174358760Y-104269300D01*
X174358760Y-104269300D02*
X174831200Y-103779080D01*
X174831200Y-103779080D02*
X174549260Y-103299020D01*
X174549260Y-103299020D02*
X174739760Y-102829120D01*
X174739760Y-102829120D02*
X175349360Y-102641160D01*
X175349360Y-102641160D02*
X175349360Y-101960440D01*
X175349360Y-101960440D02*
X174790560Y-101820740D01*
X174790560Y-101820740D02*
X174589900Y-101249240D01*
X174589900Y-101249240D02*
X174859140Y-100779340D01*
X174859140Y-100779340D02*
X174389240Y-100268800D01*
X174389240Y-100268800D02*
X173871080Y-100530420D01*
X173871080Y-100530420D02*
X173401180Y-100329760D01*
X173401180Y-100329760D02*
X173231000Y-99788740D01*
X173231000Y-99788740D02*
X172540120Y-99770960D01*
X172540120Y-99770960D02*
X172329300Y-100319600D01*
X172329300Y-100319600D02*
X171910200Y-100489780D01*
X171910200Y-100489780D02*
X171359020Y-100220540D01*
X171359020Y-100220540D02*
X170840860Y-100748860D01*
X170840860Y-100748860D02*
X171089780Y-101289880D01*
X171089780Y-101289880D02*
X170919600Y-101769940D01*
X170919600Y-101769940D02*
X170370960Y-101869000D01*
X170370960Y-101869000D02*
X170360800Y-102570040D01*
X170360800Y-102570040D02*
X170919600Y-102770700D01*
X170919600Y-102770700D02*
X171059300Y-103169480D01*
X173200520Y-103149160D02*
X173500240Y-102999300D01*
X173500240Y-102999300D02*
X173700900Y-102801180D01*
X173700900Y-102801180D02*
X173850760Y-102399860D01*
X173850760Y-102399860D02*
X173850760Y-102001080D01*
X173850760Y-102001080D02*
X173700900Y-101650560D01*
X173700900Y-101650560D02*
X173248780Y-101300040D01*
X173248780Y-101300040D02*
X172799200Y-101249240D01*
X172799200Y-101249240D02*
X172400420Y-101350840D01*
X172400420Y-101350840D02*
X171999100Y-101698820D01*
X171999100Y-101698820D02*
X171849240Y-102150940D01*
X171849240Y-102150940D02*
X171900040Y-102648780D01*
X171900040Y-102648780D02*
X172148960Y-102951040D01*
X172148960Y-102951040D02*
X172499480Y-103149160D01*
X172499480Y-103149160D02*
X172148960Y-104149920D01*
X173200520Y-103149160D02*
X173599300Y-104149920D01*
X182921905Y-103062381D02*
X182921905Y-102062381D01*
X183302858Y-102062381D01*
X183398096Y-102110000D01*
X183445715Y-102157619D01*
X183493334Y-102252857D01*
X183493334Y-102395714D01*
X183445715Y-102490952D01*
X183398096Y-102538571D01*
X183302858Y-102586190D01*
X182921905Y-102586190D01*
X184350477Y-102395714D02*
X184350477Y-103062381D01*
X184112381Y-102014762D02*
X183874286Y-102729048D01*
X184493334Y-102729048D01*
X152253334Y-115437143D02*
X152205715Y-115484762D01*
X152062858Y-115532381D01*
X151967620Y-115532381D01*
X151824762Y-115484762D01*
X151729524Y-115389524D01*
X151681905Y-115294286D01*
X151634286Y-115103810D01*
X151634286Y-114960952D01*
X151681905Y-114770476D01*
X151729524Y-114675238D01*
X151824762Y-114580000D01*
X151967620Y-114532381D01*
X152062858Y-114532381D01*
X152205715Y-114580000D01*
X152253334Y-114627619D01*
X153205715Y-115532381D02*
X152634286Y-115532381D01*
X152920000Y-115532381D02*
X152920000Y-114532381D01*
X152824762Y-114675238D01*
X152729524Y-114770476D01*
X152634286Y-114818095D01*
X172733334Y-115127143D02*
X172685715Y-115174762D01*
X172542858Y-115222381D01*
X172447620Y-115222381D01*
X172304762Y-115174762D01*
X172209524Y-115079524D01*
X172161905Y-114984286D01*
X172114286Y-114793810D01*
X172114286Y-114650952D01*
X172161905Y-114460476D01*
X172209524Y-114365238D01*
X172304762Y-114270000D01*
X172447620Y-114222381D01*
X172542858Y-114222381D01*
X172685715Y-114270000D01*
X172733334Y-114317619D01*
X173114286Y-114317619D02*
X173161905Y-114270000D01*
X173257143Y-114222381D01*
X173495239Y-114222381D01*
X173590477Y-114270000D01*
X173638096Y-114317619D01*
X173685715Y-114412857D01*
X173685715Y-114508095D01*
X173638096Y-114650952D01*
X173066667Y-115222381D01*
X173685715Y-115222381D01*
X135690925Y-113892381D02*
X135690925Y-112892381D01*
X135929020Y-112892381D01*
X136071878Y-112940000D01*
X136167116Y-113035238D01*
X136214735Y-113130476D01*
X136262354Y-113320952D01*
X136262354Y-113463810D01*
X136214735Y-113654286D01*
X136167116Y-113749524D01*
X136071878Y-113844762D01*
X135929020Y-113892381D01*
X135690925Y-113892381D01*
X137214735Y-113892381D02*
X136643306Y-113892381D01*
X136929020Y-113892381D02*
X136929020Y-112892381D01*
X136833782Y-113035238D01*
X136738544Y-113130476D01*
X136643306Y-113178095D01*
X172251905Y-111452381D02*
X172251905Y-110452381D01*
X172632858Y-110452381D01*
X172728096Y-110500000D01*
X172775715Y-110547619D01*
X172823334Y-110642857D01*
X172823334Y-110785714D01*
X172775715Y-110880952D01*
X172728096Y-110928571D01*
X172632858Y-110976190D01*
X172251905Y-110976190D01*
X173204286Y-110547619D02*
X173251905Y-110500000D01*
X173347143Y-110452381D01*
X173585239Y-110452381D01*
X173680477Y-110500000D01*
X173728096Y-110547619D01*
X173775715Y-110642857D01*
X173775715Y-110738095D01*
X173728096Y-110880952D01*
X173156667Y-111452381D01*
X173775715Y-111452381D01*
X128582381Y-108348095D02*
X127582381Y-108348095D01*
X127582381Y-107967142D01*
X127630000Y-107871904D01*
X127677619Y-107824285D01*
X127772857Y-107776666D01*
X127915714Y-107776666D01*
X128010952Y-107824285D01*
X128058571Y-107871904D01*
X128106190Y-107967142D01*
X128106190Y-108348095D01*
X127582381Y-106919523D02*
X127582381Y-107110000D01*
X127630000Y-107205238D01*
X127677619Y-107252857D01*
X127820476Y-107348095D01*
X128010952Y-107395714D01*
X128391905Y-107395714D01*
X128487143Y-107348095D01*
X128534762Y-107300476D01*
X128582381Y-107205238D01*
X128582381Y-107014761D01*
X128534762Y-106919523D01*
X128487143Y-106871904D01*
X128391905Y-106824285D01*
X128153810Y-106824285D01*
X128058571Y-106871904D01*
X128010952Y-106919523D01*
X127963333Y-107014761D01*
X127963333Y-107205238D01*
X128010952Y-107300476D01*
X128058571Y-107348095D01*
X128153810Y-107395714D01*
X130103334Y-113492381D02*
X129770000Y-113016190D01*
X129531905Y-113492381D02*
X129531905Y-112492381D01*
X129912858Y-112492381D01*
X130008096Y-112540000D01*
X130055715Y-112587619D01*
X130103334Y-112682857D01*
X130103334Y-112825714D01*
X130055715Y-112920952D01*
X130008096Y-112968571D01*
X129912858Y-113016190D01*
X129531905Y-113016190D01*
X131055715Y-113492381D02*
X130484286Y-113492381D01*
X130770000Y-113492381D02*
X130770000Y-112492381D01*
X130674762Y-112635238D01*
X130579524Y-112730476D01*
X130484286Y-112778095D01*
X161981905Y-103232381D02*
X161981905Y-102232381D01*
X162362858Y-102232381D01*
X162458096Y-102280000D01*
X162505715Y-102327619D01*
X162553334Y-102422857D01*
X162553334Y-102565714D01*
X162505715Y-102660952D01*
X162458096Y-102708571D01*
X162362858Y-102756190D01*
X161981905Y-102756190D01*
X163458096Y-102232381D02*
X162981905Y-102232381D01*
X162934286Y-102708571D01*
X162981905Y-102660952D01*
X163077143Y-102613333D01*
X163315239Y-102613333D01*
X163410477Y-102660952D01*
X163458096Y-102708571D01*
X163505715Y-102803810D01*
X163505715Y-103041905D01*
X163458096Y-103137143D01*
X163410477Y-103184762D01*
X163315239Y-103232381D01*
X163077143Y-103232381D01*
X162981905Y-103184762D01*
X162934286Y-103137143D01*
X130216667Y-123004762D02*
X130359524Y-123052381D01*
X130597620Y-123052381D01*
X130692858Y-123004762D01*
X130740477Y-122957143D01*
X130788096Y-122861905D01*
X130788096Y-122766667D01*
X130740477Y-122671429D01*
X130692858Y-122623810D01*
X130597620Y-122576190D01*
X130407143Y-122528571D01*
X130311905Y-122480952D01*
X130264286Y-122433333D01*
X130216667Y-122338095D01*
X130216667Y-122242857D01*
X130264286Y-122147619D01*
X130311905Y-122100000D01*
X130407143Y-122052381D01*
X130645239Y-122052381D01*
X130788096Y-122100000D01*
X131121429Y-122052381D02*
X131359524Y-123052381D01*
X131550001Y-122338095D01*
X131740477Y-123052381D01*
X131978572Y-122052381D01*
X132883334Y-123052381D02*
X132311905Y-123052381D01*
X132597619Y-123052381D02*
X132597619Y-122052381D01*
X132502381Y-122195238D01*
X132407143Y-122290476D01*
X132311905Y-122338095D01*
X171615727Y-98313261D02*
X171282393Y-97837070D01*
X171044298Y-98313261D02*
X171044298Y-97313261D01*
X171425251Y-97313261D01*
X171520489Y-97360880D01*
X171568108Y-97408499D01*
X171615727Y-97503737D01*
X171615727Y-97646594D01*
X171568108Y-97741832D01*
X171520489Y-97789451D01*
X171425251Y-97837070D01*
X171044298Y-97837070D01*
X172044298Y-97789451D02*
X172377632Y-97789451D01*
X172520489Y-98313261D02*
X172044298Y-98313261D01*
X172044298Y-97313261D01*
X172520489Y-97313261D01*
X173282394Y-97789451D02*
X172949060Y-97789451D01*
X172949060Y-98313261D02*
X172949060Y-97313261D01*
X173425251Y-97313261D01*
X173949060Y-97313261D02*
X173949060Y-97551356D01*
X173710965Y-97456118D02*
X173949060Y-97551356D01*
X174187156Y-97456118D01*
X173806203Y-97741832D02*
X173949060Y-97551356D01*
X174091918Y-97741832D01*
X174710965Y-97313261D02*
X174710965Y-97551356D01*
X174472870Y-97456118D02*
X174710965Y-97551356D01*
X174949061Y-97456118D01*
X174568108Y-97741832D02*
X174710965Y-97551356D01*
X174853823Y-97741832D01*
M02*
