G04 #@! TF.FileFunction,Copper,L1,Top,Signal*
%FSLAX46Y46*%
G04 Gerber Fmt 4.6, Leading zero omitted, Abs format (unit mm)*
G04 Created by KiCad (PCBNEW 4.0.2+dfsg1-stable) date ថ្ងៃ​ព្រហស្បតិ៍ ថ្ងៃ 15 ខែ មិនា ឆ្នាំ  2018, 15 ម៉ោង m នាទី 28 វិនាទី​*
%MOMM*%
G01*
G04 APERTURE LIST*
%ADD10C,0.100000*%
%ADD11C,0.300000*%
%ADD12R,1.727200X1.727200*%
%ADD13O,1.727200X1.727200*%
%ADD14R,2.032000X1.727200*%
%ADD15O,2.032000X1.727200*%
%ADD16C,1.300000*%
%ADD17R,1.300000X1.300000*%
%ADD18R,1.198880X1.198880*%
%ADD19R,1.750000X1.750000*%
%ADD20C,1.800000*%
%ADD21R,2.032000X2.032000*%
%ADD22O,2.032000X2.032000*%
%ADD23R,1.500000X1.300000*%
%ADD24C,1.524000*%
%ADD25R,1.524000X1.524000*%
%ADD26C,0.600000*%
%ADD27C,1.000000*%
%ADD28C,0.800000*%
%ADD29C,0.250000*%
%ADD30C,0.254000*%
G04 APERTURE END LIST*
D10*
D11*
X129821429Y-112428571D02*
X129321429Y-113928571D01*
X128821429Y-112428571D01*
X128321429Y-113928571D02*
X128321429Y-112428571D01*
X127607143Y-113928571D02*
X127607143Y-112428571D01*
X126750000Y-113928571D01*
X126750000Y-112428571D01*
X126035714Y-113357143D02*
X124892857Y-113357143D01*
D12*
X129430000Y-98340000D03*
D13*
X129430000Y-95800000D03*
X131970000Y-98340000D03*
X131970000Y-95800000D03*
X134510000Y-98340000D03*
X134510000Y-95800000D03*
X137050000Y-98340000D03*
X137050000Y-95800000D03*
X139590000Y-98340000D03*
X139590000Y-95800000D03*
X142130000Y-98340000D03*
X142130000Y-95800000D03*
X144670000Y-98340000D03*
X144670000Y-95800000D03*
X147210000Y-98340000D03*
X147210000Y-95800000D03*
X149750000Y-98340000D03*
X149750000Y-95800000D03*
X152290000Y-98340000D03*
X152290000Y-95800000D03*
X154830000Y-98340000D03*
X154830000Y-95800000D03*
X157370000Y-98340000D03*
X157370000Y-95800000D03*
X159910000Y-98340000D03*
X159910000Y-95800000D03*
X162450000Y-98340000D03*
X162450000Y-95800000D03*
X164990000Y-98340000D03*
X164990000Y-95800000D03*
X167530000Y-98340000D03*
X167530000Y-95800000D03*
X170070000Y-98340000D03*
X170070000Y-95800000D03*
X172610000Y-98340000D03*
X172610000Y-95800000D03*
X175150000Y-98340000D03*
X175150000Y-95800000D03*
X177690000Y-98340000D03*
X177690000Y-95800000D03*
D14*
X183660000Y-107710000D03*
D15*
X183660000Y-110250000D03*
X183660000Y-112790000D03*
X183660000Y-115330000D03*
D16*
X153670000Y-120180000D03*
D17*
X151170000Y-120180000D03*
D16*
X174150000Y-119870000D03*
D17*
X171650000Y-119870000D03*
D18*
X137478040Y-115190000D03*
X135380000Y-115190000D03*
D19*
X179340000Y-120390000D03*
D20*
X179340000Y-117850000D03*
X179340000Y-115310000D03*
X179340000Y-112770000D03*
X179340000Y-110230000D03*
X179340000Y-107690000D03*
X179340000Y-105150000D03*
X179340000Y-102610000D03*
X166640000Y-120390000D03*
X166640000Y-117850000D03*
X166640000Y-115310000D03*
X166640000Y-112770000D03*
X166640000Y-110230000D03*
X166640000Y-105150000D03*
X166640000Y-107690000D03*
X166640000Y-102610000D03*
D19*
X158750000Y-120650000D03*
D20*
X158750000Y-118110000D03*
X158750000Y-115570000D03*
X158750000Y-113030000D03*
X158750000Y-110490000D03*
X158750000Y-107950000D03*
X158750000Y-105410000D03*
X158750000Y-102870000D03*
X146050000Y-120650000D03*
X146050000Y-118110000D03*
X146050000Y-115570000D03*
X146050000Y-113030000D03*
X146050000Y-110490000D03*
X146050000Y-105410000D03*
X146050000Y-107950000D03*
X146050000Y-102870000D03*
D21*
X123030000Y-107610000D03*
D22*
X123030000Y-110150000D03*
D23*
X128920000Y-115140000D03*
X131620000Y-115140000D03*
D20*
X124079000Y-102072000D03*
X124079000Y-104612000D03*
X124079000Y-115280000D03*
X124079000Y-112740000D03*
X142621000Y-102072000D03*
X142621000Y-104612000D03*
X142621000Y-112740000D03*
X142621000Y-115280000D03*
D14*
X162720000Y-107880000D03*
D15*
X162720000Y-110420000D03*
X162720000Y-112960000D03*
X162720000Y-115500000D03*
D24*
X131520000Y-120280000D03*
D25*
X134020000Y-120280000D03*
D24*
X129020000Y-120280000D03*
D26*
X139930000Y-112230000D03*
X141500000Y-108750000D03*
X135050000Y-118600000D03*
X128880000Y-117490000D03*
X153240000Y-110180000D03*
X169050000Y-120870000D03*
X169190000Y-113080000D03*
D27*
X142621000Y-112740000D02*
X142621000Y-115280000D01*
X131620000Y-115140000D02*
X131620000Y-106310000D01*
X131620000Y-106310000D02*
X139590000Y-98340000D01*
X162060000Y-103372792D02*
X159910000Y-101222792D01*
X159910000Y-101222792D02*
X159910000Y-98340000D01*
X158750000Y-105410000D02*
X160022792Y-105410000D01*
X160022792Y-105410000D02*
X162060000Y-103372792D01*
D28*
X145233999Y-122350001D02*
X146866001Y-122350001D01*
X139930000Y-117046002D02*
X145233999Y-122350001D01*
X146866001Y-122350001D02*
X149036002Y-120180000D01*
X139930000Y-112230000D02*
X139930000Y-117046002D01*
X149720000Y-120180000D02*
X151170000Y-120180000D01*
X149036002Y-120180000D02*
X149720000Y-120180000D01*
D27*
X139930000Y-112654264D02*
X139930000Y-112230000D01*
X124079000Y-104612000D02*
X124079000Y-102072000D01*
X123030000Y-107610000D02*
X123030000Y-105661000D01*
X123030000Y-105661000D02*
X124079000Y-104612000D01*
X158750000Y-102870000D02*
X157477208Y-102870000D01*
X157477208Y-102870000D02*
X151170000Y-109177208D01*
X151170000Y-109177208D02*
X151170000Y-118530000D01*
X151170000Y-118530000D02*
X151170000Y-120180000D01*
D29*
X173990000Y-123200000D02*
X179340000Y-117850000D01*
X138904989Y-111805427D02*
X138904989Y-117618575D01*
X141500000Y-108750000D02*
X138904991Y-111345009D01*
X144675835Y-123100000D02*
X144850847Y-123275012D01*
X152414999Y-109783999D02*
X152414999Y-120664001D01*
X143538415Y-123100000D02*
X144675835Y-123100000D01*
X138904991Y-111345009D02*
X138904991Y-111805425D01*
X138904991Y-111805425D02*
X138904989Y-111805427D01*
X138904991Y-117618577D02*
X138904991Y-117766576D01*
X138904989Y-117618575D02*
X138904991Y-117618577D01*
X152345001Y-122104582D02*
X152345001Y-109853997D01*
X138904991Y-117766576D02*
X143538415Y-122400000D01*
X147249153Y-123275012D02*
X147424165Y-123100000D01*
X152049583Y-122400000D02*
X152345001Y-122104582D01*
X143538415Y-122400000D02*
X143538415Y-123100000D01*
X152414999Y-120664001D02*
X154950998Y-123200000D01*
X154950998Y-123200000D02*
X173990000Y-123200000D01*
X144850847Y-123275012D02*
X147249153Y-123275012D01*
X147424165Y-123100000D02*
X148350000Y-123100000D01*
X148350000Y-123100000D02*
X149050000Y-122400000D01*
X149050000Y-122400000D02*
X152049583Y-122400000D01*
X152345001Y-109853997D02*
X152414999Y-109783999D01*
X152850000Y-109350000D02*
X153631002Y-109350000D01*
X153631002Y-109350000D02*
X155900000Y-111618998D01*
X155900000Y-111618998D02*
X155900000Y-117660758D01*
X155900000Y-117660758D02*
X156349242Y-118110000D01*
X156349242Y-118110000D02*
X158750000Y-118110000D01*
D27*
X137478040Y-115190000D02*
X137478040Y-112702048D01*
X141430088Y-108750000D02*
X141500000Y-108750000D01*
X137478040Y-112702048D02*
X141430088Y-108750000D01*
X133250000Y-122510000D02*
X134934002Y-122510000D01*
X134934002Y-122510000D02*
X137478040Y-119965962D01*
X137478040Y-119965962D02*
X137478040Y-116789440D01*
X137478040Y-116789440D02*
X137478040Y-115190000D01*
D29*
X133709002Y-122700000D02*
X134340000Y-122700000D01*
X137478040Y-116039440D02*
X137478040Y-115190000D01*
X134340000Y-122700000D02*
X137478040Y-119561960D01*
X137478040Y-119561960D02*
X137478040Y-116039440D01*
D27*
X129850000Y-122460000D02*
X133469002Y-122460000D01*
X129020000Y-120280000D02*
X129020000Y-121630000D01*
X129020000Y-121630000D02*
X129850000Y-122460000D01*
X135050000Y-118600000D02*
X135380000Y-118270000D01*
X135380000Y-118270000D02*
X135380000Y-115190000D01*
X128880000Y-117490000D02*
X128880000Y-115180000D01*
X128880000Y-115180000D02*
X128920000Y-115140000D01*
D29*
X166640000Y-102610000D02*
X166640000Y-99990000D01*
X166640000Y-99990000D02*
X164990000Y-98340000D01*
X169050000Y-120870000D02*
X167620000Y-122300000D01*
X167620000Y-122300000D02*
X157610000Y-122300000D01*
X157610000Y-122300000D02*
X153240000Y-117930000D01*
X153240000Y-117930000D02*
X153240000Y-110180000D01*
X167530000Y-98340000D02*
X169510000Y-100320000D01*
X169510000Y-100320000D02*
X169510000Y-112760000D01*
X169510000Y-112760000D02*
X169190000Y-113080000D01*
X176500000Y-93750000D02*
X176363805Y-93750000D01*
X178903805Y-93750000D02*
X176500000Y-93750000D01*
X176500000Y-93750000D02*
X169580000Y-93750000D01*
X169580000Y-93750000D02*
X167530000Y-95800000D01*
X175800009Y-103892989D02*
X179612998Y-100080000D01*
X178983805Y-93830000D02*
X178903805Y-93750000D01*
X183560000Y-100080000D02*
X185070000Y-98570000D01*
X168393599Y-94936401D02*
X167530000Y-95800000D01*
X185070000Y-95500000D02*
X183400000Y-93830000D01*
X166640000Y-120390000D02*
X175800009Y-111229991D01*
X175800009Y-111229991D02*
X175800009Y-103892989D01*
X179612998Y-100080000D02*
X183560000Y-100080000D01*
X185070000Y-98570000D02*
X185070000Y-95500000D01*
X183400000Y-93830000D02*
X178983805Y-93830000D01*
X175050000Y-103183130D02*
X180400000Y-97833130D01*
X175050000Y-109440000D02*
X175050000Y-103183130D01*
X180400000Y-96306870D02*
X178493141Y-94400011D01*
X173473599Y-94936401D02*
X172610000Y-95800000D01*
X180400000Y-97833130D02*
X180400000Y-96306870D01*
X178493141Y-94400011D02*
X174346859Y-94400011D01*
X166640000Y-117850000D02*
X175050000Y-109440000D01*
X173810469Y-94936401D02*
X173473599Y-94936401D01*
X174346859Y-94400011D02*
X173810469Y-94936401D01*
D27*
X179340000Y-115310000D02*
X183640000Y-115310000D01*
X183640000Y-115310000D02*
X183660000Y-115330000D01*
X179340000Y-112770000D02*
X183640000Y-112770000D01*
X183640000Y-112770000D02*
X183660000Y-112790000D01*
X179340000Y-110230000D02*
X183640000Y-110230000D01*
X183640000Y-110230000D02*
X183660000Y-110250000D01*
X179340000Y-107690000D02*
X183640000Y-107690000D01*
X183640000Y-107690000D02*
X183660000Y-107710000D01*
X158750000Y-115570000D02*
X162650000Y-115570000D01*
X162650000Y-115570000D02*
X162720000Y-115500000D01*
X158750000Y-113030000D02*
X162650000Y-113030000D01*
X162650000Y-113030000D02*
X162720000Y-112960000D01*
X158750000Y-110490000D02*
X162650000Y-110490000D01*
X162650000Y-110490000D02*
X162720000Y-110420000D01*
X158750000Y-107950000D02*
X162650000Y-107950000D01*
X162650000Y-107950000D02*
X162720000Y-107880000D01*
D29*
X146050000Y-115570000D02*
X146050000Y-114297208D01*
X146050000Y-114297208D02*
X146050000Y-113030000D01*
D27*
X124079000Y-112740000D02*
X124079000Y-115280000D01*
X123030000Y-110150000D02*
X123030000Y-111691000D01*
X123030000Y-111691000D02*
X124079000Y-112740000D01*
D29*
X132550000Y-118150000D02*
X132550000Y-117200000D01*
X132550000Y-117200000D02*
X132900000Y-116850000D01*
X132900000Y-116850000D02*
X132900000Y-116550000D01*
D27*
X132650000Y-118100000D02*
X132600000Y-118150000D01*
X132600000Y-118150000D02*
X132550000Y-118150000D01*
X132550000Y-118150000D02*
X131520000Y-119180000D01*
X131520000Y-119180000D02*
X131520000Y-120280000D01*
X132950000Y-116486139D02*
X132650000Y-116786139D01*
X132650000Y-116786139D02*
X132650000Y-118050000D01*
D29*
X132950000Y-116486139D02*
X133100000Y-116319999D01*
D27*
X133770000Y-115700000D02*
X133770000Y-116180000D01*
X133770000Y-116180000D02*
X133630001Y-116319999D01*
X133630001Y-116319999D02*
X133100000Y-116319999D01*
X133770000Y-113463000D02*
X133770000Y-114320000D01*
D29*
X133770000Y-115700000D02*
X133770000Y-113650000D01*
D27*
X133770000Y-114320000D02*
X133770000Y-115700000D01*
X142621000Y-104612000D02*
X133770000Y-113463000D01*
X133770000Y-113463000D02*
X133770000Y-113650000D01*
D30*
G36*
X185450000Y-120472533D02*
X185261383Y-121420775D01*
X184762463Y-122167463D01*
X184015777Y-122666383D01*
X183067533Y-122855000D01*
X175409802Y-122855000D01*
X177830000Y-120434802D01*
X177830000Y-120517002D01*
X177988748Y-120517002D01*
X177830000Y-120675750D01*
X177830000Y-121391310D01*
X177926673Y-121624699D01*
X178105302Y-121803327D01*
X178338691Y-121900000D01*
X179054250Y-121900000D01*
X179213000Y-121741250D01*
X179213000Y-120517000D01*
X179193000Y-120517000D01*
X179193000Y-120263000D01*
X179213000Y-120263000D01*
X179213000Y-120243000D01*
X179467000Y-120243000D01*
X179467000Y-120263000D01*
X179487000Y-120263000D01*
X179487000Y-120517000D01*
X179467000Y-120517000D01*
X179467000Y-121741250D01*
X179625750Y-121900000D01*
X180341309Y-121900000D01*
X180574698Y-121803327D01*
X180753327Y-121624699D01*
X180850000Y-121391310D01*
X180850000Y-121137617D01*
X181125327Y-121549673D01*
X181817971Y-122012483D01*
X182635000Y-122175000D01*
X183452029Y-122012483D01*
X184144673Y-121549673D01*
X184607483Y-120857029D01*
X184770000Y-120040000D01*
X184607483Y-119222971D01*
X184144673Y-118530327D01*
X183452029Y-118067517D01*
X182635000Y-117905000D01*
X181817971Y-118067517D01*
X181125327Y-118530327D01*
X180725995Y-119127969D01*
X180574698Y-118976673D01*
X180439975Y-118920869D01*
X180640551Y-118720643D01*
X180874733Y-118156670D01*
X180875265Y-117546009D01*
X180642068Y-116981629D01*
X180240818Y-116579677D01*
X180375731Y-116445000D01*
X182498392Y-116445000D01*
X182901766Y-116714526D01*
X183475255Y-116828600D01*
X183844745Y-116828600D01*
X184418234Y-116714526D01*
X184904415Y-116389670D01*
X185229271Y-115903489D01*
X185343345Y-115330000D01*
X185229271Y-114756511D01*
X184904415Y-114270330D01*
X184589634Y-114060000D01*
X184904415Y-113849670D01*
X185229271Y-113363489D01*
X185343345Y-112790000D01*
X185229271Y-112216511D01*
X184904415Y-111730330D01*
X184589634Y-111520000D01*
X184904415Y-111309670D01*
X185229271Y-110823489D01*
X185343345Y-110250000D01*
X185229271Y-109676511D01*
X184904415Y-109190330D01*
X184890087Y-109180757D01*
X184911317Y-109176762D01*
X185127441Y-109037690D01*
X185272431Y-108825490D01*
X185323440Y-108573600D01*
X185323440Y-106846400D01*
X185279162Y-106611083D01*
X185140090Y-106394959D01*
X184927890Y-106249969D01*
X184676000Y-106198960D01*
X182644000Y-106198960D01*
X182408683Y-106243238D01*
X182192559Y-106382310D01*
X182074565Y-106555000D01*
X180375905Y-106555000D01*
X180210643Y-106389449D01*
X180189806Y-106380797D01*
X180240554Y-106230159D01*
X179340000Y-105329605D01*
X178439446Y-106230159D01*
X178490035Y-106380327D01*
X178471629Y-106387932D01*
X178039449Y-106819357D01*
X177805267Y-107383330D01*
X177804735Y-107993991D01*
X178037932Y-108558371D01*
X178439182Y-108960323D01*
X178039449Y-109359357D01*
X177805267Y-109923330D01*
X177804735Y-110533991D01*
X178037932Y-111098371D01*
X178439182Y-111500323D01*
X178039449Y-111899357D01*
X177805267Y-112463330D01*
X177804735Y-113073991D01*
X178037932Y-113638371D01*
X178439182Y-114040323D01*
X178039449Y-114439357D01*
X177805267Y-115003330D01*
X177804735Y-115613991D01*
X178037932Y-116178371D01*
X178439182Y-116580323D01*
X178039449Y-116979357D01*
X177805267Y-117543330D01*
X177804735Y-118153991D01*
X177850485Y-118264713D01*
X173675198Y-122440000D01*
X168554802Y-122440000D01*
X169189680Y-121805122D01*
X169235167Y-121805162D01*
X169578943Y-121663117D01*
X169842192Y-121400327D01*
X169984838Y-121056799D01*
X169985162Y-120684833D01*
X169843117Y-120341057D01*
X169580327Y-120077808D01*
X169236799Y-119935162D01*
X168864833Y-119934838D01*
X168521057Y-120076883D01*
X168257808Y-120339673D01*
X168174870Y-120539409D01*
X168175265Y-120086009D01*
X168129515Y-119975287D01*
X168884802Y-119220000D01*
X170352560Y-119220000D01*
X170352560Y-120520000D01*
X170396838Y-120755317D01*
X170535910Y-120971441D01*
X170748110Y-121116431D01*
X171000000Y-121167440D01*
X172300000Y-121167440D01*
X172535317Y-121123162D01*
X172751441Y-120984090D01*
X172896431Y-120771890D01*
X172897012Y-120769016D01*
X173430590Y-120769016D01*
X173486271Y-120999611D01*
X173969078Y-121167622D01*
X174479428Y-121138083D01*
X174813729Y-120999611D01*
X174869410Y-120769016D01*
X174150000Y-120049605D01*
X173430590Y-120769016D01*
X172897012Y-120769016D01*
X172947440Y-120520000D01*
X172947440Y-120357615D01*
X173020389Y-120533729D01*
X173250984Y-120589410D01*
X173970395Y-119870000D01*
X174329605Y-119870000D01*
X175049016Y-120589410D01*
X175279611Y-120533729D01*
X175447622Y-120050922D01*
X175418083Y-119540572D01*
X175279611Y-119206271D01*
X175049016Y-119150590D01*
X174329605Y-119870000D01*
X173970395Y-119870000D01*
X173250984Y-119150590D01*
X173020389Y-119206271D01*
X172947440Y-119415902D01*
X172947440Y-119220000D01*
X172903162Y-118984683D01*
X172894347Y-118970984D01*
X173430590Y-118970984D01*
X174150000Y-119690395D01*
X174869410Y-118970984D01*
X174813729Y-118740389D01*
X174330922Y-118572378D01*
X173820572Y-118601917D01*
X173486271Y-118740389D01*
X173430590Y-118970984D01*
X172894347Y-118970984D01*
X172764090Y-118768559D01*
X172551890Y-118623569D01*
X172300000Y-118572560D01*
X171000000Y-118572560D01*
X170764683Y-118616838D01*
X170548559Y-118755910D01*
X170403569Y-118968110D01*
X170352560Y-119220000D01*
X168884802Y-119220000D01*
X176337410Y-111767392D01*
X176502157Y-111520830D01*
X176560009Y-111229991D01*
X176560009Y-104909336D01*
X177793542Y-104909336D01*
X177819161Y-105519460D01*
X178003357Y-105964148D01*
X178259841Y-106050554D01*
X179160395Y-105150000D01*
X179519605Y-105150000D01*
X180420159Y-106050554D01*
X180676643Y-105964148D01*
X180886458Y-105390664D01*
X180860839Y-104780540D01*
X180676643Y-104335852D01*
X180420159Y-104249446D01*
X179519605Y-105150000D01*
X179160395Y-105150000D01*
X178259841Y-104249446D01*
X178003357Y-104335852D01*
X177793542Y-104909336D01*
X176560009Y-104909336D01*
X176560009Y-104207791D01*
X177819083Y-102948717D01*
X178037932Y-103478371D01*
X178469357Y-103910551D01*
X178490194Y-103919203D01*
X178439446Y-104069841D01*
X179340000Y-104970395D01*
X180240554Y-104069841D01*
X180189965Y-103919673D01*
X180208371Y-103912068D01*
X180640551Y-103480643D01*
X180874733Y-102916670D01*
X180875265Y-102306009D01*
X180642068Y-101741629D01*
X180210643Y-101309449D01*
X179679077Y-101088723D01*
X179927800Y-100840000D01*
X183560000Y-100840000D01*
X183850839Y-100782148D01*
X184097401Y-100617401D01*
X185450000Y-99264802D01*
X185450000Y-120472533D01*
X185450000Y-120472533D01*
G37*
X185450000Y-120472533D02*
X185261383Y-121420775D01*
X184762463Y-122167463D01*
X184015777Y-122666383D01*
X183067533Y-122855000D01*
X175409802Y-122855000D01*
X177830000Y-120434802D01*
X177830000Y-120517002D01*
X177988748Y-120517002D01*
X177830000Y-120675750D01*
X177830000Y-121391310D01*
X177926673Y-121624699D01*
X178105302Y-121803327D01*
X178338691Y-121900000D01*
X179054250Y-121900000D01*
X179213000Y-121741250D01*
X179213000Y-120517000D01*
X179193000Y-120517000D01*
X179193000Y-120263000D01*
X179213000Y-120263000D01*
X179213000Y-120243000D01*
X179467000Y-120243000D01*
X179467000Y-120263000D01*
X179487000Y-120263000D01*
X179487000Y-120517000D01*
X179467000Y-120517000D01*
X179467000Y-121741250D01*
X179625750Y-121900000D01*
X180341309Y-121900000D01*
X180574698Y-121803327D01*
X180753327Y-121624699D01*
X180850000Y-121391310D01*
X180850000Y-121137617D01*
X181125327Y-121549673D01*
X181817971Y-122012483D01*
X182635000Y-122175000D01*
X183452029Y-122012483D01*
X184144673Y-121549673D01*
X184607483Y-120857029D01*
X184770000Y-120040000D01*
X184607483Y-119222971D01*
X184144673Y-118530327D01*
X183452029Y-118067517D01*
X182635000Y-117905000D01*
X181817971Y-118067517D01*
X181125327Y-118530327D01*
X180725995Y-119127969D01*
X180574698Y-118976673D01*
X180439975Y-118920869D01*
X180640551Y-118720643D01*
X180874733Y-118156670D01*
X180875265Y-117546009D01*
X180642068Y-116981629D01*
X180240818Y-116579677D01*
X180375731Y-116445000D01*
X182498392Y-116445000D01*
X182901766Y-116714526D01*
X183475255Y-116828600D01*
X183844745Y-116828600D01*
X184418234Y-116714526D01*
X184904415Y-116389670D01*
X185229271Y-115903489D01*
X185343345Y-115330000D01*
X185229271Y-114756511D01*
X184904415Y-114270330D01*
X184589634Y-114060000D01*
X184904415Y-113849670D01*
X185229271Y-113363489D01*
X185343345Y-112790000D01*
X185229271Y-112216511D01*
X184904415Y-111730330D01*
X184589634Y-111520000D01*
X184904415Y-111309670D01*
X185229271Y-110823489D01*
X185343345Y-110250000D01*
X185229271Y-109676511D01*
X184904415Y-109190330D01*
X184890087Y-109180757D01*
X184911317Y-109176762D01*
X185127441Y-109037690D01*
X185272431Y-108825490D01*
X185323440Y-108573600D01*
X185323440Y-106846400D01*
X185279162Y-106611083D01*
X185140090Y-106394959D01*
X184927890Y-106249969D01*
X184676000Y-106198960D01*
X182644000Y-106198960D01*
X182408683Y-106243238D01*
X182192559Y-106382310D01*
X182074565Y-106555000D01*
X180375905Y-106555000D01*
X180210643Y-106389449D01*
X180189806Y-106380797D01*
X180240554Y-106230159D01*
X179340000Y-105329605D01*
X178439446Y-106230159D01*
X178490035Y-106380327D01*
X178471629Y-106387932D01*
X178039449Y-106819357D01*
X177805267Y-107383330D01*
X177804735Y-107993991D01*
X178037932Y-108558371D01*
X178439182Y-108960323D01*
X178039449Y-109359357D01*
X177805267Y-109923330D01*
X177804735Y-110533991D01*
X178037932Y-111098371D01*
X178439182Y-111500323D01*
X178039449Y-111899357D01*
X177805267Y-112463330D01*
X177804735Y-113073991D01*
X178037932Y-113638371D01*
X178439182Y-114040323D01*
X178039449Y-114439357D01*
X177805267Y-115003330D01*
X177804735Y-115613991D01*
X178037932Y-116178371D01*
X178439182Y-116580323D01*
X178039449Y-116979357D01*
X177805267Y-117543330D01*
X177804735Y-118153991D01*
X177850485Y-118264713D01*
X173675198Y-122440000D01*
X168554802Y-122440000D01*
X169189680Y-121805122D01*
X169235167Y-121805162D01*
X169578943Y-121663117D01*
X169842192Y-121400327D01*
X169984838Y-121056799D01*
X169985162Y-120684833D01*
X169843117Y-120341057D01*
X169580327Y-120077808D01*
X169236799Y-119935162D01*
X168864833Y-119934838D01*
X168521057Y-120076883D01*
X168257808Y-120339673D01*
X168174870Y-120539409D01*
X168175265Y-120086009D01*
X168129515Y-119975287D01*
X168884802Y-119220000D01*
X170352560Y-119220000D01*
X170352560Y-120520000D01*
X170396838Y-120755317D01*
X170535910Y-120971441D01*
X170748110Y-121116431D01*
X171000000Y-121167440D01*
X172300000Y-121167440D01*
X172535317Y-121123162D01*
X172751441Y-120984090D01*
X172896431Y-120771890D01*
X172897012Y-120769016D01*
X173430590Y-120769016D01*
X173486271Y-120999611D01*
X173969078Y-121167622D01*
X174479428Y-121138083D01*
X174813729Y-120999611D01*
X174869410Y-120769016D01*
X174150000Y-120049605D01*
X173430590Y-120769016D01*
X172897012Y-120769016D01*
X172947440Y-120520000D01*
X172947440Y-120357615D01*
X173020389Y-120533729D01*
X173250984Y-120589410D01*
X173970395Y-119870000D01*
X174329605Y-119870000D01*
X175049016Y-120589410D01*
X175279611Y-120533729D01*
X175447622Y-120050922D01*
X175418083Y-119540572D01*
X175279611Y-119206271D01*
X175049016Y-119150590D01*
X174329605Y-119870000D01*
X173970395Y-119870000D01*
X173250984Y-119150590D01*
X173020389Y-119206271D01*
X172947440Y-119415902D01*
X172947440Y-119220000D01*
X172903162Y-118984683D01*
X172894347Y-118970984D01*
X173430590Y-118970984D01*
X174150000Y-119690395D01*
X174869410Y-118970984D01*
X174813729Y-118740389D01*
X174330922Y-118572378D01*
X173820572Y-118601917D01*
X173486271Y-118740389D01*
X173430590Y-118970984D01*
X172894347Y-118970984D01*
X172764090Y-118768559D01*
X172551890Y-118623569D01*
X172300000Y-118572560D01*
X171000000Y-118572560D01*
X170764683Y-118616838D01*
X170548559Y-118755910D01*
X170403569Y-118968110D01*
X170352560Y-119220000D01*
X168884802Y-119220000D01*
X176337410Y-111767392D01*
X176502157Y-111520830D01*
X176560009Y-111229991D01*
X176560009Y-104909336D01*
X177793542Y-104909336D01*
X177819161Y-105519460D01*
X178003357Y-105964148D01*
X178259841Y-106050554D01*
X179160395Y-105150000D01*
X179519605Y-105150000D01*
X180420159Y-106050554D01*
X180676643Y-105964148D01*
X180886458Y-105390664D01*
X180860839Y-104780540D01*
X180676643Y-104335852D01*
X180420159Y-104249446D01*
X179519605Y-105150000D01*
X179160395Y-105150000D01*
X178259841Y-104249446D01*
X178003357Y-104335852D01*
X177793542Y-104909336D01*
X176560009Y-104909336D01*
X176560009Y-104207791D01*
X177819083Y-102948717D01*
X178037932Y-103478371D01*
X178469357Y-103910551D01*
X178490194Y-103919203D01*
X178439446Y-104069841D01*
X179340000Y-104970395D01*
X180240554Y-104069841D01*
X180189965Y-103919673D01*
X180208371Y-103912068D01*
X180640551Y-103480643D01*
X180874733Y-102916670D01*
X180875265Y-102306009D01*
X180642068Y-101741629D01*
X180210643Y-101309449D01*
X179679077Y-101088723D01*
X179927800Y-100840000D01*
X183560000Y-100840000D01*
X183850839Y-100782148D01*
X184097401Y-100617401D01*
X185450000Y-99264802D01*
X185450000Y-120472533D01*
G36*
X167888356Y-94366842D02*
X167559359Y-94301400D01*
X167500641Y-94301400D01*
X166927152Y-94415474D01*
X166440971Y-94740330D01*
X166260008Y-95011161D01*
X165878490Y-94593179D01*
X165349027Y-94345032D01*
X165117000Y-94465531D01*
X165117000Y-95673000D01*
X165137000Y-95673000D01*
X165137000Y-95927000D01*
X165117000Y-95927000D01*
X165117000Y-95947000D01*
X164863000Y-95947000D01*
X164863000Y-95927000D01*
X164843000Y-95927000D01*
X164843000Y-95673000D01*
X164863000Y-95673000D01*
X164863000Y-94465531D01*
X164630973Y-94345032D01*
X164101510Y-94593179D01*
X163719992Y-95011161D01*
X163539029Y-94740330D01*
X163052848Y-94415474D01*
X162479359Y-94301400D01*
X162420641Y-94301400D01*
X161847152Y-94415474D01*
X161360971Y-94740330D01*
X161180000Y-95011172D01*
X160999029Y-94740330D01*
X160512848Y-94415474D01*
X159939359Y-94301400D01*
X159880641Y-94301400D01*
X159307152Y-94415474D01*
X158820971Y-94740330D01*
X158640000Y-95011172D01*
X158459029Y-94740330D01*
X157972848Y-94415474D01*
X157399359Y-94301400D01*
X157340641Y-94301400D01*
X156767152Y-94415474D01*
X156280971Y-94740330D01*
X156100000Y-95011172D01*
X155919029Y-94740330D01*
X155432848Y-94415474D01*
X154859359Y-94301400D01*
X154800641Y-94301400D01*
X154227152Y-94415474D01*
X153740971Y-94740330D01*
X153560008Y-95011161D01*
X153178490Y-94593179D01*
X152649027Y-94345032D01*
X152417000Y-94465531D01*
X152417000Y-95673000D01*
X152437000Y-95673000D01*
X152437000Y-95927000D01*
X152417000Y-95927000D01*
X152417000Y-95947000D01*
X152163000Y-95947000D01*
X152163000Y-95927000D01*
X152143000Y-95927000D01*
X152143000Y-95673000D01*
X152163000Y-95673000D01*
X152163000Y-94465531D01*
X151930973Y-94345032D01*
X151401510Y-94593179D01*
X151019992Y-95011161D01*
X150839029Y-94740330D01*
X150352848Y-94415474D01*
X149779359Y-94301400D01*
X149720641Y-94301400D01*
X149147152Y-94415474D01*
X148660971Y-94740330D01*
X148480000Y-95011172D01*
X148299029Y-94740330D01*
X147812848Y-94415474D01*
X147239359Y-94301400D01*
X147180641Y-94301400D01*
X146607152Y-94415474D01*
X146120971Y-94740330D01*
X145940008Y-95011161D01*
X145558490Y-94593179D01*
X145029027Y-94345032D01*
X144797000Y-94465531D01*
X144797000Y-95673000D01*
X144817000Y-95673000D01*
X144817000Y-95927000D01*
X144797000Y-95927000D01*
X144797000Y-95947000D01*
X144543000Y-95947000D01*
X144543000Y-95927000D01*
X144523000Y-95927000D01*
X144523000Y-95673000D01*
X144543000Y-95673000D01*
X144543000Y-94465531D01*
X144310973Y-94345032D01*
X143781510Y-94593179D01*
X143399992Y-95011161D01*
X143219029Y-94740330D01*
X142732848Y-94415474D01*
X142159359Y-94301400D01*
X142100641Y-94301400D01*
X141527152Y-94415474D01*
X141040971Y-94740330D01*
X140860000Y-95011172D01*
X140679029Y-94740330D01*
X140192848Y-94415474D01*
X139619359Y-94301400D01*
X139560641Y-94301400D01*
X138987152Y-94415474D01*
X138500971Y-94740330D01*
X138320000Y-95011172D01*
X138139029Y-94740330D01*
X137652848Y-94415474D01*
X137079359Y-94301400D01*
X137020641Y-94301400D01*
X136447152Y-94415474D01*
X135960971Y-94740330D01*
X135780008Y-95011161D01*
X135398490Y-94593179D01*
X134869027Y-94345032D01*
X134637000Y-94465531D01*
X134637000Y-95673000D01*
X134657000Y-95673000D01*
X134657000Y-95927000D01*
X134637000Y-95927000D01*
X134637000Y-95947000D01*
X134383000Y-95947000D01*
X134383000Y-95927000D01*
X134363000Y-95927000D01*
X134363000Y-95673000D01*
X134383000Y-95673000D01*
X134383000Y-94465531D01*
X134150973Y-94345032D01*
X133621510Y-94593179D01*
X133239992Y-95011161D01*
X133059029Y-94740330D01*
X132572848Y-94415474D01*
X131999359Y-94301400D01*
X131940641Y-94301400D01*
X131367152Y-94415474D01*
X130880971Y-94740330D01*
X130700000Y-95011172D01*
X130519029Y-94740330D01*
X130032848Y-94415474D01*
X129459359Y-94301400D01*
X129400641Y-94301400D01*
X128827152Y-94415474D01*
X128340971Y-94740330D01*
X128016115Y-95226511D01*
X127902041Y-95800000D01*
X128016115Y-96373489D01*
X128340971Y-96859670D01*
X128354642Y-96868805D01*
X128331083Y-96873238D01*
X128114959Y-97012310D01*
X127969969Y-97224510D01*
X127918960Y-97476400D01*
X127918960Y-99203600D01*
X127963238Y-99438917D01*
X128102310Y-99655041D01*
X128314510Y-99800031D01*
X128566400Y-99851040D01*
X130293600Y-99851040D01*
X130528917Y-99806762D01*
X130745041Y-99667690D01*
X130890031Y-99455490D01*
X130898908Y-99411655D01*
X131367152Y-99724526D01*
X131940641Y-99838600D01*
X131999359Y-99838600D01*
X132572848Y-99724526D01*
X133059029Y-99399670D01*
X133240000Y-99128828D01*
X133420971Y-99399670D01*
X133907152Y-99724526D01*
X134480641Y-99838600D01*
X134539359Y-99838600D01*
X135112848Y-99724526D01*
X135599029Y-99399670D01*
X135780000Y-99128828D01*
X135960971Y-99399670D01*
X136447152Y-99724526D01*
X137020641Y-99838600D01*
X137079359Y-99838600D01*
X137652848Y-99724526D01*
X138139029Y-99399670D01*
X138319992Y-99128839D01*
X138701510Y-99546821D01*
X139230973Y-99794968D01*
X139463000Y-99674469D01*
X139463000Y-98467000D01*
X139443000Y-98467000D01*
X139443000Y-98213000D01*
X139463000Y-98213000D01*
X139463000Y-98193000D01*
X139717000Y-98193000D01*
X139717000Y-98213000D01*
X139737000Y-98213000D01*
X139737000Y-98467000D01*
X139717000Y-98467000D01*
X139717000Y-99674469D01*
X139949027Y-99794968D01*
X140478490Y-99546821D01*
X140860008Y-99128839D01*
X141040971Y-99399670D01*
X141527152Y-99724526D01*
X142100641Y-99838600D01*
X142159359Y-99838600D01*
X142732848Y-99724526D01*
X143219029Y-99399670D01*
X143400000Y-99128828D01*
X143580971Y-99399670D01*
X144067152Y-99724526D01*
X144640641Y-99838600D01*
X144699359Y-99838600D01*
X145272848Y-99724526D01*
X145759029Y-99399670D01*
X145940000Y-99128828D01*
X146120971Y-99399670D01*
X146607152Y-99724526D01*
X147180641Y-99838600D01*
X147239359Y-99838600D01*
X147812848Y-99724526D01*
X148299029Y-99399670D01*
X148480000Y-99128828D01*
X148660971Y-99399670D01*
X149147152Y-99724526D01*
X149720641Y-99838600D01*
X149779359Y-99838600D01*
X150352848Y-99724526D01*
X150839029Y-99399670D01*
X151020000Y-99128828D01*
X151200971Y-99399670D01*
X151687152Y-99724526D01*
X152260641Y-99838600D01*
X152319359Y-99838600D01*
X152892848Y-99724526D01*
X153379029Y-99399670D01*
X153560000Y-99128828D01*
X153740971Y-99399670D01*
X154227152Y-99724526D01*
X154800641Y-99838600D01*
X154859359Y-99838600D01*
X155432848Y-99724526D01*
X155919029Y-99399670D01*
X156100000Y-99128828D01*
X156280971Y-99399670D01*
X156767152Y-99724526D01*
X157340641Y-99838600D01*
X157399359Y-99838600D01*
X157972848Y-99724526D01*
X158459029Y-99399670D01*
X158639992Y-99128839D01*
X159021510Y-99546821D01*
X159550973Y-99794968D01*
X159783000Y-99674469D01*
X159783000Y-98467000D01*
X159763000Y-98467000D01*
X159763000Y-98213000D01*
X159783000Y-98213000D01*
X159783000Y-98193000D01*
X160037000Y-98193000D01*
X160037000Y-98213000D01*
X160057000Y-98213000D01*
X160057000Y-98467000D01*
X160037000Y-98467000D01*
X160037000Y-99674469D01*
X160269027Y-99794968D01*
X160798490Y-99546821D01*
X161180008Y-99128839D01*
X161360971Y-99399670D01*
X161847152Y-99724526D01*
X162420641Y-99838600D01*
X162479359Y-99838600D01*
X163052848Y-99724526D01*
X163539029Y-99399670D01*
X163720000Y-99128828D01*
X163900971Y-99399670D01*
X164387152Y-99724526D01*
X164960641Y-99838600D01*
X165019359Y-99838600D01*
X165348356Y-99773158D01*
X165880000Y-100304802D01*
X165880000Y-101263154D01*
X165771629Y-101307932D01*
X165339449Y-101739357D01*
X165105267Y-102303330D01*
X165104735Y-102913991D01*
X165337932Y-103478371D01*
X165739182Y-103880323D01*
X165339449Y-104279357D01*
X165105267Y-104843330D01*
X165104735Y-105453991D01*
X165337932Y-106018371D01*
X165739182Y-106420323D01*
X165339449Y-106819357D01*
X165105267Y-107383330D01*
X165104735Y-107993991D01*
X165337932Y-108558371D01*
X165739182Y-108960323D01*
X165339449Y-109359357D01*
X165105267Y-109923330D01*
X165104735Y-110533991D01*
X165337932Y-111098371D01*
X165739182Y-111500323D01*
X165339449Y-111899357D01*
X165105267Y-112463330D01*
X165104735Y-113073991D01*
X165337932Y-113638371D01*
X165739182Y-114040323D01*
X165339449Y-114439357D01*
X165105267Y-115003330D01*
X165104735Y-115613991D01*
X165337932Y-116178371D01*
X165739182Y-116580323D01*
X165339449Y-116979357D01*
X165105267Y-117543330D01*
X165104735Y-118153991D01*
X165337932Y-118718371D01*
X165739182Y-119120323D01*
X165339449Y-119519357D01*
X165105267Y-120083330D01*
X165104735Y-120693991D01*
X165337932Y-121258371D01*
X165619069Y-121540000D01*
X160260000Y-121540000D01*
X160260000Y-120935750D01*
X160101250Y-120777000D01*
X158877000Y-120777000D01*
X158877000Y-120797000D01*
X158623000Y-120797000D01*
X158623000Y-120777000D01*
X157398750Y-120777000D01*
X157280276Y-120895474D01*
X154000000Y-117615198D01*
X154000000Y-110793800D01*
X155140000Y-111933800D01*
X155140000Y-117660758D01*
X155197852Y-117951597D01*
X155362599Y-118198159D01*
X155811841Y-118647401D01*
X156058403Y-118812148D01*
X156349242Y-118870000D01*
X157403154Y-118870000D01*
X157447932Y-118978371D01*
X157650061Y-119180854D01*
X157515302Y-119236673D01*
X157336673Y-119415301D01*
X157240000Y-119648690D01*
X157240000Y-120364250D01*
X157398750Y-120523000D01*
X158623000Y-120523000D01*
X158623000Y-120503000D01*
X158877000Y-120503000D01*
X158877000Y-120523000D01*
X160101250Y-120523000D01*
X160260000Y-120364250D01*
X160260000Y-119648690D01*
X160163327Y-119415301D01*
X159984698Y-119236673D01*
X159849975Y-119180869D01*
X160050551Y-118980643D01*
X160284733Y-118416670D01*
X160285265Y-117806009D01*
X160052068Y-117241629D01*
X159650818Y-116839677D01*
X159785731Y-116705000D01*
X161693087Y-116705000D01*
X161961766Y-116884526D01*
X162535255Y-116998600D01*
X162904745Y-116998600D01*
X163478234Y-116884526D01*
X163964415Y-116559670D01*
X164289271Y-116073489D01*
X164403345Y-115500000D01*
X164289271Y-114926511D01*
X163964415Y-114440330D01*
X163649634Y-114230000D01*
X163964415Y-114019670D01*
X164289271Y-113533489D01*
X164403345Y-112960000D01*
X164289271Y-112386511D01*
X163964415Y-111900330D01*
X163649634Y-111690000D01*
X163964415Y-111479670D01*
X164289271Y-110993489D01*
X164403345Y-110420000D01*
X164289271Y-109846511D01*
X163964415Y-109360330D01*
X163950087Y-109350757D01*
X163971317Y-109346762D01*
X164187441Y-109207690D01*
X164332431Y-108995490D01*
X164383440Y-108743600D01*
X164383440Y-107016400D01*
X164339162Y-106781083D01*
X164200090Y-106564959D01*
X163987890Y-106419969D01*
X163736000Y-106368960D01*
X161704000Y-106368960D01*
X161468683Y-106413238D01*
X161252559Y-106552310D01*
X161107569Y-106764510D01*
X161097345Y-106815000D01*
X159785905Y-106815000D01*
X159620643Y-106649449D01*
X159599806Y-106640797D01*
X159650554Y-106490159D01*
X158750000Y-105589605D01*
X157849446Y-106490159D01*
X157900035Y-106640327D01*
X157881629Y-106647932D01*
X157449449Y-107079357D01*
X157215267Y-107643330D01*
X157214735Y-108253991D01*
X157447932Y-108818371D01*
X157849182Y-109220323D01*
X157449449Y-109619357D01*
X157215267Y-110183330D01*
X157214735Y-110793991D01*
X157447932Y-111358371D01*
X157849182Y-111760323D01*
X157449449Y-112159357D01*
X157215267Y-112723330D01*
X157214735Y-113333991D01*
X157447932Y-113898371D01*
X157849182Y-114300323D01*
X157449449Y-114699357D01*
X157215267Y-115263330D01*
X157214735Y-115873991D01*
X157447932Y-116438371D01*
X157849182Y-116840323D01*
X157449449Y-117239357D01*
X157403506Y-117350000D01*
X156664044Y-117350000D01*
X156660000Y-117345956D01*
X156660000Y-111618998D01*
X156602148Y-111328159D01*
X156437401Y-111081597D01*
X154168403Y-108812599D01*
X153921841Y-108647852D01*
X153631002Y-108590000D01*
X153362340Y-108590000D01*
X157556366Y-104395974D01*
X157669839Y-104509447D01*
X157413357Y-104595852D01*
X157203542Y-105169336D01*
X157229161Y-105779460D01*
X157413357Y-106224148D01*
X157669841Y-106310554D01*
X158570395Y-105410000D01*
X158929605Y-105410000D01*
X159830159Y-106310554D01*
X160086643Y-106224148D01*
X160296458Y-105650664D01*
X160270839Y-105040540D01*
X160086643Y-104595852D01*
X159830159Y-104509446D01*
X158929605Y-105410000D01*
X158570395Y-105410000D01*
X158556253Y-105395858D01*
X158735858Y-105216253D01*
X158750000Y-105230395D01*
X159650554Y-104329841D01*
X159599965Y-104179673D01*
X159618371Y-104172068D01*
X160050551Y-103740643D01*
X160284733Y-103176670D01*
X160285265Y-102566009D01*
X160052068Y-102001629D01*
X159620643Y-101569449D01*
X159056670Y-101335267D01*
X158446009Y-101334735D01*
X157881629Y-101567932D01*
X157714269Y-101735000D01*
X157477208Y-101735000D01*
X157042862Y-101821397D01*
X156773126Y-102001629D01*
X156674642Y-102067434D01*
X150367434Y-108374642D01*
X150121397Y-108742862D01*
X150035000Y-109177208D01*
X150035000Y-119115025D01*
X150014519Y-119145000D01*
X149036007Y-119145000D01*
X149036002Y-119144999D01*
X148658953Y-119220000D01*
X148639925Y-119223785D01*
X148304146Y-119448144D01*
X148304144Y-119448147D01*
X147532934Y-120219357D01*
X147352068Y-119781629D01*
X146950818Y-119379677D01*
X147350551Y-118980643D01*
X147584733Y-118416670D01*
X147585265Y-117806009D01*
X147352068Y-117241629D01*
X146950818Y-116839677D01*
X147350551Y-116440643D01*
X147584733Y-115876670D01*
X147585265Y-115266009D01*
X147352068Y-114701629D01*
X146950818Y-114299677D01*
X147350551Y-113900643D01*
X147584733Y-113336670D01*
X147585265Y-112726009D01*
X147352068Y-112161629D01*
X146950818Y-111759677D01*
X147350551Y-111360643D01*
X147584733Y-110796670D01*
X147585265Y-110186009D01*
X147352068Y-109621629D01*
X146950818Y-109219677D01*
X147350551Y-108820643D01*
X147584733Y-108256670D01*
X147585265Y-107646009D01*
X147352068Y-107081629D01*
X146950818Y-106679677D01*
X147350551Y-106280643D01*
X147584733Y-105716670D01*
X147585265Y-105106009D01*
X147352068Y-104541629D01*
X146950818Y-104139677D01*
X147350551Y-103740643D01*
X147584733Y-103176670D01*
X147585265Y-102566009D01*
X147352068Y-102001629D01*
X146920643Y-101569449D01*
X146356670Y-101335267D01*
X145746009Y-101334735D01*
X145181629Y-101567932D01*
X144749449Y-101999357D01*
X144515267Y-102563330D01*
X144514735Y-103173991D01*
X144747932Y-103738371D01*
X145149182Y-104140323D01*
X144749449Y-104539357D01*
X144515267Y-105103330D01*
X144514735Y-105713991D01*
X144747932Y-106278371D01*
X145149182Y-106680323D01*
X144749449Y-107079357D01*
X144515267Y-107643330D01*
X144514735Y-108253991D01*
X144747932Y-108818371D01*
X145149182Y-109220323D01*
X144749449Y-109619357D01*
X144515267Y-110183330D01*
X144514735Y-110793991D01*
X144747932Y-111358371D01*
X145149182Y-111760323D01*
X144749449Y-112159357D01*
X144515267Y-112723330D01*
X144514735Y-113333991D01*
X144747932Y-113898371D01*
X145149182Y-114300323D01*
X144749449Y-114699357D01*
X144515267Y-115263330D01*
X144514735Y-115873991D01*
X144747932Y-116438371D01*
X145149182Y-116840323D01*
X144749449Y-117239357D01*
X144515267Y-117803330D01*
X144514735Y-118413991D01*
X144747932Y-118978371D01*
X145149182Y-119380323D01*
X144749449Y-119779357D01*
X144566839Y-120219130D01*
X140965000Y-116617290D01*
X140965000Y-116360159D01*
X141720446Y-116360159D01*
X141806852Y-116616643D01*
X142380336Y-116826458D01*
X142990460Y-116800839D01*
X143435148Y-116616643D01*
X143521554Y-116360159D01*
X142621000Y-115459605D01*
X141720446Y-116360159D01*
X140965000Y-116360159D01*
X140965000Y-115039336D01*
X141074542Y-115039336D01*
X141100161Y-115649460D01*
X141284357Y-116094148D01*
X141540841Y-116180554D01*
X142441395Y-115280000D01*
X142800605Y-115280000D01*
X143701159Y-116180554D01*
X143957643Y-116094148D01*
X144167458Y-115520664D01*
X144141839Y-114910540D01*
X143957643Y-114465852D01*
X143701159Y-114379446D01*
X142800605Y-115280000D01*
X142441395Y-115280000D01*
X141540841Y-114379446D01*
X141284357Y-114465852D01*
X141074542Y-115039336D01*
X140965000Y-115039336D01*
X140965000Y-113820159D01*
X141720446Y-113820159D01*
X141784401Y-114010000D01*
X141720446Y-114199841D01*
X142621000Y-115100395D01*
X143521554Y-114199841D01*
X143457599Y-114010000D01*
X143521554Y-113820159D01*
X142621000Y-112919605D01*
X141720446Y-113820159D01*
X140965000Y-113820159D01*
X140965000Y-113108968D01*
X140978603Y-113088610D01*
X141065000Y-112654264D01*
X141065000Y-112499336D01*
X141074542Y-112499336D01*
X141100161Y-113109460D01*
X141284357Y-113554148D01*
X141540841Y-113640554D01*
X142441395Y-112740000D01*
X142800605Y-112740000D01*
X143701159Y-113640554D01*
X143957643Y-113554148D01*
X144167458Y-112980664D01*
X144141839Y-112370540D01*
X143957643Y-111925852D01*
X143701159Y-111839446D01*
X142800605Y-112740000D01*
X142441395Y-112740000D01*
X141540841Y-111839446D01*
X141284357Y-111925852D01*
X141074542Y-112499336D01*
X141065000Y-112499336D01*
X141065000Y-112230000D01*
X140978603Y-111795654D01*
X140887856Y-111659841D01*
X141720446Y-111659841D01*
X142621000Y-112560395D01*
X143521554Y-111659841D01*
X143435148Y-111403357D01*
X142861664Y-111193542D01*
X142251540Y-111219161D01*
X141806852Y-111403357D01*
X141720446Y-111659841D01*
X140887856Y-111659841D01*
X140732566Y-111427434D01*
X140507902Y-111277318D01*
X142091874Y-109693346D01*
X142302566Y-109552566D01*
X142548603Y-109184346D01*
X142635000Y-108750000D01*
X142548603Y-108315654D01*
X142302566Y-107947434D01*
X141934346Y-107701397D01*
X141500000Y-107615000D01*
X141430088Y-107615000D01*
X141171744Y-107666388D01*
X142691071Y-106147061D01*
X142924991Y-106147265D01*
X143489371Y-105914068D01*
X143921551Y-105482643D01*
X144155733Y-104918670D01*
X144156265Y-104308009D01*
X143923068Y-103743629D01*
X143521818Y-103341677D01*
X143921551Y-102942643D01*
X144155733Y-102378670D01*
X144156265Y-101768009D01*
X143923068Y-101203629D01*
X143491643Y-100771449D01*
X142927670Y-100537267D01*
X142317009Y-100536735D01*
X141752629Y-100769932D01*
X141320449Y-101201357D01*
X141086267Y-101765330D01*
X141085735Y-102375991D01*
X141318932Y-102940371D01*
X141720182Y-103342323D01*
X141320449Y-103741357D01*
X141086267Y-104305330D01*
X141086061Y-104541807D01*
X132967434Y-112660434D01*
X132721397Y-113028654D01*
X132635000Y-113463000D01*
X132635000Y-113912448D01*
X132496309Y-113855000D01*
X131905750Y-113855000D01*
X131747000Y-114013750D01*
X131747000Y-115013000D01*
X131767000Y-115013000D01*
X131767000Y-115267000D01*
X131747000Y-115267000D01*
X131747000Y-115287000D01*
X131493000Y-115287000D01*
X131493000Y-115267000D01*
X131473000Y-115267000D01*
X131473000Y-115013000D01*
X131493000Y-115013000D01*
X131493000Y-114013750D01*
X131334250Y-113855000D01*
X130743691Y-113855000D01*
X130510302Y-113951673D01*
X130331673Y-114130301D01*
X130275346Y-114266287D01*
X130273162Y-114254683D01*
X130134090Y-114038559D01*
X129921890Y-113893569D01*
X129670000Y-113842560D01*
X128170000Y-113842560D01*
X127934683Y-113886838D01*
X127718559Y-114025910D01*
X127573569Y-114238110D01*
X127522560Y-114490000D01*
X127522560Y-115790000D01*
X127566838Y-116025317D01*
X127705910Y-116241441D01*
X127918110Y-116386431D01*
X128120000Y-116427315D01*
X128120000Y-116927537D01*
X128087808Y-116959673D01*
X127945162Y-117303201D01*
X127944838Y-117675167D01*
X128086883Y-118018943D01*
X128349673Y-118282192D01*
X128693201Y-118424838D01*
X129065167Y-118425162D01*
X129408943Y-118283117D01*
X129672192Y-118020327D01*
X129814838Y-117676799D01*
X129815162Y-117304833D01*
X129673117Y-116961057D01*
X129640000Y-116927882D01*
X129640000Y-116437440D01*
X129670000Y-116437440D01*
X129905317Y-116393162D01*
X130121441Y-116254090D01*
X130266431Y-116041890D01*
X130273191Y-116008510D01*
X130331673Y-116149699D01*
X130510302Y-116328327D01*
X130743691Y-116425000D01*
X131334250Y-116425000D01*
X131492998Y-116266252D01*
X131492998Y-116425000D01*
X131586835Y-116425000D01*
X131515000Y-116786139D01*
X131515000Y-117579868D01*
X130717434Y-118377434D01*
X130471397Y-118745654D01*
X130385000Y-119180000D01*
X130385000Y-119439086D01*
X130336371Y-119487630D01*
X130270100Y-119647228D01*
X130205010Y-119489697D01*
X129812370Y-119096371D01*
X129299100Y-118883243D01*
X128743339Y-118882758D01*
X128229697Y-119094990D01*
X127836371Y-119487630D01*
X127623243Y-120000900D01*
X127622758Y-120556661D01*
X127834990Y-121070303D01*
X127885000Y-121120400D01*
X127885000Y-121630000D01*
X127971397Y-122064346D01*
X128194239Y-122397852D01*
X128217434Y-122432566D01*
X128639868Y-122855000D01*
X124202467Y-122855000D01*
X123254225Y-122666383D01*
X122507537Y-122167463D01*
X122008617Y-121420777D01*
X121820000Y-120472533D01*
X121820000Y-120040000D01*
X122500000Y-120040000D01*
X122662517Y-120857029D01*
X123125327Y-121549673D01*
X123817971Y-122012483D01*
X124635000Y-122175000D01*
X125452029Y-122012483D01*
X126144673Y-121549673D01*
X126607483Y-120857029D01*
X126770000Y-120040000D01*
X126607483Y-119222971D01*
X126144673Y-118530327D01*
X125452029Y-118067517D01*
X124635000Y-117905000D01*
X123817971Y-118067517D01*
X123125327Y-118530327D01*
X122662517Y-119222971D01*
X122500000Y-120040000D01*
X121820000Y-120040000D01*
X121820000Y-111286072D01*
X121862567Y-111349778D01*
X121895000Y-111371449D01*
X121895000Y-111691000D01*
X121981397Y-112125346D01*
X122176140Y-112416799D01*
X122227434Y-112493566D01*
X122543939Y-112810071D01*
X122543735Y-113043991D01*
X122776932Y-113608371D01*
X122944000Y-113775731D01*
X122944000Y-114244095D01*
X122778449Y-114409357D01*
X122544267Y-114973330D01*
X122543735Y-115583991D01*
X122776932Y-116148371D01*
X123208357Y-116580551D01*
X123772330Y-116814733D01*
X124382991Y-116815265D01*
X124947371Y-116582068D01*
X125379551Y-116150643D01*
X125613733Y-115586670D01*
X125614265Y-114976009D01*
X125381068Y-114411629D01*
X125214000Y-114244269D01*
X125214000Y-113775905D01*
X125379551Y-113610643D01*
X125613733Y-113046670D01*
X125614265Y-112436009D01*
X125381068Y-111871629D01*
X124949643Y-111439449D01*
X124385670Y-111205267D01*
X124294046Y-111205187D01*
X124555325Y-110814155D01*
X124681000Y-110182345D01*
X124681000Y-110117655D01*
X124555325Y-109485845D01*
X124352996Y-109183038D01*
X124497441Y-109090090D01*
X124642431Y-108877890D01*
X124693440Y-108626000D01*
X124693440Y-106594000D01*
X124649162Y-106358683D01*
X124510090Y-106142559D01*
X124466486Y-106112766D01*
X124947371Y-105914068D01*
X125379551Y-105482643D01*
X125613733Y-104918670D01*
X125614265Y-104308009D01*
X125381068Y-103743629D01*
X125214000Y-103576269D01*
X125214000Y-103107905D01*
X125379551Y-102942643D01*
X125613733Y-102378670D01*
X125614265Y-101768009D01*
X125381068Y-101203629D01*
X124949643Y-100771449D01*
X124385670Y-100537267D01*
X123775009Y-100536735D01*
X123210629Y-100769932D01*
X122778449Y-101201357D01*
X122544267Y-101765330D01*
X122543735Y-102375991D01*
X122776932Y-102940371D01*
X122944000Y-103107731D01*
X122944000Y-103576095D01*
X122778449Y-103741357D01*
X122544267Y-104305330D01*
X122544061Y-104541807D01*
X122227434Y-104858434D01*
X121981397Y-105226654D01*
X121895000Y-105661000D01*
X121895000Y-105968951D01*
X121820000Y-105983064D01*
X121820000Y-97040000D01*
X122500000Y-97040000D01*
X122662517Y-97857029D01*
X123125327Y-98549673D01*
X123817971Y-99012483D01*
X124635000Y-99175000D01*
X125452029Y-99012483D01*
X126144673Y-98549673D01*
X126607483Y-97857029D01*
X126770000Y-97040000D01*
X126607483Y-96222971D01*
X126144673Y-95530327D01*
X125452029Y-95067517D01*
X124635000Y-94905000D01*
X123817971Y-95067517D01*
X123125327Y-95530327D01*
X122662517Y-96222971D01*
X122500000Y-97040000D01*
X121820000Y-97040000D01*
X121820000Y-96607467D01*
X122008617Y-95659223D01*
X122507537Y-94912537D01*
X123254225Y-94413617D01*
X124202467Y-94225000D01*
X168030198Y-94225000D01*
X167888356Y-94366842D01*
X167888356Y-94366842D01*
G37*
X167888356Y-94366842D02*
X167559359Y-94301400D01*
X167500641Y-94301400D01*
X166927152Y-94415474D01*
X166440971Y-94740330D01*
X166260008Y-95011161D01*
X165878490Y-94593179D01*
X165349027Y-94345032D01*
X165117000Y-94465531D01*
X165117000Y-95673000D01*
X165137000Y-95673000D01*
X165137000Y-95927000D01*
X165117000Y-95927000D01*
X165117000Y-95947000D01*
X164863000Y-95947000D01*
X164863000Y-95927000D01*
X164843000Y-95927000D01*
X164843000Y-95673000D01*
X164863000Y-95673000D01*
X164863000Y-94465531D01*
X164630973Y-94345032D01*
X164101510Y-94593179D01*
X163719992Y-95011161D01*
X163539029Y-94740330D01*
X163052848Y-94415474D01*
X162479359Y-94301400D01*
X162420641Y-94301400D01*
X161847152Y-94415474D01*
X161360971Y-94740330D01*
X161180000Y-95011172D01*
X160999029Y-94740330D01*
X160512848Y-94415474D01*
X159939359Y-94301400D01*
X159880641Y-94301400D01*
X159307152Y-94415474D01*
X158820971Y-94740330D01*
X158640000Y-95011172D01*
X158459029Y-94740330D01*
X157972848Y-94415474D01*
X157399359Y-94301400D01*
X157340641Y-94301400D01*
X156767152Y-94415474D01*
X156280971Y-94740330D01*
X156100000Y-95011172D01*
X155919029Y-94740330D01*
X155432848Y-94415474D01*
X154859359Y-94301400D01*
X154800641Y-94301400D01*
X154227152Y-94415474D01*
X153740971Y-94740330D01*
X153560008Y-95011161D01*
X153178490Y-94593179D01*
X152649027Y-94345032D01*
X152417000Y-94465531D01*
X152417000Y-95673000D01*
X152437000Y-95673000D01*
X152437000Y-95927000D01*
X152417000Y-95927000D01*
X152417000Y-95947000D01*
X152163000Y-95947000D01*
X152163000Y-95927000D01*
X152143000Y-95927000D01*
X152143000Y-95673000D01*
X152163000Y-95673000D01*
X152163000Y-94465531D01*
X151930973Y-94345032D01*
X151401510Y-94593179D01*
X151019992Y-95011161D01*
X150839029Y-94740330D01*
X150352848Y-94415474D01*
X149779359Y-94301400D01*
X149720641Y-94301400D01*
X149147152Y-94415474D01*
X148660971Y-94740330D01*
X148480000Y-95011172D01*
X148299029Y-94740330D01*
X147812848Y-94415474D01*
X147239359Y-94301400D01*
X147180641Y-94301400D01*
X146607152Y-94415474D01*
X146120971Y-94740330D01*
X145940008Y-95011161D01*
X145558490Y-94593179D01*
X145029027Y-94345032D01*
X144797000Y-94465531D01*
X144797000Y-95673000D01*
X144817000Y-95673000D01*
X144817000Y-95927000D01*
X144797000Y-95927000D01*
X144797000Y-95947000D01*
X144543000Y-95947000D01*
X144543000Y-95927000D01*
X144523000Y-95927000D01*
X144523000Y-95673000D01*
X144543000Y-95673000D01*
X144543000Y-94465531D01*
X144310973Y-94345032D01*
X143781510Y-94593179D01*
X143399992Y-95011161D01*
X143219029Y-94740330D01*
X142732848Y-94415474D01*
X142159359Y-94301400D01*
X142100641Y-94301400D01*
X141527152Y-94415474D01*
X141040971Y-94740330D01*
X140860000Y-95011172D01*
X140679029Y-94740330D01*
X140192848Y-94415474D01*
X139619359Y-94301400D01*
X139560641Y-94301400D01*
X138987152Y-94415474D01*
X138500971Y-94740330D01*
X138320000Y-95011172D01*
X138139029Y-94740330D01*
X137652848Y-94415474D01*
X137079359Y-94301400D01*
X137020641Y-94301400D01*
X136447152Y-94415474D01*
X135960971Y-94740330D01*
X135780008Y-95011161D01*
X135398490Y-94593179D01*
X134869027Y-94345032D01*
X134637000Y-94465531D01*
X134637000Y-95673000D01*
X134657000Y-95673000D01*
X134657000Y-95927000D01*
X134637000Y-95927000D01*
X134637000Y-95947000D01*
X134383000Y-95947000D01*
X134383000Y-95927000D01*
X134363000Y-95927000D01*
X134363000Y-95673000D01*
X134383000Y-95673000D01*
X134383000Y-94465531D01*
X134150973Y-94345032D01*
X133621510Y-94593179D01*
X133239992Y-95011161D01*
X133059029Y-94740330D01*
X132572848Y-94415474D01*
X131999359Y-94301400D01*
X131940641Y-94301400D01*
X131367152Y-94415474D01*
X130880971Y-94740330D01*
X130700000Y-95011172D01*
X130519029Y-94740330D01*
X130032848Y-94415474D01*
X129459359Y-94301400D01*
X129400641Y-94301400D01*
X128827152Y-94415474D01*
X128340971Y-94740330D01*
X128016115Y-95226511D01*
X127902041Y-95800000D01*
X128016115Y-96373489D01*
X128340971Y-96859670D01*
X128354642Y-96868805D01*
X128331083Y-96873238D01*
X128114959Y-97012310D01*
X127969969Y-97224510D01*
X127918960Y-97476400D01*
X127918960Y-99203600D01*
X127963238Y-99438917D01*
X128102310Y-99655041D01*
X128314510Y-99800031D01*
X128566400Y-99851040D01*
X130293600Y-99851040D01*
X130528917Y-99806762D01*
X130745041Y-99667690D01*
X130890031Y-99455490D01*
X130898908Y-99411655D01*
X131367152Y-99724526D01*
X131940641Y-99838600D01*
X131999359Y-99838600D01*
X132572848Y-99724526D01*
X133059029Y-99399670D01*
X133240000Y-99128828D01*
X133420971Y-99399670D01*
X133907152Y-99724526D01*
X134480641Y-99838600D01*
X134539359Y-99838600D01*
X135112848Y-99724526D01*
X135599029Y-99399670D01*
X135780000Y-99128828D01*
X135960971Y-99399670D01*
X136447152Y-99724526D01*
X137020641Y-99838600D01*
X137079359Y-99838600D01*
X137652848Y-99724526D01*
X138139029Y-99399670D01*
X138319992Y-99128839D01*
X138701510Y-99546821D01*
X139230973Y-99794968D01*
X139463000Y-99674469D01*
X139463000Y-98467000D01*
X139443000Y-98467000D01*
X139443000Y-98213000D01*
X139463000Y-98213000D01*
X139463000Y-98193000D01*
X139717000Y-98193000D01*
X139717000Y-98213000D01*
X139737000Y-98213000D01*
X139737000Y-98467000D01*
X139717000Y-98467000D01*
X139717000Y-99674469D01*
X139949027Y-99794968D01*
X140478490Y-99546821D01*
X140860008Y-99128839D01*
X141040971Y-99399670D01*
X141527152Y-99724526D01*
X142100641Y-99838600D01*
X142159359Y-99838600D01*
X142732848Y-99724526D01*
X143219029Y-99399670D01*
X143400000Y-99128828D01*
X143580971Y-99399670D01*
X144067152Y-99724526D01*
X144640641Y-99838600D01*
X144699359Y-99838600D01*
X145272848Y-99724526D01*
X145759029Y-99399670D01*
X145940000Y-99128828D01*
X146120971Y-99399670D01*
X146607152Y-99724526D01*
X147180641Y-99838600D01*
X147239359Y-99838600D01*
X147812848Y-99724526D01*
X148299029Y-99399670D01*
X148480000Y-99128828D01*
X148660971Y-99399670D01*
X149147152Y-99724526D01*
X149720641Y-99838600D01*
X149779359Y-99838600D01*
X150352848Y-99724526D01*
X150839029Y-99399670D01*
X151020000Y-99128828D01*
X151200971Y-99399670D01*
X151687152Y-99724526D01*
X152260641Y-99838600D01*
X152319359Y-99838600D01*
X152892848Y-99724526D01*
X153379029Y-99399670D01*
X153560000Y-99128828D01*
X153740971Y-99399670D01*
X154227152Y-99724526D01*
X154800641Y-99838600D01*
X154859359Y-99838600D01*
X155432848Y-99724526D01*
X155919029Y-99399670D01*
X156100000Y-99128828D01*
X156280971Y-99399670D01*
X156767152Y-99724526D01*
X157340641Y-99838600D01*
X157399359Y-99838600D01*
X157972848Y-99724526D01*
X158459029Y-99399670D01*
X158639992Y-99128839D01*
X159021510Y-99546821D01*
X159550973Y-99794968D01*
X159783000Y-99674469D01*
X159783000Y-98467000D01*
X159763000Y-98467000D01*
X159763000Y-98213000D01*
X159783000Y-98213000D01*
X159783000Y-98193000D01*
X160037000Y-98193000D01*
X160037000Y-98213000D01*
X160057000Y-98213000D01*
X160057000Y-98467000D01*
X160037000Y-98467000D01*
X160037000Y-99674469D01*
X160269027Y-99794968D01*
X160798490Y-99546821D01*
X161180008Y-99128839D01*
X161360971Y-99399670D01*
X161847152Y-99724526D01*
X162420641Y-99838600D01*
X162479359Y-99838600D01*
X163052848Y-99724526D01*
X163539029Y-99399670D01*
X163720000Y-99128828D01*
X163900971Y-99399670D01*
X164387152Y-99724526D01*
X164960641Y-99838600D01*
X165019359Y-99838600D01*
X165348356Y-99773158D01*
X165880000Y-100304802D01*
X165880000Y-101263154D01*
X165771629Y-101307932D01*
X165339449Y-101739357D01*
X165105267Y-102303330D01*
X165104735Y-102913991D01*
X165337932Y-103478371D01*
X165739182Y-103880323D01*
X165339449Y-104279357D01*
X165105267Y-104843330D01*
X165104735Y-105453991D01*
X165337932Y-106018371D01*
X165739182Y-106420323D01*
X165339449Y-106819357D01*
X165105267Y-107383330D01*
X165104735Y-107993991D01*
X165337932Y-108558371D01*
X165739182Y-108960323D01*
X165339449Y-109359357D01*
X165105267Y-109923330D01*
X165104735Y-110533991D01*
X165337932Y-111098371D01*
X165739182Y-111500323D01*
X165339449Y-111899357D01*
X165105267Y-112463330D01*
X165104735Y-113073991D01*
X165337932Y-113638371D01*
X165739182Y-114040323D01*
X165339449Y-114439357D01*
X165105267Y-115003330D01*
X165104735Y-115613991D01*
X165337932Y-116178371D01*
X165739182Y-116580323D01*
X165339449Y-116979357D01*
X165105267Y-117543330D01*
X165104735Y-118153991D01*
X165337932Y-118718371D01*
X165739182Y-119120323D01*
X165339449Y-119519357D01*
X165105267Y-120083330D01*
X165104735Y-120693991D01*
X165337932Y-121258371D01*
X165619069Y-121540000D01*
X160260000Y-121540000D01*
X160260000Y-120935750D01*
X160101250Y-120777000D01*
X158877000Y-120777000D01*
X158877000Y-120797000D01*
X158623000Y-120797000D01*
X158623000Y-120777000D01*
X157398750Y-120777000D01*
X157280276Y-120895474D01*
X154000000Y-117615198D01*
X154000000Y-110793800D01*
X155140000Y-111933800D01*
X155140000Y-117660758D01*
X155197852Y-117951597D01*
X155362599Y-118198159D01*
X155811841Y-118647401D01*
X156058403Y-118812148D01*
X156349242Y-118870000D01*
X157403154Y-118870000D01*
X157447932Y-118978371D01*
X157650061Y-119180854D01*
X157515302Y-119236673D01*
X157336673Y-119415301D01*
X157240000Y-119648690D01*
X157240000Y-120364250D01*
X157398750Y-120523000D01*
X158623000Y-120523000D01*
X158623000Y-120503000D01*
X158877000Y-120503000D01*
X158877000Y-120523000D01*
X160101250Y-120523000D01*
X160260000Y-120364250D01*
X160260000Y-119648690D01*
X160163327Y-119415301D01*
X159984698Y-119236673D01*
X159849975Y-119180869D01*
X160050551Y-118980643D01*
X160284733Y-118416670D01*
X160285265Y-117806009D01*
X160052068Y-117241629D01*
X159650818Y-116839677D01*
X159785731Y-116705000D01*
X161693087Y-116705000D01*
X161961766Y-116884526D01*
X162535255Y-116998600D01*
X162904745Y-116998600D01*
X163478234Y-116884526D01*
X163964415Y-116559670D01*
X164289271Y-116073489D01*
X164403345Y-115500000D01*
X164289271Y-114926511D01*
X163964415Y-114440330D01*
X163649634Y-114230000D01*
X163964415Y-114019670D01*
X164289271Y-113533489D01*
X164403345Y-112960000D01*
X164289271Y-112386511D01*
X163964415Y-111900330D01*
X163649634Y-111690000D01*
X163964415Y-111479670D01*
X164289271Y-110993489D01*
X164403345Y-110420000D01*
X164289271Y-109846511D01*
X163964415Y-109360330D01*
X163950087Y-109350757D01*
X163971317Y-109346762D01*
X164187441Y-109207690D01*
X164332431Y-108995490D01*
X164383440Y-108743600D01*
X164383440Y-107016400D01*
X164339162Y-106781083D01*
X164200090Y-106564959D01*
X163987890Y-106419969D01*
X163736000Y-106368960D01*
X161704000Y-106368960D01*
X161468683Y-106413238D01*
X161252559Y-106552310D01*
X161107569Y-106764510D01*
X161097345Y-106815000D01*
X159785905Y-106815000D01*
X159620643Y-106649449D01*
X159599806Y-106640797D01*
X159650554Y-106490159D01*
X158750000Y-105589605D01*
X157849446Y-106490159D01*
X157900035Y-106640327D01*
X157881629Y-106647932D01*
X157449449Y-107079357D01*
X157215267Y-107643330D01*
X157214735Y-108253991D01*
X157447932Y-108818371D01*
X157849182Y-109220323D01*
X157449449Y-109619357D01*
X157215267Y-110183330D01*
X157214735Y-110793991D01*
X157447932Y-111358371D01*
X157849182Y-111760323D01*
X157449449Y-112159357D01*
X157215267Y-112723330D01*
X157214735Y-113333991D01*
X157447932Y-113898371D01*
X157849182Y-114300323D01*
X157449449Y-114699357D01*
X157215267Y-115263330D01*
X157214735Y-115873991D01*
X157447932Y-116438371D01*
X157849182Y-116840323D01*
X157449449Y-117239357D01*
X157403506Y-117350000D01*
X156664044Y-117350000D01*
X156660000Y-117345956D01*
X156660000Y-111618998D01*
X156602148Y-111328159D01*
X156437401Y-111081597D01*
X154168403Y-108812599D01*
X153921841Y-108647852D01*
X153631002Y-108590000D01*
X153362340Y-108590000D01*
X157556366Y-104395974D01*
X157669839Y-104509447D01*
X157413357Y-104595852D01*
X157203542Y-105169336D01*
X157229161Y-105779460D01*
X157413357Y-106224148D01*
X157669841Y-106310554D01*
X158570395Y-105410000D01*
X158929605Y-105410000D01*
X159830159Y-106310554D01*
X160086643Y-106224148D01*
X160296458Y-105650664D01*
X160270839Y-105040540D01*
X160086643Y-104595852D01*
X159830159Y-104509446D01*
X158929605Y-105410000D01*
X158570395Y-105410000D01*
X158556253Y-105395858D01*
X158735858Y-105216253D01*
X158750000Y-105230395D01*
X159650554Y-104329841D01*
X159599965Y-104179673D01*
X159618371Y-104172068D01*
X160050551Y-103740643D01*
X160284733Y-103176670D01*
X160285265Y-102566009D01*
X160052068Y-102001629D01*
X159620643Y-101569449D01*
X159056670Y-101335267D01*
X158446009Y-101334735D01*
X157881629Y-101567932D01*
X157714269Y-101735000D01*
X157477208Y-101735000D01*
X157042862Y-101821397D01*
X156773126Y-102001629D01*
X156674642Y-102067434D01*
X150367434Y-108374642D01*
X150121397Y-108742862D01*
X150035000Y-109177208D01*
X150035000Y-119115025D01*
X150014519Y-119145000D01*
X149036007Y-119145000D01*
X149036002Y-119144999D01*
X148658953Y-119220000D01*
X148639925Y-119223785D01*
X148304146Y-119448144D01*
X148304144Y-119448147D01*
X147532934Y-120219357D01*
X147352068Y-119781629D01*
X146950818Y-119379677D01*
X147350551Y-118980643D01*
X147584733Y-118416670D01*
X147585265Y-117806009D01*
X147352068Y-117241629D01*
X146950818Y-116839677D01*
X147350551Y-116440643D01*
X147584733Y-115876670D01*
X147585265Y-115266009D01*
X147352068Y-114701629D01*
X146950818Y-114299677D01*
X147350551Y-113900643D01*
X147584733Y-113336670D01*
X147585265Y-112726009D01*
X147352068Y-112161629D01*
X146950818Y-111759677D01*
X147350551Y-111360643D01*
X147584733Y-110796670D01*
X147585265Y-110186009D01*
X147352068Y-109621629D01*
X146950818Y-109219677D01*
X147350551Y-108820643D01*
X147584733Y-108256670D01*
X147585265Y-107646009D01*
X147352068Y-107081629D01*
X146950818Y-106679677D01*
X147350551Y-106280643D01*
X147584733Y-105716670D01*
X147585265Y-105106009D01*
X147352068Y-104541629D01*
X146950818Y-104139677D01*
X147350551Y-103740643D01*
X147584733Y-103176670D01*
X147585265Y-102566009D01*
X147352068Y-102001629D01*
X146920643Y-101569449D01*
X146356670Y-101335267D01*
X145746009Y-101334735D01*
X145181629Y-101567932D01*
X144749449Y-101999357D01*
X144515267Y-102563330D01*
X144514735Y-103173991D01*
X144747932Y-103738371D01*
X145149182Y-104140323D01*
X144749449Y-104539357D01*
X144515267Y-105103330D01*
X144514735Y-105713991D01*
X144747932Y-106278371D01*
X145149182Y-106680323D01*
X144749449Y-107079357D01*
X144515267Y-107643330D01*
X144514735Y-108253991D01*
X144747932Y-108818371D01*
X145149182Y-109220323D01*
X144749449Y-109619357D01*
X144515267Y-110183330D01*
X144514735Y-110793991D01*
X144747932Y-111358371D01*
X145149182Y-111760323D01*
X144749449Y-112159357D01*
X144515267Y-112723330D01*
X144514735Y-113333991D01*
X144747932Y-113898371D01*
X145149182Y-114300323D01*
X144749449Y-114699357D01*
X144515267Y-115263330D01*
X144514735Y-115873991D01*
X144747932Y-116438371D01*
X145149182Y-116840323D01*
X144749449Y-117239357D01*
X144515267Y-117803330D01*
X144514735Y-118413991D01*
X144747932Y-118978371D01*
X145149182Y-119380323D01*
X144749449Y-119779357D01*
X144566839Y-120219130D01*
X140965000Y-116617290D01*
X140965000Y-116360159D01*
X141720446Y-116360159D01*
X141806852Y-116616643D01*
X142380336Y-116826458D01*
X142990460Y-116800839D01*
X143435148Y-116616643D01*
X143521554Y-116360159D01*
X142621000Y-115459605D01*
X141720446Y-116360159D01*
X140965000Y-116360159D01*
X140965000Y-115039336D01*
X141074542Y-115039336D01*
X141100161Y-115649460D01*
X141284357Y-116094148D01*
X141540841Y-116180554D01*
X142441395Y-115280000D01*
X142800605Y-115280000D01*
X143701159Y-116180554D01*
X143957643Y-116094148D01*
X144167458Y-115520664D01*
X144141839Y-114910540D01*
X143957643Y-114465852D01*
X143701159Y-114379446D01*
X142800605Y-115280000D01*
X142441395Y-115280000D01*
X141540841Y-114379446D01*
X141284357Y-114465852D01*
X141074542Y-115039336D01*
X140965000Y-115039336D01*
X140965000Y-113820159D01*
X141720446Y-113820159D01*
X141784401Y-114010000D01*
X141720446Y-114199841D01*
X142621000Y-115100395D01*
X143521554Y-114199841D01*
X143457599Y-114010000D01*
X143521554Y-113820159D01*
X142621000Y-112919605D01*
X141720446Y-113820159D01*
X140965000Y-113820159D01*
X140965000Y-113108968D01*
X140978603Y-113088610D01*
X141065000Y-112654264D01*
X141065000Y-112499336D01*
X141074542Y-112499336D01*
X141100161Y-113109460D01*
X141284357Y-113554148D01*
X141540841Y-113640554D01*
X142441395Y-112740000D01*
X142800605Y-112740000D01*
X143701159Y-113640554D01*
X143957643Y-113554148D01*
X144167458Y-112980664D01*
X144141839Y-112370540D01*
X143957643Y-111925852D01*
X143701159Y-111839446D01*
X142800605Y-112740000D01*
X142441395Y-112740000D01*
X141540841Y-111839446D01*
X141284357Y-111925852D01*
X141074542Y-112499336D01*
X141065000Y-112499336D01*
X141065000Y-112230000D01*
X140978603Y-111795654D01*
X140887856Y-111659841D01*
X141720446Y-111659841D01*
X142621000Y-112560395D01*
X143521554Y-111659841D01*
X143435148Y-111403357D01*
X142861664Y-111193542D01*
X142251540Y-111219161D01*
X141806852Y-111403357D01*
X141720446Y-111659841D01*
X140887856Y-111659841D01*
X140732566Y-111427434D01*
X140507902Y-111277318D01*
X142091874Y-109693346D01*
X142302566Y-109552566D01*
X142548603Y-109184346D01*
X142635000Y-108750000D01*
X142548603Y-108315654D01*
X142302566Y-107947434D01*
X141934346Y-107701397D01*
X141500000Y-107615000D01*
X141430088Y-107615000D01*
X141171744Y-107666388D01*
X142691071Y-106147061D01*
X142924991Y-106147265D01*
X143489371Y-105914068D01*
X143921551Y-105482643D01*
X144155733Y-104918670D01*
X144156265Y-104308009D01*
X143923068Y-103743629D01*
X143521818Y-103341677D01*
X143921551Y-102942643D01*
X144155733Y-102378670D01*
X144156265Y-101768009D01*
X143923068Y-101203629D01*
X143491643Y-100771449D01*
X142927670Y-100537267D01*
X142317009Y-100536735D01*
X141752629Y-100769932D01*
X141320449Y-101201357D01*
X141086267Y-101765330D01*
X141085735Y-102375991D01*
X141318932Y-102940371D01*
X141720182Y-103342323D01*
X141320449Y-103741357D01*
X141086267Y-104305330D01*
X141086061Y-104541807D01*
X132967434Y-112660434D01*
X132721397Y-113028654D01*
X132635000Y-113463000D01*
X132635000Y-113912448D01*
X132496309Y-113855000D01*
X131905750Y-113855000D01*
X131747000Y-114013750D01*
X131747000Y-115013000D01*
X131767000Y-115013000D01*
X131767000Y-115267000D01*
X131747000Y-115267000D01*
X131747000Y-115287000D01*
X131493000Y-115287000D01*
X131493000Y-115267000D01*
X131473000Y-115267000D01*
X131473000Y-115013000D01*
X131493000Y-115013000D01*
X131493000Y-114013750D01*
X131334250Y-113855000D01*
X130743691Y-113855000D01*
X130510302Y-113951673D01*
X130331673Y-114130301D01*
X130275346Y-114266287D01*
X130273162Y-114254683D01*
X130134090Y-114038559D01*
X129921890Y-113893569D01*
X129670000Y-113842560D01*
X128170000Y-113842560D01*
X127934683Y-113886838D01*
X127718559Y-114025910D01*
X127573569Y-114238110D01*
X127522560Y-114490000D01*
X127522560Y-115790000D01*
X127566838Y-116025317D01*
X127705910Y-116241441D01*
X127918110Y-116386431D01*
X128120000Y-116427315D01*
X128120000Y-116927537D01*
X128087808Y-116959673D01*
X127945162Y-117303201D01*
X127944838Y-117675167D01*
X128086883Y-118018943D01*
X128349673Y-118282192D01*
X128693201Y-118424838D01*
X129065167Y-118425162D01*
X129408943Y-118283117D01*
X129672192Y-118020327D01*
X129814838Y-117676799D01*
X129815162Y-117304833D01*
X129673117Y-116961057D01*
X129640000Y-116927882D01*
X129640000Y-116437440D01*
X129670000Y-116437440D01*
X129905317Y-116393162D01*
X130121441Y-116254090D01*
X130266431Y-116041890D01*
X130273191Y-116008510D01*
X130331673Y-116149699D01*
X130510302Y-116328327D01*
X130743691Y-116425000D01*
X131334250Y-116425000D01*
X131492998Y-116266252D01*
X131492998Y-116425000D01*
X131586835Y-116425000D01*
X131515000Y-116786139D01*
X131515000Y-117579868D01*
X130717434Y-118377434D01*
X130471397Y-118745654D01*
X130385000Y-119180000D01*
X130385000Y-119439086D01*
X130336371Y-119487630D01*
X130270100Y-119647228D01*
X130205010Y-119489697D01*
X129812370Y-119096371D01*
X129299100Y-118883243D01*
X128743339Y-118882758D01*
X128229697Y-119094990D01*
X127836371Y-119487630D01*
X127623243Y-120000900D01*
X127622758Y-120556661D01*
X127834990Y-121070303D01*
X127885000Y-121120400D01*
X127885000Y-121630000D01*
X127971397Y-122064346D01*
X128194239Y-122397852D01*
X128217434Y-122432566D01*
X128639868Y-122855000D01*
X124202467Y-122855000D01*
X123254225Y-122666383D01*
X122507537Y-122167463D01*
X122008617Y-121420777D01*
X121820000Y-120472533D01*
X121820000Y-120040000D01*
X122500000Y-120040000D01*
X122662517Y-120857029D01*
X123125327Y-121549673D01*
X123817971Y-122012483D01*
X124635000Y-122175000D01*
X125452029Y-122012483D01*
X126144673Y-121549673D01*
X126607483Y-120857029D01*
X126770000Y-120040000D01*
X126607483Y-119222971D01*
X126144673Y-118530327D01*
X125452029Y-118067517D01*
X124635000Y-117905000D01*
X123817971Y-118067517D01*
X123125327Y-118530327D01*
X122662517Y-119222971D01*
X122500000Y-120040000D01*
X121820000Y-120040000D01*
X121820000Y-111286072D01*
X121862567Y-111349778D01*
X121895000Y-111371449D01*
X121895000Y-111691000D01*
X121981397Y-112125346D01*
X122176140Y-112416799D01*
X122227434Y-112493566D01*
X122543939Y-112810071D01*
X122543735Y-113043991D01*
X122776932Y-113608371D01*
X122944000Y-113775731D01*
X122944000Y-114244095D01*
X122778449Y-114409357D01*
X122544267Y-114973330D01*
X122543735Y-115583991D01*
X122776932Y-116148371D01*
X123208357Y-116580551D01*
X123772330Y-116814733D01*
X124382991Y-116815265D01*
X124947371Y-116582068D01*
X125379551Y-116150643D01*
X125613733Y-115586670D01*
X125614265Y-114976009D01*
X125381068Y-114411629D01*
X125214000Y-114244269D01*
X125214000Y-113775905D01*
X125379551Y-113610643D01*
X125613733Y-113046670D01*
X125614265Y-112436009D01*
X125381068Y-111871629D01*
X124949643Y-111439449D01*
X124385670Y-111205267D01*
X124294046Y-111205187D01*
X124555325Y-110814155D01*
X124681000Y-110182345D01*
X124681000Y-110117655D01*
X124555325Y-109485845D01*
X124352996Y-109183038D01*
X124497441Y-109090090D01*
X124642431Y-108877890D01*
X124693440Y-108626000D01*
X124693440Y-106594000D01*
X124649162Y-106358683D01*
X124510090Y-106142559D01*
X124466486Y-106112766D01*
X124947371Y-105914068D01*
X125379551Y-105482643D01*
X125613733Y-104918670D01*
X125614265Y-104308009D01*
X125381068Y-103743629D01*
X125214000Y-103576269D01*
X125214000Y-103107905D01*
X125379551Y-102942643D01*
X125613733Y-102378670D01*
X125614265Y-101768009D01*
X125381068Y-101203629D01*
X124949643Y-100771449D01*
X124385670Y-100537267D01*
X123775009Y-100536735D01*
X123210629Y-100769932D01*
X122778449Y-101201357D01*
X122544267Y-101765330D01*
X122543735Y-102375991D01*
X122776932Y-102940371D01*
X122944000Y-103107731D01*
X122944000Y-103576095D01*
X122778449Y-103741357D01*
X122544267Y-104305330D01*
X122544061Y-104541807D01*
X122227434Y-104858434D01*
X121981397Y-105226654D01*
X121895000Y-105661000D01*
X121895000Y-105968951D01*
X121820000Y-105983064D01*
X121820000Y-97040000D01*
X122500000Y-97040000D01*
X122662517Y-97857029D01*
X123125327Y-98549673D01*
X123817971Y-99012483D01*
X124635000Y-99175000D01*
X125452029Y-99012483D01*
X126144673Y-98549673D01*
X126607483Y-97857029D01*
X126770000Y-97040000D01*
X126607483Y-96222971D01*
X126144673Y-95530327D01*
X125452029Y-95067517D01*
X124635000Y-94905000D01*
X123817971Y-95067517D01*
X123125327Y-95530327D01*
X122662517Y-96222971D01*
X122500000Y-97040000D01*
X121820000Y-97040000D01*
X121820000Y-96607467D01*
X122008617Y-95659223D01*
X122507537Y-94912537D01*
X123254225Y-94413617D01*
X124202467Y-94225000D01*
X168030198Y-94225000D01*
X167888356Y-94366842D01*
G36*
X153863748Y-120165858D02*
X153849605Y-120180000D01*
X154569016Y-120899410D01*
X154799611Y-120843729D01*
X154871717Y-120636519D01*
X156675198Y-122440000D01*
X155265800Y-122440000D01*
X154193497Y-121367697D01*
X154333729Y-121309611D01*
X154389410Y-121079016D01*
X153670000Y-120359605D01*
X153655858Y-120373748D01*
X153476252Y-120194142D01*
X153490395Y-120180000D01*
X153476253Y-120165858D01*
X153655858Y-119986252D01*
X153670000Y-120000395D01*
X153684142Y-119986252D01*
X153863748Y-120165858D01*
X153863748Y-120165858D01*
G37*
X153863748Y-120165858D02*
X153849605Y-120180000D01*
X154569016Y-120899410D01*
X154799611Y-120843729D01*
X154871717Y-120636519D01*
X156675198Y-122440000D01*
X155265800Y-122440000D01*
X154193497Y-121367697D01*
X154333729Y-121309611D01*
X154389410Y-121079016D01*
X153670000Y-120359605D01*
X153655858Y-120373748D01*
X153476252Y-120194142D01*
X153490395Y-120180000D01*
X153476253Y-120165858D01*
X153655858Y-119986252D01*
X153670000Y-120000395D01*
X153684142Y-119986252D01*
X153863748Y-120165858D01*
G36*
X177817000Y-98213000D02*
X177837000Y-98213000D01*
X177837000Y-98467000D01*
X177817000Y-98467000D01*
X177817000Y-98487000D01*
X177563000Y-98487000D01*
X177563000Y-98467000D01*
X177543000Y-98467000D01*
X177543000Y-98213000D01*
X177563000Y-98213000D01*
X177563000Y-98193000D01*
X177817000Y-98193000D01*
X177817000Y-98213000D01*
X177817000Y-98213000D01*
G37*
X177817000Y-98213000D02*
X177837000Y-98213000D01*
X177837000Y-98467000D01*
X177817000Y-98467000D01*
X177817000Y-98487000D01*
X177563000Y-98487000D01*
X177563000Y-98467000D01*
X177543000Y-98467000D01*
X177543000Y-98213000D01*
X177563000Y-98213000D01*
X177563000Y-98193000D01*
X177817000Y-98193000D01*
X177817000Y-98213000D01*
G36*
X170197000Y-95673000D02*
X170217000Y-95673000D01*
X170217000Y-95927000D01*
X170197000Y-95927000D01*
X170197000Y-95947000D01*
X169943000Y-95947000D01*
X169943000Y-95927000D01*
X169923000Y-95927000D01*
X169923000Y-95673000D01*
X169943000Y-95673000D01*
X169943000Y-95653000D01*
X170197000Y-95653000D01*
X170197000Y-95673000D01*
X170197000Y-95673000D01*
G37*
X170197000Y-95673000D02*
X170217000Y-95673000D01*
X170217000Y-95927000D01*
X170197000Y-95927000D01*
X170197000Y-95947000D01*
X169943000Y-95947000D01*
X169943000Y-95927000D01*
X169923000Y-95927000D01*
X169923000Y-95673000D01*
X169943000Y-95673000D01*
X169943000Y-95653000D01*
X170197000Y-95653000D01*
X170197000Y-95673000D01*
M02*
