M48
;DRILL file {KiCad 4.0.2+dfsg1-stable} date ថ្ងៃ​ព្រហស្បតិ៍ ថ្ងៃ 15 ខែ មិនា ឆ្នាំ  2018, 15 ម៉ោង m នាទី 48 វិនាទី​
;FORMAT={-:-/ absolute / metric / decimal}
FMAT,2
METRIC,TZ
T1C0.400
T2C0.800
T3C1.016
T4C1.100
T5C1.200
%
G90
G05
M71
T1
X128.88Y-117.49
X135.05Y-118.6
X139.93Y-112.23
X141.5Y-108.75
X153.24Y-110.18
X169.05Y-120.87
X169.19Y-113.08
T2
X151.17Y-120.18
X153.67Y-120.18
X171.65Y-119.87
X174.15Y-119.87
T3
X149.75Y-95.8
X149.75Y-98.34
X159.91Y-98.34
X162.45Y-95.8
X162.72Y-107.88
X162.72Y-112.96
X162.72Y-115.5
X183.66Y-107.71
X183.66Y-110.25
X183.66Y-112.79
X183.66Y-115.33
T4
X129.02Y-120.28
X131.52Y-120.28
X134.02Y-120.28
X162.72Y-110.42
T5
X123.03Y-107.61
X123.03Y-110.15
X124.079Y-102.072
X124.079Y-104.612
X124.079Y-112.74
X124.079Y-115.28
X129.43Y-95.8
X129.43Y-98.34
X131.97Y-95.8
X131.97Y-98.34
X134.51Y-95.8
X134.51Y-98.34
X137.05Y-95.8
X137.05Y-98.34
X139.59Y-95.8
X139.59Y-98.34
X142.13Y-95.8
X142.13Y-98.34
X142.621Y-102.072
X142.621Y-104.612
X142.621Y-112.74
X142.621Y-115.28
X144.67Y-95.8
X144.67Y-98.34
X146.05Y-102.87
X146.05Y-105.41
X146.05Y-107.95
X146.05Y-110.49
X146.05Y-113.03
X146.05Y-115.57
X146.05Y-118.11
X146.05Y-120.65
X147.21Y-95.8
X147.21Y-98.34
X152.29Y-95.8
X152.29Y-98.34
X154.83Y-95.8
X154.83Y-98.34
X157.37Y-95.8
X157.37Y-98.34
X158.75Y-102.87
X158.75Y-105.41
X158.75Y-107.95
X158.75Y-110.49
X158.75Y-113.03
X158.75Y-115.57
X158.75Y-118.11
X158.75Y-120.65
X159.91Y-95.8
X162.45Y-98.34
X164.99Y-95.8
X164.99Y-98.34
X166.64Y-102.61
X166.64Y-105.15
X166.64Y-107.69
X166.64Y-110.23
X166.64Y-112.77
X166.64Y-115.31
X166.64Y-117.85
X166.64Y-120.39
X167.53Y-95.8
X167.53Y-98.34
X170.07Y-95.8
X170.07Y-98.34
X172.61Y-95.8
X172.61Y-98.34
X175.15Y-95.8
X175.15Y-98.34
X177.69Y-95.8
X177.69Y-98.34
X179.34Y-102.61
X179.34Y-105.15
X179.34Y-107.69
X179.34Y-110.23
X179.34Y-112.77
X179.34Y-115.31
X179.34Y-117.85
X179.34Y-120.39
T0
M30
