G04 #@! TF.FileFunction,Soldermask,Bot*
%FSLAX46Y46*%
G04 Gerber Fmt 4.6, Leading zero omitted, Abs format (unit mm)*
G04 Created by KiCad (PCBNEW 4.0.2+dfsg1-stable) date ថ្ងៃ​ព្រហស្បតិ៍ ថ្ងៃ 15 ខែ មិនា ឆ្នាំ  2018, 15 ម៉ោង m នាទី 28 វិនាទី​*
%MOMM*%
G01*
G04 APERTURE LIST*
%ADD10C,0.100000*%
%ADD11R,2.127200X2.127200*%
%ADD12O,2.127200X2.127200*%
%ADD13R,2.432000X2.127200*%
%ADD14O,2.432000X2.127200*%
%ADD15C,1.700000*%
%ADD16R,1.700000X1.700000*%
%ADD17R,2.150000X2.150000*%
%ADD18C,2.200000*%
%ADD19R,2.432000X2.432000*%
%ADD20O,2.432000X2.432000*%
%ADD21C,1.924000*%
%ADD22R,1.924000X1.924000*%
G04 APERTURE END LIST*
D10*
D11*
X129430000Y-98340000D03*
D12*
X129430000Y-95800000D03*
X131970000Y-98340000D03*
X131970000Y-95800000D03*
X134510000Y-98340000D03*
X134510000Y-95800000D03*
X137050000Y-98340000D03*
X137050000Y-95800000D03*
X139590000Y-98340000D03*
X139590000Y-95800000D03*
X142130000Y-98340000D03*
X142130000Y-95800000D03*
X144670000Y-98340000D03*
X144670000Y-95800000D03*
X147210000Y-98340000D03*
X147210000Y-95800000D03*
X149750000Y-98340000D03*
X149750000Y-95800000D03*
X152290000Y-98340000D03*
X152290000Y-95800000D03*
X154830000Y-98340000D03*
X154830000Y-95800000D03*
X157370000Y-98340000D03*
X157370000Y-95800000D03*
X159910000Y-98340000D03*
X159910000Y-95800000D03*
X162450000Y-98340000D03*
X162450000Y-95800000D03*
X164990000Y-98340000D03*
X164990000Y-95800000D03*
X167530000Y-98340000D03*
X167530000Y-95800000D03*
X170070000Y-98340000D03*
X170070000Y-95800000D03*
X172610000Y-98340000D03*
X172610000Y-95800000D03*
X175150000Y-98340000D03*
X175150000Y-95800000D03*
X177690000Y-98340000D03*
X177690000Y-95800000D03*
D13*
X183660000Y-107710000D03*
D14*
X183660000Y-110250000D03*
X183660000Y-112790000D03*
X183660000Y-115330000D03*
D15*
X153670000Y-120180000D03*
D16*
X151170000Y-120180000D03*
D15*
X174150000Y-119870000D03*
D16*
X171650000Y-119870000D03*
D17*
X179340000Y-120390000D03*
D18*
X179340000Y-117850000D03*
X179340000Y-115310000D03*
X179340000Y-112770000D03*
X179340000Y-110230000D03*
X179340000Y-107690000D03*
X179340000Y-105150000D03*
X179340000Y-102610000D03*
X166640000Y-120390000D03*
X166640000Y-117850000D03*
X166640000Y-115310000D03*
X166640000Y-112770000D03*
X166640000Y-110230000D03*
X166640000Y-105150000D03*
X166640000Y-107690000D03*
X166640000Y-102610000D03*
D17*
X158750000Y-120650000D03*
D18*
X158750000Y-118110000D03*
X158750000Y-115570000D03*
X158750000Y-113030000D03*
X158750000Y-110490000D03*
X158750000Y-107950000D03*
X158750000Y-105410000D03*
X158750000Y-102870000D03*
X146050000Y-120650000D03*
X146050000Y-118110000D03*
X146050000Y-115570000D03*
X146050000Y-113030000D03*
X146050000Y-110490000D03*
X146050000Y-105410000D03*
X146050000Y-107950000D03*
X146050000Y-102870000D03*
D19*
X123030000Y-107610000D03*
D20*
X123030000Y-110150000D03*
D18*
X124079000Y-102072000D03*
X124079000Y-104612000D03*
X124079000Y-115280000D03*
X124079000Y-112740000D03*
X142621000Y-102072000D03*
X142621000Y-104612000D03*
X142621000Y-112740000D03*
X142621000Y-115280000D03*
D13*
X162720000Y-107880000D03*
D14*
X162720000Y-110420000D03*
X162720000Y-112960000D03*
X162720000Y-115500000D03*
D21*
X131520000Y-120280000D03*
D22*
X134020000Y-120280000D03*
D21*
X129020000Y-120280000D03*
M02*
