G04 #@! TF.FileFunction,Legend,Bot*
%FSLAX46Y46*%
G04 Gerber Fmt 4.6, Leading zero omitted, Abs format (unit mm)*
G04 Created by KiCad (PCBNEW 4.0.2+dfsg1-stable) date ថ្ងៃ​ព្រហស្បតិ៍ ថ្ងៃ 15 ខែ មិនា ឆ្នាំ  2018, 15 ម៉ោង m នាទី 55 វិនាទី​*
%MOMM*%
G01*
G04 APERTURE LIST*
%ADD10C,0.100000*%
%ADD11C,0.150000*%
G04 APERTURE END LIST*
D10*
D11*
X178960000Y-94530000D02*
X128160000Y-94530000D01*
X130700000Y-99610000D02*
X178960000Y-99610000D01*
X178960000Y-94530000D02*
X178960000Y-99610000D01*
X128160000Y-94530000D02*
X128160000Y-97070000D01*
X129430000Y-99890000D02*
X127880000Y-99890000D01*
X128160000Y-97070000D02*
X130700000Y-97070000D01*
X130700000Y-97070000D02*
X130700000Y-99610000D01*
X127880000Y-99890000D02*
X127880000Y-98340000D01*
X144399000Y-100294000D02*
X122301000Y-100294000D01*
X144399000Y-117058000D02*
X144399000Y-100294000D01*
X122301000Y-117058000D02*
X144399000Y-117058000D01*
X122301000Y-117058000D02*
X122301000Y-100294000D01*
X130168095Y-103892381D02*
X130168095Y-102892381D01*
X129787142Y-102892381D01*
X129691904Y-102940000D01*
X129644285Y-102987619D01*
X129596666Y-103082857D01*
X129596666Y-103225714D01*
X129644285Y-103320952D01*
X129691904Y-103368571D01*
X129787142Y-103416190D01*
X130168095Y-103416190D01*
X128644285Y-103892381D02*
X129215714Y-103892381D01*
X128930000Y-103892381D02*
X128930000Y-102892381D01*
X129025238Y-103035238D01*
X129120476Y-103130476D01*
X129215714Y-103178095D01*
X134111905Y-107628381D02*
X134111905Y-108437905D01*
X134064286Y-108533143D01*
X134016667Y-108580762D01*
X133921429Y-108628381D01*
X133730952Y-108628381D01*
X133635714Y-108580762D01*
X133588095Y-108533143D01*
X133540476Y-108437905D01*
X133540476Y-107628381D01*
X132540476Y-108628381D02*
X133111905Y-108628381D01*
X132826191Y-108628381D02*
X132826191Y-107628381D01*
X132921429Y-107771238D01*
X133016667Y-107866476D01*
X133111905Y-107914095D01*
M02*
