G04 #@! TF.FileFunction,Paste,Top*
%FSLAX46Y46*%
G04 Gerber Fmt 4.6, Leading zero omitted, Abs format (unit mm)*
G04 Created by KiCad (PCBNEW 4.0.2+dfsg1-stable) date ថ្ងៃ​ព្រហស្បតិ៍ ថ្ងៃ 15 ខែ មិនា ឆ្នាំ  2018, 14 ម៉ោង m នាទី 13 វិនាទី​*
%MOMM*%
G01*
G04 APERTURE LIST*
%ADD10C,0.100000*%
%ADD11C,0.200000*%
%ADD12C,0.250000*%
%ADD13C,0.300000*%
%ADD14R,1.198880X1.198880*%
%ADD15R,1.500000X1.300000*%
G04 APERTURE END LIST*
D10*
D11*
X161411905Y-105845238D02*
X160611905Y-105845238D01*
X161183333Y-105578571D01*
X160611905Y-105311904D01*
X161411905Y-105311904D01*
X160611905Y-104778571D02*
X160611905Y-104626190D01*
X160650000Y-104549999D01*
X160726190Y-104473809D01*
X160878571Y-104435714D01*
X161145238Y-104435714D01*
X161297619Y-104473809D01*
X161373810Y-104549999D01*
X161411905Y-104626190D01*
X161411905Y-104778571D01*
X161373810Y-104854761D01*
X161297619Y-104930952D01*
X161145238Y-104969047D01*
X160878571Y-104969047D01*
X160726190Y-104930952D01*
X160650000Y-104854761D01*
X160611905Y-104778571D01*
X160611905Y-104207143D02*
X160611905Y-103750000D01*
X161411905Y-103978571D02*
X160611905Y-103978571D01*
X160611905Y-103330952D02*
X160611905Y-103178571D01*
X160650000Y-103102380D01*
X160726190Y-103026190D01*
X160878571Y-102988095D01*
X161145238Y-102988095D01*
X161297619Y-103026190D01*
X161373810Y-103102380D01*
X161411905Y-103178571D01*
X161411905Y-103330952D01*
X161373810Y-103407142D01*
X161297619Y-103483333D01*
X161145238Y-103521428D01*
X160878571Y-103521428D01*
X160726190Y-103483333D01*
X160650000Y-103407142D01*
X160611905Y-103330952D01*
X161411905Y-102188095D02*
X161030952Y-102454762D01*
X161411905Y-102645238D02*
X160611905Y-102645238D01*
X160611905Y-102340476D01*
X160650000Y-102264285D01*
X160688095Y-102226190D01*
X160764286Y-102188095D01*
X160878571Y-102188095D01*
X160954762Y-102226190D01*
X160992857Y-102264285D01*
X161030952Y-102340476D01*
X161030952Y-102645238D01*
X160688095Y-101273809D02*
X160650000Y-101235714D01*
X160611905Y-101159523D01*
X160611905Y-100969047D01*
X160650000Y-100892857D01*
X160688095Y-100854761D01*
X160764286Y-100816666D01*
X160840476Y-100816666D01*
X160954762Y-100854761D01*
X161411905Y-101311904D01*
X161411905Y-100816666D01*
X182521905Y-105145238D02*
X181721905Y-105145238D01*
X182293333Y-104878571D01*
X181721905Y-104611904D01*
X182521905Y-104611904D01*
X181721905Y-104078571D02*
X181721905Y-103926190D01*
X181760000Y-103849999D01*
X181836190Y-103773809D01*
X181988571Y-103735714D01*
X182255238Y-103735714D01*
X182407619Y-103773809D01*
X182483810Y-103849999D01*
X182521905Y-103926190D01*
X182521905Y-104078571D01*
X182483810Y-104154761D01*
X182407619Y-104230952D01*
X182255238Y-104269047D01*
X181988571Y-104269047D01*
X181836190Y-104230952D01*
X181760000Y-104154761D01*
X181721905Y-104078571D01*
X181721905Y-103507143D02*
X181721905Y-103050000D01*
X182521905Y-103278571D02*
X181721905Y-103278571D01*
X181721905Y-102630952D02*
X181721905Y-102478571D01*
X181760000Y-102402380D01*
X181836190Y-102326190D01*
X181988571Y-102288095D01*
X182255238Y-102288095D01*
X182407619Y-102326190D01*
X182483810Y-102402380D01*
X182521905Y-102478571D01*
X182521905Y-102630952D01*
X182483810Y-102707142D01*
X182407619Y-102783333D01*
X182255238Y-102821428D01*
X181988571Y-102821428D01*
X181836190Y-102783333D01*
X181760000Y-102707142D01*
X181721905Y-102630952D01*
X182521905Y-101488095D02*
X182140952Y-101754762D01*
X182521905Y-101945238D02*
X181721905Y-101945238D01*
X181721905Y-101640476D01*
X181760000Y-101564285D01*
X181798095Y-101526190D01*
X181874286Y-101488095D01*
X181988571Y-101488095D01*
X182064762Y-101526190D01*
X182102857Y-101564285D01*
X182140952Y-101640476D01*
X182140952Y-101945238D01*
X182521905Y-100116666D02*
X182521905Y-100573809D01*
X182521905Y-100345238D02*
X181721905Y-100345238D01*
X181836190Y-100421428D01*
X181912381Y-100497619D01*
X181950476Y-100573809D01*
D12*
X169761905Y-110152381D02*
X169761905Y-109152381D01*
X170000000Y-109152381D01*
X170142858Y-109200000D01*
X170238096Y-109295238D01*
X170285715Y-109390476D01*
X170333334Y-109580952D01*
X170333334Y-109723810D01*
X170285715Y-109914286D01*
X170238096Y-110009524D01*
X170142858Y-110104762D01*
X170000000Y-110152381D01*
X169761905Y-110152381D01*
X171333334Y-110152381D02*
X171000000Y-109676190D01*
X170761905Y-110152381D02*
X170761905Y-109152381D01*
X171142858Y-109152381D01*
X171238096Y-109200000D01*
X171285715Y-109247619D01*
X171333334Y-109342857D01*
X171333334Y-109485714D01*
X171285715Y-109580952D01*
X171238096Y-109628571D01*
X171142858Y-109676190D01*
X170761905Y-109676190D01*
X171761905Y-110152381D02*
X171761905Y-109152381D01*
X172095238Y-109152381D02*
X172428571Y-110152381D01*
X172761905Y-109152381D01*
X173095238Y-109628571D02*
X173428572Y-109628571D01*
X173571429Y-110152381D02*
X173095238Y-110152381D01*
X173095238Y-109152381D01*
X173571429Y-109152381D01*
X174571429Y-110152381D02*
X174238095Y-109676190D01*
X174000000Y-110152381D02*
X174000000Y-109152381D01*
X174380953Y-109152381D01*
X174476191Y-109200000D01*
X174523810Y-109247619D01*
X174571429Y-109342857D01*
X174571429Y-109485714D01*
X174523810Y-109580952D01*
X174476191Y-109628571D01*
X174380953Y-109676190D01*
X174000000Y-109676190D01*
X176285715Y-110152381D02*
X175714286Y-110152381D01*
X176000000Y-110152381D02*
X176000000Y-109152381D01*
X175904762Y-109295238D01*
X175809524Y-109390476D01*
X175714286Y-109438095D01*
X149261905Y-110552381D02*
X149261905Y-109552381D01*
X149500000Y-109552381D01*
X149642858Y-109600000D01*
X149738096Y-109695238D01*
X149785715Y-109790476D01*
X149833334Y-109980952D01*
X149833334Y-110123810D01*
X149785715Y-110314286D01*
X149738096Y-110409524D01*
X149642858Y-110504762D01*
X149500000Y-110552381D01*
X149261905Y-110552381D01*
X150833334Y-110552381D02*
X150500000Y-110076190D01*
X150261905Y-110552381D02*
X150261905Y-109552381D01*
X150642858Y-109552381D01*
X150738096Y-109600000D01*
X150785715Y-109647619D01*
X150833334Y-109742857D01*
X150833334Y-109885714D01*
X150785715Y-109980952D01*
X150738096Y-110028571D01*
X150642858Y-110076190D01*
X150261905Y-110076190D01*
X151261905Y-110552381D02*
X151261905Y-109552381D01*
X151595238Y-109552381D02*
X151928571Y-110552381D01*
X152261905Y-109552381D01*
X152595238Y-110028571D02*
X152928572Y-110028571D01*
X153071429Y-110552381D02*
X152595238Y-110552381D01*
X152595238Y-109552381D01*
X153071429Y-109552381D01*
X154071429Y-110552381D02*
X153738095Y-110076190D01*
X153500000Y-110552381D02*
X153500000Y-109552381D01*
X153880953Y-109552381D01*
X153976191Y-109600000D01*
X154023810Y-109647619D01*
X154071429Y-109742857D01*
X154071429Y-109885714D01*
X154023810Y-109980952D01*
X153976191Y-110028571D01*
X153880953Y-110076190D01*
X153500000Y-110076190D01*
X155214286Y-109647619D02*
X155261905Y-109600000D01*
X155357143Y-109552381D01*
X155595239Y-109552381D01*
X155690477Y-109600000D01*
X155738096Y-109647619D01*
X155785715Y-109742857D01*
X155785715Y-109838095D01*
X155738096Y-109980952D01*
X155166667Y-110552381D01*
X155785715Y-110552381D01*
D13*
X136171428Y-108478571D02*
X136457142Y-108478571D01*
X136600000Y-108550000D01*
X136742857Y-108692857D01*
X136814285Y-108978571D01*
X136814285Y-109478571D01*
X136742857Y-109764286D01*
X136600000Y-109907143D01*
X136457142Y-109978571D01*
X136171428Y-109978571D01*
X136028571Y-109907143D01*
X135885714Y-109764286D01*
X135814285Y-109478571D01*
X135814285Y-108978571D01*
X135885714Y-108692857D01*
X136028571Y-108550000D01*
X136171428Y-108478571D01*
X137457143Y-108478571D02*
X137457143Y-109692857D01*
X137528571Y-109835714D01*
X137600000Y-109907143D01*
X137742857Y-109978571D01*
X138028571Y-109978571D01*
X138171429Y-109907143D01*
X138242857Y-109835714D01*
X138314286Y-109692857D01*
X138314286Y-108478571D01*
X138814286Y-108478571D02*
X139671429Y-108478571D01*
X139242858Y-109978571D02*
X139242858Y-108478571D01*
X140171429Y-109407143D02*
X141314286Y-109407143D01*
X135621428Y-103228571D02*
X135907142Y-103228571D01*
X136050000Y-103300000D01*
X136192857Y-103442857D01*
X136264285Y-103728571D01*
X136264285Y-104228571D01*
X136192857Y-104514286D01*
X136050000Y-104657143D01*
X135907142Y-104728571D01*
X135621428Y-104728571D01*
X135478571Y-104657143D01*
X135335714Y-104514286D01*
X135264285Y-104228571D01*
X135264285Y-103728571D01*
X135335714Y-103442857D01*
X135478571Y-103300000D01*
X135621428Y-103228571D01*
X136907143Y-103228571D02*
X136907143Y-104442857D01*
X136978571Y-104585714D01*
X137050000Y-104657143D01*
X137192857Y-104728571D01*
X137478571Y-104728571D01*
X137621429Y-104657143D01*
X137692857Y-104585714D01*
X137764286Y-104442857D01*
X137764286Y-103228571D01*
X138264286Y-103228571D02*
X139121429Y-103228571D01*
X138692858Y-104728571D02*
X138692858Y-103228571D01*
X139621429Y-104157143D02*
X140764286Y-104157143D01*
X140192857Y-104728571D02*
X140192857Y-103585714D01*
D12*
X136833333Y-120529762D02*
X136976190Y-120577381D01*
X137214286Y-120577381D01*
X137309524Y-120529762D01*
X137357143Y-120482143D01*
X137404762Y-120386905D01*
X137404762Y-120291667D01*
X137357143Y-120196429D01*
X137309524Y-120148810D01*
X137214286Y-120101190D01*
X137023809Y-120053571D01*
X136928571Y-120005952D01*
X136880952Y-119958333D01*
X136833333Y-119863095D01*
X136833333Y-119767857D01*
X136880952Y-119672619D01*
X136928571Y-119625000D01*
X137023809Y-119577381D01*
X137261905Y-119577381D01*
X137404762Y-119625000D01*
X137738095Y-119577381D02*
X137976190Y-120577381D01*
X138166667Y-119863095D01*
X138357143Y-120577381D01*
X138595238Y-119577381D01*
X138976190Y-120577381D02*
X138976190Y-119577381D01*
X139309523Y-119577381D02*
X139880952Y-119577381D01*
X139595237Y-120577381D02*
X139595237Y-119577381D01*
X140785714Y-120482143D02*
X140738095Y-120529762D01*
X140595238Y-120577381D01*
X140500000Y-120577381D01*
X140357142Y-120529762D01*
X140261904Y-120434524D01*
X140214285Y-120339286D01*
X140166666Y-120148810D01*
X140166666Y-120005952D01*
X140214285Y-119815476D01*
X140261904Y-119720238D01*
X140357142Y-119625000D01*
X140500000Y-119577381D01*
X140595238Y-119577381D01*
X140738095Y-119625000D01*
X140785714Y-119672619D01*
X141214285Y-120577381D02*
X141214285Y-119577381D01*
X141214285Y-120053571D02*
X141785714Y-120053571D01*
X141785714Y-120577381D02*
X141785714Y-119577381D01*
X143500000Y-119577381D02*
X143023809Y-119577381D01*
X142976190Y-120053571D01*
X143023809Y-120005952D01*
X143119047Y-119958333D01*
X143357143Y-119958333D01*
X143452381Y-120005952D01*
X143500000Y-120053571D01*
X143547619Y-120148810D01*
X143547619Y-120386905D01*
X143500000Y-120482143D01*
X143452381Y-120529762D01*
X143357143Y-120577381D01*
X143119047Y-120577381D01*
X143023809Y-120529762D01*
X142976190Y-120482143D01*
X143833333Y-119577381D02*
X144166666Y-120577381D01*
X144500000Y-119577381D01*
X137904762Y-121227381D02*
X138476191Y-121227381D01*
X138190476Y-122227381D02*
X138190476Y-121227381D01*
X139000000Y-121227381D02*
X139190477Y-121227381D01*
X139285715Y-121275000D01*
X139380953Y-121370238D01*
X139428572Y-121560714D01*
X139428572Y-121894048D01*
X139380953Y-122084524D01*
X139285715Y-122179762D01*
X139190477Y-122227381D01*
X139000000Y-122227381D01*
X138904762Y-122179762D01*
X138809524Y-122084524D01*
X138761905Y-121894048D01*
X138761905Y-121560714D01*
X138809524Y-121370238D01*
X138904762Y-121275000D01*
X139000000Y-121227381D01*
X141190477Y-122227381D02*
X140857143Y-121751190D01*
X140619048Y-122227381D02*
X140619048Y-121227381D01*
X141000001Y-121227381D01*
X141095239Y-121275000D01*
X141142858Y-121322619D01*
X141190477Y-121417857D01*
X141190477Y-121560714D01*
X141142858Y-121655952D01*
X141095239Y-121703571D01*
X141000001Y-121751190D01*
X140619048Y-121751190D01*
X141571429Y-121941667D02*
X142047620Y-121941667D01*
X141476191Y-122227381D02*
X141809524Y-121227381D01*
X142142858Y-122227381D01*
X142428572Y-122179762D02*
X142571429Y-122227381D01*
X142809525Y-122227381D01*
X142904763Y-122179762D01*
X142952382Y-122132143D01*
X143000001Y-122036905D01*
X143000001Y-121941667D01*
X142952382Y-121846429D01*
X142904763Y-121798810D01*
X142809525Y-121751190D01*
X142619048Y-121703571D01*
X142523810Y-121655952D01*
X142476191Y-121608333D01*
X142428572Y-121513095D01*
X142428572Y-121417857D01*
X142476191Y-121322619D01*
X142523810Y-121275000D01*
X142619048Y-121227381D01*
X142857144Y-121227381D01*
X143000001Y-121275000D01*
X143428572Y-122227381D02*
X143428572Y-121227381D01*
X143809525Y-121227381D01*
X143904763Y-121275000D01*
X143952382Y-121322619D01*
X144000001Y-121417857D01*
X144000001Y-121560714D01*
X143952382Y-121655952D01*
X143904763Y-121703571D01*
X143809525Y-121751190D01*
X143428572Y-121751190D01*
D13*
X125535714Y-113678571D02*
X125535714Y-112178571D01*
X126250000Y-113678571D02*
X126250000Y-112178571D01*
X127107143Y-113678571D01*
X127107143Y-112178571D01*
X127821429Y-113107143D02*
X128964286Y-113107143D01*
X125785714Y-105328571D02*
X125785714Y-103828571D01*
X126500000Y-105328571D02*
X126500000Y-103828571D01*
X127357143Y-105328571D01*
X127357143Y-103828571D01*
X128071429Y-104757143D02*
X129214286Y-104757143D01*
X128642857Y-105328571D02*
X128642857Y-104185714D01*
D14*
X137478040Y-115190000D03*
X135380000Y-115190000D03*
D15*
X128920000Y-115140000D03*
X131620000Y-115140000D03*
M02*
